<?xml version="1.0" encoding="utf-8"?>
<!-- Generator: Adobe Illustrator 18.1.1, SVG Export Plug-In . SVG Version: 6.00 Build 0)  -->
<svg version="1.1" id="Calque_1" xmlns="http://www.w3.org/2000/svg" xmlns:xlink="http://www.w3.org/1999/xlink" x="0px" y="0px"
	 viewBox="150 150 300 300" enable-background="new 150 150 300 300" xml:space="preserve">
<g>
	<path fill="#F15A24" d="M300.1,405.5c-10.7,0-21.6,0-32.3,0c-6.5,0-9.3-2.1-10.5-8.2c-5.1-28.1-18.8-52-35.6-74.4
		c-9.2-12.4-17.8-25.1-22.3-40.1c-12.4-40.8,4.2-94.2,55-115.1c41.8-17.1,82.1-13,117.4,16.4c24.9,20.7,34.6,48.6,32.3,80.8
		c-1.4,20.3-10.6,37.6-22.5,53.4c-12,16.1-23.4,32.6-30.7,51.3c-3.5,9.1-5.6,18.7-8.1,28.1c-1.5,5.4-4,7.6-9.8,7.6
		C322.1,405.6,311.1,405.5,300.1,405.5z M272.1,388.9c1,0.1,1.5,0.2,2.1,0.2c17.1,0,34.2,0,51.3,0.1c2.2,0,2.7-1,3.1-2.7
		c1.8-6.7,3.4-13.6,5.9-20c6.2-16.2,14.9-30.9,24.7-45c6.2-8.8,12.6-17.5,18.2-26.7c18.8-30,13-74.1-17.5-98.7
		c-31.6-25.4-66.9-27.9-103.1-11.2c-35.3,16.3-53,57-41.9,93.3c4,13.2,11.8,24.4,20.1,35.3c9.4,12.6,17.8,25.8,24.9,39.8
		C265.6,364.6,269.5,376.4,272.1,388.9z"/>
	<path fill="#FFFFFF" d="M272.1,388.9c-2.6-12.5-6.5-24.3-12.2-35.6c-7.1-14.1-15.4-27.2-24.9-39.8c-8.1-11-16-22-20.1-35.3
		c-11.1-36.4,6.6-77.2,41.9-93.3c36.1-16.7,71.5-14.2,103.1,11.2c30.5,24.5,36.3,68.7,17.5,98.7c-5.8,9.1-12.2,17.8-18.2,26.7
		c-9.9,14.1-18.7,29-24.7,45c-2.5,6.5-4,13.4-5.9,20c-0.4,1.7-1,2.7-3.1,2.7c-17.1-0.1-34.2-0.1-51.3-0.1
		C273.6,389,273.1,389,272.1,388.9z"/>
	<path stroke="#F15A24" stroke-width="16.2814" stroke-linecap="round" stroke-miterlimit="10" d="M335.3,394.3
		c0,0-6.8,22.5-6.8,42.8"/>
	
		<line fill="none" stroke="#F15A24" stroke-width="16.2814" stroke-linecap="round" stroke-miterlimit="10" x1="272.8" y1="437.2" x2="300" y2="437.2"/>
</g>
<polyline fill="none" stroke="#F05A24" stroke-width="13.0252" stroke-linecap="round" stroke-linejoin="round" stroke-miterlimit="10" points="
	300,394.3 300.1,308.3 326.1,282.3 "/>
<polyline fill="none" stroke="#F05A24" stroke-width="13.0252" stroke-linecap="round" stroke-linejoin="round" stroke-miterlimit="10" points="
	299.5,394.3 299.3,308.3 273.3,282.3 "/>
</svg>
