<?xml version="1.0" encoding="utf-8"?>
<!-- Generator: Adobe Illustrator 18.1.1, SVG Export Plug-In . SVG Version: 6.00 Build 0)  -->
<svg version="1.1" id="Calque_1" xmlns="http://www.w3.org/2000/svg" xmlns:xlink="http://www.w3.org/1999/xlink" x="0px" y="0px"
	 viewBox="170.5 138.8 300 300" enable-background="new 170.5 138.8 300 300" xml:space="preserve">
<line fill="none" stroke="#F05A24" stroke-width="16.2222" stroke-linecap="round" stroke-miterlimit="10" x1="282.5" y1="301.3" x2="227.4" y2="411.6"/>
<path fill="none" stroke="#F05A24" stroke-width="16.9538" stroke-linecap="round" stroke-miterlimit="10" d="M197.2,408"/>
<line fill="none" stroke="#F05A24" stroke-width="16.2222" stroke-linecap="round" stroke-miterlimit="10" x1="371.6" y1="251.7" x2="346.5" y2="265.5"/>
<path fill="none" stroke="#F05A24" stroke-width="16.9538" stroke-linecap="round" stroke-miterlimit="10" d="M260.4,442.8"/>
<path fill="none" stroke="#F05A24" stroke-width="16.2222" stroke-linecap="round" stroke-miterlimit="10" d="M464.5,362.6"/>
<path fill="none" stroke="#F05A24" stroke-width="16.9054" stroke-linecap="round" stroke-miterlimit="10" d="M327.4,274.4"/>
<path fill="none" stroke="#F05A24" stroke-width="16.9054" stroke-linecap="round" stroke-miterlimit="10" d="M319.5,278.7
	l-98.4,52.5c-5.9,3.6-13.4,2-16.8-3.5l-10-16.7c-3.2-5.4-1.2-12.9,4.9-16.5L412,163.8c5.9-3.6,13.4-2,16.8,3.5l16,30.9
	c3.2,5.4,1.2,12.9-4.9,16.5l-41.7,22.2"/>
<line fill="none" stroke="#F05A24" stroke-width="19.6984" stroke-linecap="round" stroke-miterlimit="10" x1="187.1" y1="319.5" x2="194.1" y2="331.2"/>
<line fill="none" stroke="#F05A24" stroke-width="17.381" stroke-linecap="round" stroke-miterlimit="10" x1="395.3" y1="184.8" x2="415.7" y2="219.1"/>
<line fill="none" stroke="#F05A24" stroke-width="16.2222" stroke-linecap="round" stroke-miterlimit="10" x1="319.9" y1="278.3" x2="385.5" y2="411.6"/>
</svg>
