<?xml version="1.0" encoding="utf-8"?>
<!-- Generator: Adobe Illustrator 18.1.1, SVG Export Plug-In . SVG Version: 6.00 Build 0)  -->
<svg version="1.1" id="Calque_1" xmlns="http://www.w3.org/2000/svg" xmlns:xlink="http://www.w3.org/1999/xlink" x="0px" y="0px"
	 viewBox="0 0 300 300" enable-background="new 0 0 300 300" xml:space="preserve">
<g>
	<g>
		<path fill="#F15A24" d="M206,212.2c16.5-3.3,33.6-8.2,48-17.3c10.1-6.4,18.7-15.5,19.3-27.9c0.7-15.6-11.6-27.4-23.8-35
			c-16.4-10.2-35.7-16.1-54.4-20.4c-20.5-4.8-41.6-7.7-62.7-8.6c-14.4-0.6-31-1.2-44.8,4c-7.2,2.7-15.2,8.6-14.9,17.1
			c0.3,10,11.2,15.5,19.2,18.6c13.3,5.3,28.1,7.2,42.3,7.8c15.4,0.7,31.2-0.5,46.2-4.2c23.7-5.9,48.4-15.8,67.6-31.1
			c16.8-13.4,26.2-35.4,10.8-53.7c-7.4-8.8-18.2-14.6-28.5-19.3c-14.5-6.7-29.8-11.7-45.1-16.3c-8.8-2.7-17.7-5.2-26.5-7.6
			c-8.4-2.3-12,10.7-3.6,13.1c27,7.5,56,14.4,80.3,28.8c6.6,3.9,14.4,9.6,17,16.4c2.4,6.4,0.2,13.8-4.4,19.8
			c-6.5,8.4-16.1,14.4-25.3,19.3c-10,5.4-20.5,9.8-31.3,13.3c-23.8,8-49.3,10.4-74.1,6.4c-9.6-1.6-21.3-3.6-29.2-9.8
			c-0.1-0.1-2-2.2-1.6-1.7c-0.1-0.2-0.8-1.2-0.3-0.4c0.5,0.8-0.1-0.1,0-0.2c-0.7,0.6,1,0.8,0.1,0.3c0.6,0.4-0.8,1,0,0.2
			c0.5-0.5-0.2,0.1,0.2-0.3c-0.2,0.2,1.1-1.1,1.4-1.4c0.6-0.5,1.8-1.2,2.8-1.8c0.3-0.2,1.7-0.8,0.7-0.4c-1,0.4,0.7-0.2,0.9-0.3
			c1.1-0.3,2.2-0.7,3.4-1c1.3-0.3,2.6-0.6,3.9-0.8c0.6-0.1,1.2-0.2,1.8-0.3c0.4-0.1,0.8-0.1,1.2-0.2c-0.7,0.1-0.4,0,0.1,0
			c7.1-0.9,14.3-1.1,21.5-1c17.9,0.2,35.9,2.1,53.5,5.4c17.5,3.3,35.3,7.6,51.6,14.9c6.4,2.9,14.1,7,19,10.7
			c5.1,4,8.3,7.2,10.7,12.6c-0.5-1.2,0.5,1.7,0.7,2.4c0.2,0.6,0.3,1.3,0.4,1.9c-0.2-1.5,0,0.5,0,1c0,0.6,0,1.1,0,1.7
			c0,1.4,0,0.7,0,0.8c-0.3,2-0.9,3.9-2,5.6c-6.4,10.6-21.2,16-32.2,19.7c-7.5,2.5-15.3,4.5-23.1,6
			C193.9,200.8,197.5,213.9,206,212.2L206,212.2z"/>
	</g>
</g>
<line stroke="#F15A24" stroke-width="13.535" stroke-linecap="round" stroke-miterlimit="10" x1="193.9" y1="287.7" x2="211.9" y2="274"/>
<g>
	
		<line stroke="#F15A24" stroke-width="13.535" stroke-linecap="round" stroke-miterlimit="10" x1="153.4" y1="23.3" x2="163" y2="43.8"/>
	
		<line stroke="#F15A24" stroke-width="13.535" stroke-linecap="round" stroke-miterlimit="10" x1="153.6" y1="21.9" x2="174.1" y2="12.3"/>
</g>
<g>
	<g>
		<path fill="#F15A24" d="M232.8,265.5c13.3-16,24.6-37.6,19.4-59.1c-3.6-14.7-15.5-25.3-28.8-31.5c-16.7-7.8-35.3-10.7-53.6-12
			c-20.5-1.5-41.1-0.8-61.6,1.3c-18.6,1.9-37.3,4.7-55.5,9.2c-10.9,2.7-23.6,5.6-32.9,12.3c-4.4,3.2-7.3,7.8-5.5,13.4
			c2.5,8.2,12.1,11.9,19.5,14.1c11.7,3.5,24.1,4.8,36.2,5.9c14.5,1.2,29.1,1.6,43.6,1.6c24.3-0.1,48.4-1.9,72.4-5.2
			c13-1.8,26-4,38.7-7.5c12.3-3.4,25-7.9,35-16c3.9-3.2,7.4-7.1,9.5-11.7c3.5-7.9-8.1-14.8-11.7-6.8c-3.7,8.3-13,13.2-21.4,16.6
			c-11.7,4.7-24.3,7.6-36.7,9.8c-20.4,3.7-41.3,5.9-62,6.8c-26.6,1.2-53.7,1.2-80.1-2.3c-5.2-0.7-10.5-1.6-15.6-2.8
			c-3.6-0.9-8.3-2.3-10.6-3.4c-0.7-0.4-1.4-0.8-2.1-1.2c-0.4-0.2-2.1-1.4-0.8-0.5c-0.5-0.3-1-0.9-1.3-1.3c1.5,1.9-1.6-1.3,0.3,0.5
			c-0.1-0.1-0.2-0.7-0.2-0.8c0,0.1,0,1.7,0.1,0.6c0.1-0.8-0.5,2.1-0.1,1.1c0.3-0.9-0.9,1.7-0.4,0.9c0.7-1,0,0.1-0.5,0.5
			c0.5-0.4,0.8-0.9,1.3-1.3c0.6-0.5-1.6,1-0.3,0.2c0.4-0.2,0.8-0.5,1.1-0.7c1.8-1,3.6-1.9,5.5-2.8c0.8-0.3-1.2,0.4,0.4-0.2
			c0.6-0.2,1.2-0.5,1.7-0.7c1.3-0.5,2.7-1,4-1.4c3-1,6-1.9,9-2.8c15.4-4.3,31.9-7.2,47.2-9.2c35.3-4.5,73.9-6.7,108,3.2
			c7.5,2.2,12.6,4.1,19.2,8.1c1.4,0.8,2.7,1.7,4,2.7c0.8,0.6-0.4-0.4,0.9,0.7c0.7,0.6,1.3,1.1,1.9,1.7c1.1,1,2.1,2.1,3.1,3.2
			c0.2,0.3,0.5,0.6,0.7,0.9c0.6,0.8-0.6-0.9-0.1-0.1c0.5,0.7,0.9,1.3,1.4,2c0.8,1.2,1.5,2.5,2.1,3.8c0.5,1-0.2-0.8,0.4,0.9
			c0.3,0.8,0.5,1.6,0.8,2.4c0.4,1.4,0.7,2.8,0.9,4.2c-0.2-1.5,0.1,0.7,0.1,1.1c0.1,1,0.1,2,0.1,3c0,6.1-1.2,11.9-3.9,18.3
			c-3.2,7.4-7.6,14.4-12.8,20.6C217.7,262.6,227.2,272.2,232.8,265.5L232.8,265.5z"/>
	</g>
</g>
</svg>
