<?xml version="1.0" encoding="utf-8"?>
<!-- Generator: Adobe Illustrator 18.1.1, SVG Export Plug-In . SVG Version: 6.00 Build 0)  -->
<svg version="1.1" id="Calque_1" xmlns="http://www.w3.org/2000/svg" xmlns:xlink="http://www.w3.org/1999/xlink" x="0px" y="0px"
	 viewBox="121.5 136 300 300" enable-background="new 121.5 136 300 300" xml:space="preserve">
<g>
	<path fill="#EE5A24" d="M298.6,377.2c0-1.3,0-2.1,0-2.8c0-34.6,0-69.1,0.1-103.7c0-2.2-0.7-3.1-2.7-3.9
		c-24.2-9.6-48.4-19.3-72.6-28.9c-0.7-0.3-1.4-0.5-2.5-0.8c0,2.5,0,4.8,0,7c0,4.7-3.6,8.5-8.1,8.5c-4.2,0-7.9-3.6-8-8.2
		c-0.1-6.3,0-12.6,0-18.9c0-4,2.1-6.6,5.9-8.1c10.3-4.1,20.6-8.3,31-12.4c19.9-8,39.9-16,59.9-24c3.3-1.3,6.5-1.4,9.8-0.1
		c25.8,10.3,51.6,20.7,77.5,31c4.4,1.8,8.9,3.5,13.2,5.3c4.9,2,6.3,4.1,6.3,9.5c0,39.6,0,79.2,0,118.8c0,1.7,0,3.3,0,5.1
		c0.1,4.4-1.9,7.4-6.1,9c-6.3,2.4-12.4,5.1-18.7,7.5c-22.1,8.9-44.4,17.8-66.5,26.6c-2.8,1.1-5.6,2.3-8.5,3
		c-1.8,0.4-3.9,0.2-5.8-0.4c-19.6-7.7-39.2-15.5-58.8-23.4c-4.2-1.7-8.4-3.4-12.6-5.2c-4.4-1.9-6.4-6.4-4.7-10.5
		c1.7-4.2,6.1-6.2,10.6-4.3c17.3,6.9,34.6,13.9,51.9,20.7C292.1,374.7,295,375.8,298.6,377.2z M392.1,237c-0.9,0.3-1.5,0.4-2.1,0.6
		c-7.3,2.9-14.6,5.8-21.8,8.7c-17.2,6.9-34.3,13.8-51.5,20.6c-1.6,0.6-2.3,1.4-2.3,3.3c0.1,34.8,0,69.5,0.1,104.3
		c0,0.7,0.1,1.4,0.2,2.4c1-0.3,1.7-0.5,2.4-0.8c24.4-9.7,48.8-19.5,73.2-29.1c1.6-0.7,2.2-1.5,2.1-3.2c-0.1-18.8-0.2-37.6-0.2-56.4
		c0-16,0-31.9,0-47.8C392.1,238.8,392.1,238,392.1,237z M377.8,225.3c0-0.2,0-0.4,0.1-0.6c-3.1-1.3-6.4-2.5-9.5-3.8
		c-19.9-8-39.9-16-60-23.9c-1.2-0.5-2.9-0.4-4.1,0c-5.3,1.9-10.4,4-15.7,6.2c-15.9,6.4-31.8,12.7-47.5,19.1c-2,0.8-4,1.7-6.5,2.7
		c1.2,0.5,1.8,0.8,2.4,1.1c22.6,9,45.1,18,67.8,26.9c1.1,0.4,2.6,0.3,3.7-0.1c18.7-7.4,37.3-14.9,56-22.2
		C369,228.8,373.4,227.1,377.8,225.3z"/>
	<path fill="#EE5A24" d="M223.9,326.7c8.8,0,17.7,0.1,26.5-0.1c4.9-0.1,8.6,3.8,8.5,8c-0.1,4.7-3.4,8-8.5,8c-17.8,0-35.6,0-53.4,0
		c-4,0-7.4-2.8-7.9-6.5c-0.6-3.9,1.6-7.6,5.5-8.9c1-0.3,2-0.4,3.1-0.4C206.4,326.7,215.2,326.7,223.9,326.7z"/>
	<path fill="#EE5A24" d="M230.6,265.1c7,0,14.1,0,21,0c4.4,0,7.1,2.9,7.2,7.8c0,4.9-2.8,8.1-7.2,8.1c-13.8,0-27.5-0.2-41.3,0.1
		c-6.2,0.2-9.5-5.8-7.6-11.2c1.2-3.4,3.1-4.8,6.8-4.8C216.7,265.1,223.7,265.1,230.6,265.1z"/>
	<path fill="#EE5A24" d="M230.5,311.5c-7,0-14.1-0.2-21,0.1c-4.3,0.1-7.2-3.4-7.2-8.1c-0.1-4.6,3-7.9,7.3-7.9c14.2,0,28.2,0,42.4,0
		c2.9,0,5,1.3,6.2,3.9c1.2,2.6,1.2,5.3,0.1,7.9c-1.1,2.5-3,4-6.1,4C244.9,311.5,237.7,311.5,230.5,311.5z"/>
	<path fill="#EE5A24" d="M155.4,342.6c-4.9,0-9.7,0-14.6,0c-4.6,0-7.9-3.2-8-7.7c-0.1-4.6,3.1-8.1,7.8-8.2c9.8-0.1,19.6-0.1,29.4,0
		c4.8,0,7.9,3.5,7.8,8.3c-0.1,4.3-3.5,7.5-8.2,7.5c-2.4,0-4.8,0-7.2,0C160.1,342.6,157.8,342.6,155.4,342.6z"/>
</g>
</svg>
