<svg xmlns="http://www.w3.org/2000/svg" width="684.01" height="231.95" viewBox="0 0 684.01 231.95"><title>bulle-texte</title><text transform="translate(34.01 60.03)" font-size="36" fill="#fc4c02" font-family="Open Sans Extra-Bold, Open Sans"><tspan letter-spacing="-0.02em">L</tspan><tspan x="20.56" y="0">UTTER </tspan><tspan x="146.45" y="0" letter-spacing="-0.01em">C</tspan><tspan x="169.74" y="0">ONTRE LE G</tspan><tspan x="375.73" y="0" letter-spacing="-0.03em">Â</tspan><tspan x="398.91" y="0">CHIS </tspan><tspan x="491.21" y="0" letter-spacing="-0.01em">S</tspan><tspan x="512.92" y="0">ANS </tspan><tspan x="0" y="38">BULLSHI</tspan><tspan x="154.44" y="38" letter-spacing="-0.03em">T</tspan><tspan x="175.86" y="38" xml:space="preserve"> E</tspan><tspan x="205.45" y="38" letter-spacing="-0.03em">T </tspan><tspan x="233.93" y="38">T</tspan><tspan x="256.39" y="38" letter-spacing="-0.01em">R</tspan><tspan x="280.65" y="38">OISIÈME LIGNE </tspan><tspan x="0" y="76">P</tspan><tspan x="22.32" y="76" letter-spacing="-0.01em">O</tspan><tspan x="48.28" y="76">SSIBLE</tspan></text><line x1="678.01" y1="107.33" x2="678.01" y2="138.66" fill="none" stroke="#fc4c02" stroke-linecap="round" stroke-linejoin="round" stroke-width="12.01"/><path d="M648,170H314v47.39a8.54,8.54,0,0,1-14.57,6L246,170H18A12,12,0,0,1,6,158V18A12,12,0,0,1,18,6H666a12,12,0,0,1,12,12V81" fill="none" stroke="#fc4c02" stroke-linecap="round" stroke-linejoin="round" stroke-width="12.01"/></svg>