<svg xmlns="http://www.w3.org/2000/svg" width="300.75" height="179.57" viewBox="0 0 300.75 179.57">
  <path  style="fill: #fc4c02; fill-rule: evenodd;" id="Nous_progressons_ensemble_car_vous_transformer_nous_transforme_copie" data-name="Nous progressons ensemble, car vous transformer nous transforme copie" class="cls-1" d="M52.912,2137.86h3.72v-17.04h-4.68v8.66l-6.84-8.66H41.464v17.04h4.68v-8.38Zm17.184-.58a8.269,8.269,0,0,0,2.592-1.9,9.02,9.02,0,0,0,1.692-2.74,8.7,8.7,0,0,0,.612-3.23,9.128,9.128,0,0,0-.576-3.19,8.786,8.786,0,0,0-1.644-2.78,8.075,8.075,0,0,0-2.568-1.97,7.329,7.329,0,0,0-3.324-.75,7.662,7.662,0,0,0-3.3.71,8.435,8.435,0,0,0-2.6,1.9,8.6,8.6,0,0,0-1.716,2.75,8.8,8.8,0,0,0-.612,3.24,9.023,9.023,0,0,0,.588,3.21,8.793,8.793,0,0,0,1.656,2.77,8.332,8.332,0,0,0,2.568,1.96,7.321,7.321,0,0,0,3.324.74A7.6,7.6,0,0,0,70.1,2137.28Zm-6.492-9.56a4.584,4.584,0,0,1,.624-1.44,3.375,3.375,0,0,1,1.056-1.02,2.855,2.855,0,0,1,1.524-.38,2.963,2.963,0,0,1,1.512.37,3.217,3.217,0,0,1,1.068.98,4.589,4.589,0,0,1,.636,1.42,6.361,6.361,0,0,1,.216,1.67,6.745,6.745,0,0,1-.2,1.65,4.733,4.733,0,0,1-.612,1.45,3.282,3.282,0,0,1-1.056,1.04,2.923,2.923,0,0,1-1.536.39,2.967,2.967,0,0,1-1.512-.38,3.427,3.427,0,0,1-1.08-1.01,4.378,4.378,0,0,1-.636-1.43A6.815,6.815,0,0,1,63.6,2127.72Zm19.44,5.78a2.776,2.776,0,0,1-.924-0.93,4.344,4.344,0,0,1-.528-1.37,7.667,7.667,0,0,1-.168-1.62v-8.76h-4.68v8.76a11.8,11.8,0,0,0,.432,3.23,7.339,7.339,0,0,0,1.368,2.67,6.731,6.731,0,0,0,2.388,1.84,8.081,8.081,0,0,0,3.492.68,8.371,8.371,0,0,0,3.42-.64,6.826,6.826,0,0,0,2.412-1.78,7.161,7.161,0,0,0,1.416-2.68,11.7,11.7,0,0,0,.456-3.32v-8.76h-4.68v8.76a7.524,7.524,0,0,1-.168,1.61,4.327,4.327,0,0,1-.528,1.35,2.8,2.8,0,0,1-.936.95,2.575,2.575,0,0,1-1.392.36A2.51,2.51,0,0,1,83.043,2133.5Zm24.084-10.98c-0.384-.19-0.816-0.39-1.3-0.61s-1-.41-1.548-0.6a15.4,15.4,0,0,0-1.716-.45,9.159,9.159,0,0,0-1.824-.18,7.665,7.665,0,0,0-2.412.37,6.31,6.31,0,0,0-2.028,1.09,5.122,5.122,0,0,0-1.4,1.8,5.723,5.723,0,0,0-.516,2.5,4.983,4.983,0,0,0,.252,1.65,3.66,3.66,0,0,0,.78,1.29,5.249,5.249,0,0,0,1.344,1,11.633,11.633,0,0,0,1.944.83c0.512,0.18,1,.33,1.452.46s0.86,0.25,1.212.38a2.746,2.746,0,0,1,.828.45,0.757,0.757,0,0,1,.3.61,0.635,0.635,0,0,1-.3.54,2.081,2.081,0,0,1-1.068.2,6.666,6.666,0,0,1-1.98-.29,12.188,12.188,0,0,1-1.74-.64,15.6,15.6,0,0,1-1.752-.94l-2.016,4.1a11.339,11.339,0,0,0,1.668.82,15.917,15.917,0,0,0,1.872.62,14.848,14.848,0,0,0,1.956.41,12.732,12.732,0,0,0,1.92.15,10.337,10.337,0,0,0,2.34-.28,6.125,6.125,0,0,0,2.088-.9,4.631,4.631,0,0,0,1.488-1.67,5.341,5.341,0,0,0,.564-2.58,5.171,5.171,0,0,0-.36-2.04,4,4,0,0,0-1.032-1.43,6.711,6.711,0,0,0-1.62-1.02,18.9,18.9,0,0,0-2.124-.79c-0.5-.16-0.94-0.29-1.332-0.41a7.617,7.617,0,0,1-1-.34,2.125,2.125,0,0,1-.624-0.4,0.743,0.743,0,0,1-.216-0.55,0.67,0.67,0,0,1,.372-0.65,2.159,2.159,0,0,1,1-.19,5.174,5.174,0,0,1,1.572.25,14.528,14.528,0,0,1,1.452.54,12.186,12.186,0,0,1,1.488.77Zm12.552,15.34v-5.23h2.784a5.429,5.429,0,0,0,2.292-.49,5.5,5.5,0,0,0,1.776-1.32,6.306,6.306,0,0,0,1.14-1.9,6.086,6.086,0,0,0,.408-2.2,5.64,5.64,0,0,0-.432-2.14,6.176,6.176,0,0,0-1.188-1.9,5.936,5.936,0,0,0-1.812-1.34,5.106,5.106,0,0,0-2.3-.52H115v17.04h4.68Zm0-12.96h2.352a1.333,1.333,0,0,1,.864.38,1.9,1.9,0,0,1,.432,1.44,2.092,2.092,0,0,1-.372,1.43,1.081,1.081,0,0,1-.8.4h-2.472v-3.65Zm14.88,12.96v-5.23h1.752l3.24,5.23h5.28l-3.84-6.26a5.747,5.747,0,0,0,1.8-2.1,6.087,6.087,0,0,0,.648-2.78,5.64,5.64,0,0,0-.432-2.14,6.176,6.176,0,0,0-1.188-1.9,5.948,5.948,0,0,0-1.812-1.34,5.106,5.106,0,0,0-2.3-.52h-7.824v17.04h4.68Zm0-12.96h2.832a1.221,1.221,0,0,1,.864.47,1.914,1.914,0,0,1,.432,1.35,2.166,2.166,0,0,1-.372,1.35,1.037,1.037,0,0,1-.8.48h-2.952v-3.65Zm22.031,12.38a8.269,8.269,0,0,0,2.592-1.9,9.02,9.02,0,0,0,1.692-2.74,8.7,8.7,0,0,0,.612-3.23,9.128,9.128,0,0,0-.576-3.19,8.78,8.78,0,0,0-1.644-2.78,8.07,8.07,0,0,0-2.568-1.97,7.328,7.328,0,0,0-3.324-.75,7.663,7.663,0,0,0-3.3.71,8.441,8.441,0,0,0-2.6,1.9,8.606,8.606,0,0,0-1.716,2.75,8.8,8.8,0,0,0-.612,3.24,9.03,9.03,0,0,0,.588,3.21,8.8,8.8,0,0,0,1.656,2.77,8.338,8.338,0,0,0,2.568,1.96,7.322,7.322,0,0,0,3.324.74A7.6,7.6,0,0,0,156.59,2137.28Zm-6.492-9.56a4.6,4.6,0,0,1,.624-1.44,3.38,3.38,0,0,1,1.056-1.02,2.856,2.856,0,0,1,1.524-.38,2.963,2.963,0,0,1,1.512.37,3.215,3.215,0,0,1,1.068.98,4.582,4.582,0,0,1,.636,1.42,6.361,6.361,0,0,1,.216,1.67,6.73,6.73,0,0,1-.2,1.65,4.724,4.724,0,0,1-.612,1.45,3.279,3.279,0,0,1-1.056,1.04,2.922,2.922,0,0,1-1.536.39,2.967,2.967,0,0,1-1.512-.38,3.427,3.427,0,0,1-1.08-1.01,4.384,4.384,0,0,1-.636-1.43A6.815,6.815,0,0,1,150.1,2127.72Zm24.012,10.14h3.864v-9.07h-7.008v3.36h3a5.372,5.372,0,0,1-1.5,1.25,3.57,3.57,0,0,1-1.668.43,3,3,0,0,1-1.4-.33,3.171,3.171,0,0,1-1.092-.91,4.37,4.37,0,0,1-.708-1.4,6.7,6.7,0,0,1,0-3.64,4.692,4.692,0,0,1,.7-1.43,3.2,3.2,0,0,1,1.056-.93,2.663,2.663,0,0,1,1.332-.34,3.247,3.247,0,0,1,1.86.61,3.745,3.745,0,0,1,1.308,1.62l3.48-2.66a6.233,6.233,0,0,0-1.092-1.55,6.875,6.875,0,0,0-1.5-1.17,7.061,7.061,0,0,0-1.824-.75,8.2,8.2,0,0,0-2.064-.25,8.01,8.01,0,0,0-3.24.66,8.19,8.19,0,0,0-4.38,4.49,8.727,8.727,0,0,0-.636,3.35,9.29,9.29,0,0,0,2.316,6.16,8.2,8.2,0,0,0,2.484,1.91,6.647,6.647,0,0,0,3,.71,5.257,5.257,0,0,0,3.72-1.51v1.39Zm10.848,0v-5.23h1.752l3.24,5.23h5.28l-3.84-6.26a5.747,5.747,0,0,0,1.8-2.1,6.087,6.087,0,0,0,.648-2.78,5.64,5.64,0,0,0-.432-2.14,6.176,6.176,0,0,0-1.188-1.9,5.936,5.936,0,0,0-1.812-1.34,5.1,5.1,0,0,0-2.3-.52h-7.824v17.04h4.68Zm0-12.96h2.832a1.221,1.221,0,0,1,.864.47,1.914,1.914,0,0,1,.432,1.35,2.159,2.159,0,0,1-.372,1.35,1.036,1.036,0,0,1-.8.48h-2.952v-3.65Zm16.464,8.88v-2.69h6.192v-3.79h-6.192v-2.4h7.248v-4.08H196.742v17.04h12.144v-4.08h-7.464Zm21.839-11.26c-0.384-.19-0.816-0.39-1.3-0.61s-1-.41-1.548-0.6a15.4,15.4,0,0,0-1.716-.45,9.159,9.159,0,0,0-1.824-.18,7.668,7.668,0,0,0-2.412.37,6.315,6.315,0,0,0-2.028,1.09,5.126,5.126,0,0,0-1.4,1.8,5.726,5.726,0,0,0-.516,2.5,4.983,4.983,0,0,0,.252,1.65,3.66,3.66,0,0,0,.78,1.29,5.254,5.254,0,0,0,1.344,1,11.648,11.648,0,0,0,1.944.83c0.512,0.18,1,.33,1.452.46s0.86,0.25,1.212.38a2.746,2.746,0,0,1,.828.45,0.757,0.757,0,0,1,.3.61,0.635,0.635,0,0,1-.3.54,2.081,2.081,0,0,1-1.068.2,6.667,6.667,0,0,1-1.98-.29,12.2,12.2,0,0,1-1.74-.64,15.633,15.633,0,0,1-1.752-.94l-2.016,4.1a11.344,11.344,0,0,0,1.668.82,15.911,15.911,0,0,0,1.872.62,14.854,14.854,0,0,0,1.956.41,12.734,12.734,0,0,0,1.92.15,10.337,10.337,0,0,0,2.34-.28,6.125,6.125,0,0,0,2.088-.9,4.631,4.631,0,0,0,1.488-1.67,5.341,5.341,0,0,0,.564-2.58,5.171,5.171,0,0,0-.36-2.04,4,4,0,0,0-1.032-1.43,6.711,6.711,0,0,0-1.62-1.02,18.9,18.9,0,0,0-2.124-.79c-0.5-.16-0.94-0.29-1.332-0.41a7.617,7.617,0,0,1-1-.34,2.127,2.127,0,0,1-.624-0.4,0.743,0.743,0,0,1-.216-0.55,0.67,0.67,0,0,1,.372-0.65,2.16,2.16,0,0,1,1-.19,5.174,5.174,0,0,1,1.572.25,14.528,14.528,0,0,1,1.452.54,12.186,12.186,0,0,1,1.488.77Zm14.808,0c-0.384-.19-0.816-0.39-1.3-0.61s-1-.41-1.548-0.6a15.4,15.4,0,0,0-1.716-.45,9.159,9.159,0,0,0-1.824-.18,7.668,7.668,0,0,0-2.412.37,6.315,6.315,0,0,0-2.028,1.09,5.126,5.126,0,0,0-1.4,1.8,5.726,5.726,0,0,0-.516,2.5,4.983,4.983,0,0,0,.252,1.65,3.66,3.66,0,0,0,.78,1.29,5.254,5.254,0,0,0,1.344,1,11.648,11.648,0,0,0,1.944.83c0.512,0.18,1,.33,1.452.46s0.86,0.25,1.212.38a2.746,2.746,0,0,1,.828.45,0.757,0.757,0,0,1,.3.61,0.635,0.635,0,0,1-.3.54,2.081,2.081,0,0,1-1.068.2,6.667,6.667,0,0,1-1.98-.29,12.2,12.2,0,0,1-1.74-.64,15.633,15.633,0,0,1-1.752-.94l-2.016,4.1a11.344,11.344,0,0,0,1.668.82,15.911,15.911,0,0,0,1.872.62,14.854,14.854,0,0,0,1.956.41,12.734,12.734,0,0,0,1.92.15,10.337,10.337,0,0,0,2.34-.28,6.125,6.125,0,0,0,2.088-.9,4.631,4.631,0,0,0,1.488-1.67,5.341,5.341,0,0,0,.564-2.58,5.171,5.171,0,0,0-.36-2.04,4,4,0,0,0-1.032-1.43,6.711,6.711,0,0,0-1.62-1.02,18.9,18.9,0,0,0-2.124-.79c-0.5-.16-0.94-0.29-1.332-0.41a7.617,7.617,0,0,1-1-.34,2.127,2.127,0,0,1-.624-0.4,0.743,0.743,0,0,1-.216-0.55,0.67,0.67,0,0,1,.372-0.65,2.16,2.16,0,0,1,1-.19,5.174,5.174,0,0,1,1.572.25,14.528,14.528,0,0,1,1.452.54,12.186,12.186,0,0,1,1.488.77Zm13.008,14.76a8.269,8.269,0,0,0,2.592-1.9,9.02,9.02,0,0,0,1.692-2.74,8.7,8.7,0,0,0,.612-3.23,9.128,9.128,0,0,0-.576-3.19,8.78,8.78,0,0,0-1.644-2.78,8.07,8.07,0,0,0-2.568-1.97,7.328,7.328,0,0,0-3.324-.75,7.663,7.663,0,0,0-3.3.71,8.441,8.441,0,0,0-2.6,1.9,8.606,8.606,0,0,0-1.716,2.75,8.8,8.8,0,0,0-.612,3.24,9.03,9.03,0,0,0,.588,3.21,8.8,8.8,0,0,0,1.656,2.77,8.338,8.338,0,0,0,2.568,1.96,7.322,7.322,0,0,0,3.324.74A7.6,7.6,0,0,0,251.077,2137.28Zm-6.492-9.56a4.6,4.6,0,0,1,.624-1.44,3.38,3.38,0,0,1,1.056-1.02,2.856,2.856,0,0,1,1.524-.38,2.963,2.963,0,0,1,1.512.37,3.215,3.215,0,0,1,1.068.98,4.582,4.582,0,0,1,.636,1.42,6.361,6.361,0,0,1,.216,1.67,6.73,6.73,0,0,1-.2,1.65,4.724,4.724,0,0,1-.612,1.45,3.279,3.279,0,0,1-1.056,1.04,2.922,2.922,0,0,1-1.536.39,2.967,2.967,0,0,1-1.512-.38,3.427,3.427,0,0,1-1.08-1.01,4.384,4.384,0,0,1-.636-1.43A6.815,6.815,0,0,1,244.585,2127.72Zm24.852,10.14h3.72v-17.04h-4.68v8.66l-6.84-8.66h-3.648v17.04h4.68v-8.38Zm18.984-15.34c-0.384-.19-0.816-0.39-1.3-0.61s-1-.41-1.548-0.6a15.454,15.454,0,0,0-1.716-.45,9.166,9.166,0,0,0-1.824-.18,7.659,7.659,0,0,0-2.412.37,6.294,6.294,0,0,0-2.028,1.09,5.1,5.1,0,0,0-1.4,1.8,5.712,5.712,0,0,0-.516,2.5,4.983,4.983,0,0,0,.252,1.65,3.646,3.646,0,0,0,.78,1.29,5.219,5.219,0,0,0,1.344,1,11.576,11.576,0,0,0,1.944.83c0.511,0.18,1,.33,1.452.46s0.859,0.25,1.212.38a2.771,2.771,0,0,1,.828.45,0.76,0.76,0,0,1,.3.61,0.637,0.637,0,0,1-.3.54,2.086,2.086,0,0,1-1.068.2,6.667,6.667,0,0,1-1.98-.29,12.153,12.153,0,0,1-1.74-.64,15.46,15.46,0,0,1-1.752-.94l-2.016,4.1a11.3,11.3,0,0,0,1.668.82,15.911,15.911,0,0,0,1.872.62,14.821,14.821,0,0,0,1.956.41,12.724,12.724,0,0,0,1.92.15,10.351,10.351,0,0,0,2.34-.28,6.142,6.142,0,0,0,2.088-.9,4.649,4.649,0,0,0,1.488-1.67,5.352,5.352,0,0,0,.564-2.58,5.171,5.171,0,0,0-.36-2.04,4.013,4.013,0,0,0-1.032-1.43,6.751,6.751,0,0,0-1.62-1.02,19.05,19.05,0,0,0-2.124-.79c-0.5-.16-0.941-0.29-1.332-0.41a7.515,7.515,0,0,1-1-.34,2.114,2.114,0,0,1-.624-0.4,0.743,0.743,0,0,1-.216-0.55,0.669,0.669,0,0,1,.372-0.65,2.155,2.155,0,0,1,1-.19,5.183,5.183,0,0,1,1.572.25,14.621,14.621,0,0,1,1.452.54,12.259,12.259,0,0,1,1.488.77ZM46.144,2162.58v-2.69h6.192v-3.79H46.144v-2.4h7.248v-4.08H41.464v17.04H53.608v-4.08H46.144Zm21.1,4.08h3.72v-17.04h-4.68v8.66l-6.84-8.66H55.791v17.04h4.68v-8.38Zm18.984-15.34c-0.384-.19-0.816-0.39-1.3-0.61s-1-.41-1.548-0.6a15.414,15.414,0,0,0-1.716-.45,9.16,9.16,0,0,0-1.824-.18,7.665,7.665,0,0,0-2.412.37,6.311,6.311,0,0,0-2.028,1.09,5.123,5.123,0,0,0-1.4,1.8,5.722,5.722,0,0,0-.516,2.5,4.983,4.983,0,0,0,.252,1.65,3.659,3.659,0,0,0,.78,1.29,5.247,5.247,0,0,0,1.344,1,11.626,11.626,0,0,0,1.944.83c0.512,0.18,1,.33,1.452.46s0.86,0.25,1.212.38a2.753,2.753,0,0,1,.828.45,0.758,0.758,0,0,1,.3.61,0.635,0.635,0,0,1-.3.54,2.082,2.082,0,0,1-1.068.2,6.667,6.667,0,0,1-1.98-.29,12.194,12.194,0,0,1-1.74-.64,15.6,15.6,0,0,1-1.752-.94l-2.016,4.1a11.339,11.339,0,0,0,1.668.82,15.911,15.911,0,0,0,1.872.62,14.844,14.844,0,0,0,1.956.41,12.733,12.733,0,0,0,1.92.15,10.341,10.341,0,0,0,2.34-.28,6.127,6.127,0,0,0,2.088-.9,4.634,4.634,0,0,0,1.488-1.67,5.344,5.344,0,0,0,.564-2.58,5.171,5.171,0,0,0-.36-2.04,4,4,0,0,0-1.032-1.43,6.715,6.715,0,0,0-1.62-1.02,18.946,18.946,0,0,0-2.124-.79c-0.5-.16-0.94-0.29-1.332-0.41a7.6,7.6,0,0,1-1-.34,2.123,2.123,0,0,1-.624-0.4,0.743,0.743,0,0,1-.216-0.55,0.67,0.67,0,0,1,.372-0.65,2.159,2.159,0,0,1,1-.19,5.176,5.176,0,0,1,1.572.25,14.537,14.537,0,0,1,1.452.54,12.193,12.193,0,0,1,1.488.77Zm7.152,11.26v-2.69h6.192v-3.79H93.375v-2.4h7.248v-4.08H88.695v17.04h12.144v-4.08H93.375Zm27.215,4.08v-17.04H115.5l-3.7,8.02-3.672-8.02h-5.112v17.04h4.68v-8.98l2.856,6.32h2.5l2.856-6.32v8.98h4.68Zm16.572-7.24a4.523,4.523,0,0,0-2.316-1.5,3.79,3.79,0,0,0,1.836-1.64,4.62,4.62,0,0,0,.612-2.29,4.749,4.749,0,0,0-.276-1.6,4.578,4.578,0,0,0-.78-1.39,4.056,4.056,0,0,0-1.224-1,3.431,3.431,0,0,0-1.608-.38h-9.888v17.04h8.376a10.592,10.592,0,0,0,2.364-.25,6.316,6.316,0,0,0,1.956-.78,3.736,3.736,0,0,0,1.8-3.34A4.491,4.491,0,0,0,137.162,2159.42Zm-4.3,2.94a1.392,1.392,0,0,1-.972.36h-3.7v-2.85h3.864a1.057,1.057,0,0,1,.864.42,1.618,1.618,0,0,1,.336,1.04A1.316,1.316,0,0,1,132.866,2162.36Zm-1.332-8.76a1.15,1.15,0,0,1,.792.3,1.294,1.294,0,0,1,.336,1,1.2,1.2,0,0,1-.4,1.06,1.589,1.589,0,0,1-.876.26H128.2v-2.62h3.336Zm20.928,13.06v-4.08h-7.728v-12.96h-4.68v17.04h12.408Zm6.384-4.08v-2.69h6.192v-3.79h-6.192v-2.4h7.248v-4.08H154.166v17.04H166.31v-4.08h-7.464Zm8.5,7.75a9.922,9.922,0,0,0,1.56-.14,5.391,5.391,0,0,0,1.536-.51,3.32,3.32,0,0,0,1.164-.98,2.615,2.615,0,0,0,.468-1.61v-4.85h-3.7v3.94a1.023,1.023,0,0,1-.156.52,1.083,1.083,0,0,1-.3.28,0.811,0.811,0,0,1-.336.14c-0.112.01-.192,0.02-0.24,0.02v3.19Zm12.527-9.12a9.4,9.4,0,0,0,1.668,2.83,8.23,8.23,0,0,0,2.556,2.01,7.148,7.148,0,0,0,3.264.75,8.292,8.292,0,0,0,2.064-.26,8.57,8.57,0,0,0,1.992-.77,6.7,6.7,0,0,0,1.668-1.25,4.762,4.762,0,0,0,1.092-1.68l-3.816-2.28a3.076,3.076,0,0,1-.516.98,2.919,2.919,0,0,1-.72.64,2.7,2.7,0,0,1-.828.36,3.11,3.11,0,0,1-.84.11,2.8,2.8,0,0,1-1.452-.37,3.45,3.45,0,0,1-1.08-1,4.469,4.469,0,0,1-.672-1.44,6.263,6.263,0,0,1-.228-1.7,6.9,6.9,0,0,1,.192-1.6,4.591,4.591,0,0,1,.612-1.44,3.527,3.527,0,0,1,1.056-1.03,2.859,2.859,0,0,1,1.524-.39,4.362,4.362,0,0,1,.84.09,3.028,3.028,0,0,1,.864.34,2.849,2.849,0,0,1,.756.65,3.1,3.1,0,0,1,.564,1.03l3.576-2.55a6.339,6.339,0,0,0-2.52-2.7,7.608,7.608,0,0,0-3.984-1.02,7.753,7.753,0,0,0-3.468.75,8.2,8.2,0,0,0-2.592,1.94,8.426,8.426,0,0,0-1.62,2.71A8.878,8.878,0,0,0,179.869,2161.21Zm19.1,5.45,1.008-3.34h4.536l1.032,3.34h4.944l-6.336-17.04h-3.792l-6.36,17.04h4.968Zm4.8-6.46h-3.1l1.584-5.71Zm12.672,6.46v-5.23H218.2l3.24,5.23h5.28l-3.84-6.26a5.747,5.747,0,0,0,1.8-2.1,6.087,6.087,0,0,0,.648-2.78,5.64,5.64,0,0,0-.432-2.14,6.176,6.176,0,0,0-1.188-1.9,5.936,5.936,0,0,0-1.812-1.34,5.1,5.1,0,0,0-2.3-.52h-7.824v17.04h4.68Zm0-12.96h2.832a1.221,1.221,0,0,1,.864.47,1.914,1.914,0,0,1,.432,1.35,2.159,2.159,0,0,1-.372,1.35,1.036,1.036,0,0,1-.8.48h-2.952v-3.65Zm14.688-4.08,6.336,17.04h3.888l6.264-17.04H242.7l-3.288,11.16-3.336-11.16h-4.944Zm27.648,16.46a8.269,8.269,0,0,0,2.592-1.9,9.02,9.02,0,0,0,1.692-2.74,8.7,8.7,0,0,0,.612-3.23,9.128,9.128,0,0,0-.576-3.19,8.78,8.78,0,0,0-1.644-2.78,8.07,8.07,0,0,0-2.568-1.97,7.328,7.328,0,0,0-3.324-.75,7.663,7.663,0,0,0-3.3.71,8.441,8.441,0,0,0-2.6,1.9,8.606,8.606,0,0,0-1.716,2.75,8.8,8.8,0,0,0-.612,3.24,9.03,9.03,0,0,0,.588,3.21,8.8,8.8,0,0,0,1.656,2.77,8.338,8.338,0,0,0,2.568,1.96,7.322,7.322,0,0,0,3.324.74A7.6,7.6,0,0,0,258.781,2166.08Zm-6.492-9.56a4.6,4.6,0,0,1,.624-1.44,3.38,3.38,0,0,1,1.056-1.02,2.856,2.856,0,0,1,1.524-.38,2.963,2.963,0,0,1,1.512.37,3.215,3.215,0,0,1,1.068.98,4.582,4.582,0,0,1,.636,1.42,6.361,6.361,0,0,1,.216,1.67,6.73,6.73,0,0,1-.2,1.65,4.724,4.724,0,0,1-.612,1.45,3.279,3.279,0,0,1-1.056,1.04,2.922,2.922,0,0,1-1.536.39,2.967,2.967,0,0,1-1.512-.38,3.427,3.427,0,0,1-1.08-1.01,4.384,4.384,0,0,1-.636-1.43A6.815,6.815,0,0,1,252.289,2156.52Zm19.44,5.78a2.777,2.777,0,0,1-.924-0.93,4.325,4.325,0,0,1-.528-1.37,7.674,7.674,0,0,1-.168-1.62v-8.76h-4.68v8.76a11.8,11.8,0,0,0,.432,3.23,7.339,7.339,0,0,0,1.368,2.67,6.724,6.724,0,0,0,2.388,1.84,8.082,8.082,0,0,0,3.492.68,8.377,8.377,0,0,0,3.42-.64,6.824,6.824,0,0,0,2.412-1.78,7.171,7.171,0,0,0,1.416-2.68,11.73,11.73,0,0,0,.456-3.32v-8.76h-4.68v8.76a7.576,7.576,0,0,1-.168,1.61,4.325,4.325,0,0,1-.528,1.35,2.8,2.8,0,0,1-.936.95,2.577,2.577,0,0,1-1.392.36A2.508,2.508,0,0,1,271.729,2162.3Zm24.084-10.98c-0.384-.19-0.816-0.39-1.3-0.61s-1-.41-1.548-0.6a15.454,15.454,0,0,0-1.716-.45,9.166,9.166,0,0,0-1.824-.18,7.659,7.659,0,0,0-2.412.37,6.294,6.294,0,0,0-2.028,1.09,5.1,5.1,0,0,0-1.4,1.8,5.712,5.712,0,0,0-.516,2.5,4.983,4.983,0,0,0,.252,1.65,3.646,3.646,0,0,0,.78,1.29,5.219,5.219,0,0,0,1.344,1,11.576,11.576,0,0,0,1.944.83c0.511,0.18,1,.33,1.452.46s0.859,0.25,1.212.38a2.771,2.771,0,0,1,.828.45,0.76,0.76,0,0,1,.3.61,0.637,0.637,0,0,1-.3.54,2.086,2.086,0,0,1-1.068.2,6.667,6.667,0,0,1-1.98-.29,12.153,12.153,0,0,1-1.74-.64,15.46,15.46,0,0,1-1.752-.94l-2.016,4.1a11.3,11.3,0,0,0,1.668.82,15.911,15.911,0,0,0,1.872.62,14.821,14.821,0,0,0,1.956.41,12.724,12.724,0,0,0,1.92.15,10.351,10.351,0,0,0,2.34-.28,6.142,6.142,0,0,0,2.088-.9,4.649,4.649,0,0,0,1.488-1.67,5.352,5.352,0,0,0,.564-2.58,5.171,5.171,0,0,0-.36-2.04,4.013,4.013,0,0,0-1.032-1.43,6.751,6.751,0,0,0-1.62-1.02,19.05,19.05,0,0,0-2.124-.79c-0.5-.16-0.941-0.29-1.332-0.41a7.515,7.515,0,0,1-1-.34,2.114,2.114,0,0,1-.624-0.4,0.743,0.743,0,0,1-.216-0.55,0.669,0.669,0,0,1,.372-0.65,2.155,2.155,0,0,1,1-.19,5.183,5.183,0,0,1,1.572.25,14.621,14.621,0,0,1,1.452.54,12.259,12.259,0,0,1,1.488.77Zm-241.077,27.1H40.24v4.08h4.92v12.96h4.68V2182.5h4.9v-4.08Zm6.384,17.04v-5.23h1.752l3.24,5.23h5.28l-3.84-6.26a5.747,5.747,0,0,0,1.8-2.1,6.087,6.087,0,0,0,.648-2.78,5.64,5.64,0,0,0-.432-2.14,6.176,6.176,0,0,0-1.188-1.9,5.938,5.938,0,0,0-1.812-1.34,5.1,5.1,0,0,0-2.3-.52H56.439v17.04h4.68Zm0-12.96h2.832a1.221,1.221,0,0,1,.864.47,1.914,1.914,0,0,1,.432,1.35,2.16,2.16,0,0,1-.372,1.35,1.036,1.036,0,0,1-.8.48H61.119v-3.65Zm15.1,12.96,1.008-3.34h4.536l1.032,3.34h4.944L81.4,2178.42H77.607l-6.36,17.04h4.968Zm4.8-6.46h-3.1l1.584-5.71Zm19.44,6.46h3.72v-17.04h-4.68v8.66l-6.84-8.66H89.007v17.04h4.68v-8.38Zm18.984-15.34c-0.384-.19-0.816-0.39-1.3-0.61s-1-.41-1.548-0.6a15.4,15.4,0,0,0-1.716-.45,9.159,9.159,0,0,0-1.824-.18,7.668,7.668,0,0,0-2.412.37,6.315,6.315,0,0,0-2.028,1.09,5.126,5.126,0,0,0-1.4,1.8,5.726,5.726,0,0,0-.516,2.5,4.983,4.983,0,0,0,.252,1.65,3.66,3.66,0,0,0,.78,1.29,5.254,5.254,0,0,0,1.344,1,11.648,11.648,0,0,0,1.944.83c0.512,0.18,1,.33,1.452.46s0.86,0.25,1.212.38a2.746,2.746,0,0,1,.828.45,0.757,0.757,0,0,1,.3.61,0.635,0.635,0,0,1-.3.54,2.081,2.081,0,0,1-1.068.2,6.667,6.667,0,0,1-1.98-.29,12.2,12.2,0,0,1-1.74-.64,15.633,15.633,0,0,1-1.752-.94l-2.016,4.1a11.344,11.344,0,0,0,1.668.82,15.911,15.911,0,0,0,1.872.62,14.854,14.854,0,0,0,1.956.41,12.734,12.734,0,0,0,1.92.15,10.337,10.337,0,0,0,2.34-.28,6.125,6.125,0,0,0,2.088-.9,4.631,4.631,0,0,0,1.488-1.67,5.341,5.341,0,0,0,.564-2.58,5.171,5.171,0,0,0-.36-2.04,4,4,0,0,0-1.032-1.43,6.711,6.711,0,0,0-1.62-1.02,18.9,18.9,0,0,0-2.124-.79c-0.5-.16-0.94-0.29-1.332-0.41a7.617,7.617,0,0,1-1-.34,2.127,2.127,0,0,1-.624-0.4,0.743,0.743,0,0,1-.216-0.55,0.67,0.67,0,0,1,.372-0.65,2.16,2.16,0,0,1,1-.19,5.174,5.174,0,0,1,1.572.25,14.528,14.528,0,0,1,1.452.54,12.186,12.186,0,0,1,1.488.77Zm7.152,15.34v-6.34H132.3v-3.79h-5.712v-2.83H133.6v-4.08H121.911v17.04h4.68Zm19.008-.58a8.269,8.269,0,0,0,2.592-1.9,9.02,9.02,0,0,0,1.692-2.74,8.7,8.7,0,0,0,.612-3.23,9.128,9.128,0,0,0-.576-3.19,8.8,8.8,0,0,0-1.644-2.78,8.081,8.081,0,0,0-2.568-1.97,7.331,7.331,0,0,0-3.324-.75,7.66,7.66,0,0,0-3.3.71,8.43,8.43,0,0,0-2.6,1.9,8.606,8.606,0,0,0-1.716,2.75,8.8,8.8,0,0,0-.612,3.24,9.008,9.008,0,0,0,.588,3.21,8.8,8.8,0,0,0,1.656,2.77,8.326,8.326,0,0,0,2.568,1.96,7.319,7.319,0,0,0,3.324.74A7.6,7.6,0,0,0,145.6,2194.88Zm-6.492-9.56a4.573,4.573,0,0,1,.624-1.44,3.37,3.37,0,0,1,1.056-1.02,2.854,2.854,0,0,1,1.524-.38,2.963,2.963,0,0,1,1.512.37,3.215,3.215,0,0,1,1.068.98,4.6,4.6,0,0,1,.636,1.42,6.361,6.361,0,0,1,.216,1.67,6.779,6.779,0,0,1-.2,1.65,4.724,4.724,0,0,1-.612,1.45,3.289,3.289,0,0,1-1.056,1.04,2.925,2.925,0,0,1-1.536.39,2.967,2.967,0,0,1-1.512-.38,3.427,3.427,0,0,1-1.08-1.01,4.363,4.363,0,0,1-.636-1.43A6.815,6.815,0,0,1,139.107,2185.32Zm18.083,10.14v-5.23h1.752l3.24,5.23h5.28l-3.84-6.26a5.747,5.747,0,0,0,1.8-2.1,6.087,6.087,0,0,0,.648-2.78,5.64,5.64,0,0,0-.432-2.14,6.176,6.176,0,0,0-1.188-1.9,5.936,5.936,0,0,0-1.812-1.34,5.1,5.1,0,0,0-2.3-.52H152.51v17.04h4.68Zm0-12.96h2.832a1.221,1.221,0,0,1,.864.47,1.914,1.914,0,0,1,.432,1.35,2.159,2.159,0,0,1-.372,1.35,1.036,1.036,0,0,1-.8.48H157.19v-3.65Zm29.352,12.96v-17.04h-5.088l-3.7,8.02-3.672-8.02h-5.112v17.04h4.68v-8.98l2.856,6.32h2.5l2.856-6.32v8.98h4.68Zm7.608-4.08v-2.69h6.192v-3.79H194.15v-2.4H201.4v-4.08H189.47v17.04h12.144v-4.08H194.15Zm14.327,4.08v-5.23h1.752l3.24,5.23h5.28l-3.839-6.26a5.766,5.766,0,0,0,1.8-2.1,6.1,6.1,0,0,0,.647-2.78,5.621,5.621,0,0,0-.432-2.14,6.173,6.173,0,0,0-1.187-1.9,5.953,5.953,0,0,0-1.813-1.34,5.1,5.1,0,0,0-2.3-.52H203.8v17.04h4.679Zm0-12.96h2.832a1.22,1.22,0,0,1,.864.47,1.909,1.909,0,0,1,.432,1.35,2.159,2.159,0,0,1-.372,1.35,1.036,1.036,0,0,1-.8.48h-2.952v-3.65ZM52.912,2225.87h3.72v-17.04h-4.68v8.67l-6.84-8.67H41.464v17.04h4.68v-8.37Zm17.184-.57a8.3,8.3,0,0,0,2.592-1.91,8.9,8.9,0,0,0,1.692-2.74,8.7,8.7,0,0,0,.612-3.23,9.17,9.17,0,0,0-.576-3.19,8.786,8.786,0,0,0-1.644-2.78,8.222,8.222,0,0,0-2.568-1.97,7.456,7.456,0,0,0-3.324-.74,7.657,7.657,0,0,0-3.3.7,8.5,8.5,0,0,0-4.32,4.65,8.8,8.8,0,0,0-.612,3.24,9.023,9.023,0,0,0,.588,3.21,8.841,8.841,0,0,0,1.656,2.78,8.3,8.3,0,0,0,2.568,1.95,7.326,7.326,0,0,0,3.324.75A7.6,7.6,0,0,0,70.1,2225.3Zm-6.492-9.57a4.8,4.8,0,0,1,.624-1.44,3.375,3.375,0,0,1,1.056-1.02,3.26,3.26,0,0,1,3.036-.01,3.325,3.325,0,0,1,1.068.98,4.589,4.589,0,0,1,.636,1.42,6.416,6.416,0,0,1,.216,1.67,6.745,6.745,0,0,1-.2,1.65,4.9,4.9,0,0,1-.612,1.46,3.355,3.355,0,0,1-1.056,1.03,2.923,2.923,0,0,1-1.536.39,2.871,2.871,0,0,1-1.512-.38,3.317,3.317,0,0,1-1.08-1.01,4.286,4.286,0,0,1-.636-1.43A6.815,6.815,0,0,1,63.6,2215.73Zm19.44,5.79a2.807,2.807,0,0,1-.924-0.94,4.344,4.344,0,0,1-.528-1.37,7.667,7.667,0,0,1-.168-1.62v-8.76h-4.68v8.76a11.8,11.8,0,0,0,.432,3.23,7.384,7.384,0,0,0,1.368,2.68,6.707,6.707,0,0,0,2.388,1.83,8.078,8.078,0,0,0,3.492.69,8.368,8.368,0,0,0,3.42-.65,6.594,6.594,0,0,0,2.412-1.78,7.194,7.194,0,0,0,1.416-2.67,11.772,11.772,0,0,0,.456-3.33v-8.76h-4.68v8.76a7.524,7.524,0,0,1-.168,1.61,4.487,4.487,0,0,1-.528,1.36,2.861,2.861,0,0,1-.936.94A2.92,2.92,0,0,1,83.043,2221.52Zm24.084-10.98c-0.384-.2-0.816-0.4-1.3-0.62s-1-.41-1.548-0.6a15.4,15.4,0,0,0-1.716-.45,9.159,9.159,0,0,0-1.824-.18,7.665,7.665,0,0,0-2.412.37,6.31,6.31,0,0,0-2.028,1.09,5.122,5.122,0,0,0-1.4,1.8,5.723,5.723,0,0,0-.516,2.5,4.983,4.983,0,0,0,.252,1.65,3.66,3.66,0,0,0,.78,1.29,5.513,5.513,0,0,0,1.344,1.01,12.564,12.564,0,0,0,1.944.82c0.512,0.18,1,.33,1.452.46s0.86,0.26,1.212.38a2.746,2.746,0,0,1,.828.45,0.771,0.771,0,0,1,.3.61,0.611,0.611,0,0,1-.3.54,1.981,1.981,0,0,1-1.068.2,7,7,0,0,1-1.98-.28,13.5,13.5,0,0,1-1.74-.65,14.13,14.13,0,0,1-1.752-.94l-2.016,4.11a12.408,12.408,0,0,0,1.668.81,18.037,18.037,0,0,0,1.872.63,16.619,16.619,0,0,0,1.956.4,12.732,12.732,0,0,0,1.92.15,9.8,9.8,0,0,0,2.34-.28,6.125,6.125,0,0,0,2.088-.9,4.55,4.55,0,0,0,1.488-1.67,5.341,5.341,0,0,0,.564-2.58,5.206,5.206,0,0,0-.36-2.04,3.88,3.88,0,0,0-1.032-1.42,6.15,6.15,0,0,0-1.62-1.02,17.1,17.1,0,0,0-2.124-.8c-0.5-.15-0.94-0.29-1.332-0.4a7.511,7.511,0,0,1-1-.35,1.941,1.941,0,0,1-.624-0.4,0.728,0.728,0,0,1-.216-0.55,0.679,0.679,0,0,1,.372-0.65,2.159,2.159,0,0,1,1-.19,5.174,5.174,0,0,1,1.572.25,14.528,14.528,0,0,1,1.452.54,13.774,13.774,0,0,1,1.488.77Zm20.448-1.71h-14.5v4.08H118v12.96h4.68v-12.96h4.9v-4.08Zm6.384,17.04v-5.23h1.752l3.24,5.23h5.28l-3.84-6.26a5.667,5.667,0,0,0,1.8-2.1,6.075,6.075,0,0,0,.648-2.77,5.69,5.69,0,0,0-.432-2.15,6.3,6.3,0,0,0-1.188-1.9,5.936,5.936,0,0,0-1.812-1.34,5.106,5.106,0,0,0-2.3-.52h-7.824v17.04h4.68Zm0-12.96h2.832a1.221,1.221,0,0,1,.864.47,1.941,1.941,0,0,1,.432,1.36,2.148,2.148,0,0,1-.372,1.34,1.037,1.037,0,0,1-.8.48h-2.952v-3.65Zm15.1,12.96,1.008-3.33H154.6l1.032,3.33h4.944l-6.336-17.04h-3.792l-6.36,17.04h4.968Zm4.8-6.45h-3.1l1.584-5.72Zm19.44,6.45h3.72v-17.04h-4.68v8.67l-6.84-8.67h-3.648v17.04h4.68v-8.37Zm18.984-15.33c-0.384-.2-0.816-0.4-1.3-0.62s-1-.41-1.548-0.6a15.4,15.4,0,0,0-1.716-.45,9.159,9.159,0,0,0-1.824-.18,7.668,7.668,0,0,0-2.412.37,6.315,6.315,0,0,0-2.028,1.09,5.126,5.126,0,0,0-1.4,1.8,5.726,5.726,0,0,0-.516,2.5,4.983,4.983,0,0,0,.252,1.65,3.66,3.66,0,0,0,.78,1.29,5.518,5.518,0,0,0,1.344,1.01,12.58,12.58,0,0,0,1.944.82c0.512,0.18,1,.33,1.452.46s0.86,0.26,1.212.38a2.746,2.746,0,0,1,.828.45,0.771,0.771,0,0,1,.3.61,0.611,0.611,0,0,1-.3.54,1.981,1.981,0,0,1-1.068.2,7,7,0,0,1-1.98-.28,13.507,13.507,0,0,1-1.74-.65,14.158,14.158,0,0,1-1.752-.94l-2.016,4.11a12.414,12.414,0,0,0,1.668.81,18.029,18.029,0,0,0,1.872.63,16.627,16.627,0,0,0,1.956.4,12.734,12.734,0,0,0,1.92.15,9.8,9.8,0,0,0,2.34-.28,6.125,6.125,0,0,0,2.088-.9,4.55,4.55,0,0,0,1.488-1.67,5.341,5.341,0,0,0,.564-2.58,5.206,5.206,0,0,0-.36-2.04,3.88,3.88,0,0,0-1.032-1.42,6.15,6.15,0,0,0-1.62-1.02,17.1,17.1,0,0,0-2.124-.8c-0.5-.15-0.94-0.29-1.332-0.4a7.511,7.511,0,0,1-1-.35,1.943,1.943,0,0,1-.624-0.4,0.728,0.728,0,0,1-.216-0.55,0.68,0.68,0,0,1,.372-0.65,2.16,2.16,0,0,1,1-.19,5.174,5.174,0,0,1,1.572.25,14.528,14.528,0,0,1,1.452.54,13.774,13.774,0,0,1,1.488.77Zm7.152,15.33v-6.33h5.712v-3.8H199.43v-2.83h7.008v-4.08H194.75v17.04h4.68Zm19.008-.57a8.3,8.3,0,0,0,2.592-1.91,8.9,8.9,0,0,0,1.692-2.74,8.7,8.7,0,0,0,.612-3.23,9.17,9.17,0,0,0-.576-3.19,8.78,8.78,0,0,0-1.644-2.78,8.216,8.216,0,0,0-2.568-1.97,7.454,7.454,0,0,0-3.324-.74,7.658,7.658,0,0,0-3.3.7,8.5,8.5,0,0,0-4.32,4.65,8.8,8.8,0,0,0-.612,3.24,9.03,9.03,0,0,0,.588,3.21,8.849,8.849,0,0,0,1.656,2.78,8.309,8.309,0,0,0,2.568,1.95,7.328,7.328,0,0,0,3.324.75A7.6,7.6,0,0,0,218.438,2225.3Zm-6.492-9.57a4.807,4.807,0,0,1,.624-1.44,3.38,3.38,0,0,1,1.056-1.02,3.26,3.26,0,0,1,3.036-.01,3.323,3.323,0,0,1,1.068.98,4.582,4.582,0,0,1,.636,1.42,6.416,6.416,0,0,1,.216,1.67,6.73,6.73,0,0,1-.2,1.65,4.891,4.891,0,0,1-.612,1.46,3.352,3.352,0,0,1-1.056,1.03,2.922,2.922,0,0,1-1.536.39,2.871,2.871,0,0,1-1.512-.38,3.317,3.317,0,0,1-1.08-1.01,4.292,4.292,0,0,1-.636-1.43A6.815,6.815,0,0,1,211.946,2215.73Zm18.084,10.14v-5.23h1.752l3.24,5.23h5.28l-3.84-6.26a5.667,5.667,0,0,0,1.8-2.1,6.075,6.075,0,0,0,.648-2.77,5.69,5.69,0,0,0-.432-2.15,6.3,6.3,0,0,0-1.188-1.9,5.936,5.936,0,0,0-1.812-1.34,5.106,5.106,0,0,0-2.3-.52H225.35v17.04h4.68Zm0-12.96h2.832a1.221,1.221,0,0,1,.864.47,1.941,1.941,0,0,1,.432,1.36,2.148,2.148,0,0,1-.372,1.34,1.037,1.037,0,0,1-.8.48H230.03v-3.65Zm29.351,12.96v-17.04h-5.088l-3.7,8.02-3.672-8.02h-5.112v17.04h4.68v-8.97l2.856,6.31h2.5l2.856-6.31v8.97h4.68Zm7.608-4.08v-2.69h6.192v-3.79h-6.192v-2.4h7.248v-4.08H262.309v17.04h12.144v-4.08h-7.464ZM158.3,2270.14a2.726,2.726,0,0,1-1.962-.82l-11.608-11.9H25.617a5.665,5.665,0,0,1-5.677-5.64V2096.23a5.665,5.665,0,0,1,5.677-5.64h289.39a5.665,5.665,0,0,1,5.677,5.64v123.72a2.736,2.736,0,0,1-5.472,0V2096.23a0.2,0.2,0,0,0-.2-0.19H25.617a0.2,0.2,0,0,0-.205.19v155.55a0.2,0.2,0,0,0,.205.19H145.883a2.737,2.737,0,0,1,1.962.83l7.9,8.09,0.174-6.27a2.734,2.734,0,0,1,2.734-2.65H290.731a2.725,2.725,0,1,1,0,5.45H161.311l-0.279,10.07a2.732,2.732,0,0,1-1.74,2.47A2.86,2.86,0,0,1,158.3,2270.14Zm159.65-23.6a2.732,2.732,0,0,1-2.736-2.73v-14.64a2.736,2.736,0,0,1,5.472,0v14.64A2.732,2.732,0,0,1,317.948,2246.54Z" transform="translate(-19.938 -2090.59)"/>
</svg>
