<svg xmlns="http://www.w3.org/2000/svg" width="621" height="229" viewBox="0 0 621 229">
  <path style="fill: #fc4c02; fill-rule: evenodd;" id="Nous_progressons_ensemble_car_vous_transformer_nous_transforme_copie" data-name="Nous progressons ensemble, car vous transformer nous transforme copie" class="cls-1" d="M330.292,2470.16h5.27v-24.14h-6.63v12.27l-9.69-12.27h-5.168v24.14h6.63v-11.87Zm24.343-.82a11.725,11.725,0,0,0,3.672-2.7,12.554,12.554,0,0,0,2.4-3.87,12.382,12.382,0,0,0,.867-4.58,12.94,12.94,0,0,0-.816-4.52,12.5,12.5,0,0,0-2.329-3.94,11.527,11.527,0,0,0-3.638-2.79,10.486,10.486,0,0,0-4.709-1.06,10.8,10.8,0,0,0-4.675,1.01,11.99,11.99,0,0,0-3.689,2.68,12.268,12.268,0,0,0-2.431,3.9,12.433,12.433,0,0,0-.867,4.59,12.793,12.793,0,0,0,.833,4.55,12.634,12.634,0,0,0,2.346,3.93,11.792,11.792,0,0,0,3.638,2.77,10.486,10.486,0,0,0,4.709,1.05A10.772,10.772,0,0,0,354.635,2469.34Zm-9.2-13.54a6.638,6.638,0,0,1,.884-2.04,4.57,4.57,0,0,1,1.5-1.45,4.126,4.126,0,0,1,2.159-.54,4.238,4.238,0,0,1,2.142.52,4.548,4.548,0,0,1,1.513,1.4,6.46,6.46,0,0,1,.9,2,9.1,9.1,0,0,1,.306,2.37,9.588,9.588,0,0,1-.289,2.34,6.844,6.844,0,0,1-.867,2.06,4.568,4.568,0,0,1-1.5,1.46,4.037,4.037,0,0,1-2.176.56,4.147,4.147,0,0,1-2.142-.54,4.814,4.814,0,0,1-1.53-1.43,6.186,6.186,0,0,1-.9-2.02,9.64,9.64,0,0,1-.289-2.37A9.357,9.357,0,0,1,345.438,2455.8Zm27.54,8.19a3.939,3.939,0,0,1-1.309-1.33,6.12,6.12,0,0,1-.748-1.93,10.943,10.943,0,0,1-.238-2.3v-12.41h-6.63v12.41a16.672,16.672,0,0,0,.612,4.57,10.384,10.384,0,0,0,1.938,3.79,9.531,9.531,0,0,0,3.383,2.61,11.622,11.622,0,0,0,4.947.96,11.847,11.847,0,0,0,4.845-.91,9.541,9.541,0,0,0,3.417-2.52,10.286,10.286,0,0,0,2.006-3.79,16.6,16.6,0,0,0,.646-4.71v-12.41h-6.63v12.41a10.75,10.75,0,0,1-.238,2.28,6.279,6.279,0,0,1-.748,1.92,4.1,4.1,0,0,1-1.326,1.34A4.106,4.106,0,0,1,372.978,2463.99Zm34.119-15.56c-0.544-.27-1.156-0.56-1.836-0.86a22.09,22.09,0,0,0-2.193-.85,20.831,20.831,0,0,0-2.431-.65,12.977,12.977,0,0,0-2.584-.25,10.976,10.976,0,0,0-3.417.52,8.869,8.869,0,0,0-2.873,1.55,7.254,7.254,0,0,0-1.989,2.55,8.113,8.113,0,0,0-.731,3.54,7.068,7.068,0,0,0,.357,2.34,5.078,5.078,0,0,0,1.105,1.82,7.533,7.533,0,0,0,1.9,1.43,17.421,17.421,0,0,0,2.754,1.17c0.725,0.25,1.411.47,2.057,0.65s1.218,0.36,1.717.54a3.833,3.833,0,0,1,1.173.63,1.1,1.1,0,0,1,.425.87,0.872,0.872,0,0,1-.425.76,2.782,2.782,0,0,1-1.513.29,9.553,9.553,0,0,1-2.805-.41,17.358,17.358,0,0,1-2.465-.91,20.427,20.427,0,0,1-2.482-1.33l-2.856,5.81a17.018,17.018,0,0,0,2.363,1.16,24.378,24.378,0,0,0,2.652.88,22.3,22.3,0,0,0,2.771.58,18.247,18.247,0,0,0,2.72.21,14.366,14.366,0,0,0,3.315-.39,9.1,9.1,0,0,0,2.958-1.28,6.606,6.606,0,0,0,2.108-2.36,7.654,7.654,0,0,0,.8-3.66,7.36,7.36,0,0,0-.51-2.89,5.541,5.541,0,0,0-1.462-2.02,9.282,9.282,0,0,0-2.295-1.45,26.232,26.232,0,0,0-3.009-1.12c-0.7-.22-1.332-0.42-1.887-0.58a9.871,9.871,0,0,1-1.411-.49,2.968,2.968,0,0,1-.884-0.56,1.044,1.044,0,0,1-.306-0.78,0.952,0.952,0,0,1,.527-0.92,3.111,3.111,0,0,1,1.411-.27,7.372,7.372,0,0,1,2.227.36,18.1,18.1,0,0,1,2.057.76,18.677,18.677,0,0,1,2.108,1.09Zm17.781,21.73v-7.41h3.944a7.444,7.444,0,0,0,3.247-.7,7.649,7.649,0,0,0,2.516-1.87,8.821,8.821,0,0,0,2.193-5.8,8.048,8.048,0,0,0-.612-3.04,8.822,8.822,0,0,0-1.683-2.68,8.407,8.407,0,0,0-2.567-1.91,7.3,7.3,0,0,0-3.264-.73h-10.4v24.14h6.63Zm0-18.36h3.332a1.862,1.862,0,0,1,1.224.54,2.7,2.7,0,0,1,.612,2.04,2.994,2.994,0,0,1-.527,2.03,1.564,1.564,0,0,1-1.139.56h-3.5v-5.17Zm21.08,18.36v-7.41h2.482l4.59,7.41h7.48l-5.44-8.87a8.038,8.038,0,0,0,2.55-2.98,8.583,8.583,0,0,0,.918-3.93,8.048,8.048,0,0,0-.612-3.04,8.822,8.822,0,0,0-1.683-2.68,8.407,8.407,0,0,0-2.567-1.91,7.3,7.3,0,0,0-3.264-.73H439.328v24.14h6.63Zm0-18.36h4.012a1.718,1.718,0,0,1,1.224.66,2.76,2.76,0,0,1,.612,1.92,3.07,3.07,0,0,1-.527,1.91,1.477,1.477,0,0,1-1.139.68h-4.182v-5.17Zm31.212,17.54a11.725,11.725,0,0,0,3.672-2.7,12.554,12.554,0,0,0,2.4-3.87,12.382,12.382,0,0,0,.867-4.58,12.94,12.94,0,0,0-.816-4.52,12.524,12.524,0,0,0-2.329-3.94,11.55,11.55,0,0,0-3.638-2.79,10.492,10.492,0,0,0-4.709-1.06,10.8,10.8,0,0,0-4.675,1.01,11.967,11.967,0,0,0-3.689,2.68,12.251,12.251,0,0,0-2.431,3.9,12.433,12.433,0,0,0-.867,4.59,12.771,12.771,0,0,0,.833,4.55,12.6,12.6,0,0,0,2.346,3.93,11.768,11.768,0,0,0,3.638,2.77,10.48,10.48,0,0,0,4.709,1.05A10.772,10.772,0,0,0,477.17,2469.34Zm-9.2-13.54a6.59,6.59,0,0,1,.884-2.04,4.551,4.551,0,0,1,1.5-1.45,4.121,4.121,0,0,1,2.159-.54,4.238,4.238,0,0,1,2.142.52,4.558,4.558,0,0,1,1.513,1.4,6.483,6.483,0,0,1,.9,2,9.1,9.1,0,0,1,.306,2.37,9.637,9.637,0,0,1-.289,2.34,6.9,6.9,0,0,1-.867,2.06,4.578,4.578,0,0,1-1.5,1.46,4.039,4.039,0,0,1-2.176.56,4.147,4.147,0,0,1-2.142-.54,4.814,4.814,0,0,1-1.53-1.43,6.166,6.166,0,0,1-.9-2.02,9.592,9.592,0,0,1-.289-2.37A9.31,9.31,0,0,1,467.973,2455.8Zm34.017,14.36h5.474v-12.85h-9.928v4.76h4.25a7.522,7.522,0,0,1-2.125,1.77,5.021,5.021,0,0,1-2.363.61,4.265,4.265,0,0,1-1.989-.46,4.657,4.657,0,0,1-1.547-1.29,6.246,6.246,0,0,1-1-1.99,9.465,9.465,0,0,1,0-5.15,6.685,6.685,0,0,1,.986-2.03,4.705,4.705,0,0,1,1.5-1.32,3.832,3.832,0,0,1,1.887-.48,4.514,4.514,0,0,1,2.635.87,5.284,5.284,0,0,1,1.853,2.29l4.93-3.77a8.627,8.627,0,0,0-1.547-2.19,9.945,9.945,0,0,0-2.125-1.67,10.23,10.23,0,0,0-2.584-1.05,11.654,11.654,0,0,0-2.924-.36,11.24,11.24,0,0,0-4.59.94,11.629,11.629,0,0,0-6.2,6.35,12.417,12.417,0,0,0-.9,4.75,13.2,13.2,0,0,0,3.281,8.73,11.569,11.569,0,0,0,3.519,2.71,9.357,9.357,0,0,0,4.25,1,7.453,7.453,0,0,0,5.27-2.14v1.97Zm15.367,0v-7.41h2.482l4.59,7.41h7.48l-5.44-8.87a8.038,8.038,0,0,0,2.55-2.98,8.583,8.583,0,0,0,.918-3.93,8.048,8.048,0,0,0-.612-3.04,8.822,8.822,0,0,0-1.683-2.68,8.407,8.407,0,0,0-2.567-1.91,7.3,7.3,0,0,0-3.264-.73H510.727v24.14h6.63Zm0-18.36h4.012a1.718,1.718,0,0,1,1.224.66,2.76,2.76,0,0,1,.612,1.92,3.07,3.07,0,0,1-.527,1.91,1.476,1.476,0,0,1-1.139.68h-4.182v-5.17Zm23.324,12.58v-3.81h8.772v-5.37h-8.772v-3.4h10.268v-5.78h-16.9v24.14h17.2v-5.78H540.681Zm30.94-15.95c-0.544-.27-1.156-0.56-1.836-0.86a22.09,22.09,0,0,0-2.193-.85,20.831,20.831,0,0,0-2.431-.65,12.977,12.977,0,0,0-2.584-.25,10.976,10.976,0,0,0-3.417.52,8.869,8.869,0,0,0-2.873,1.55,7.254,7.254,0,0,0-1.989,2.55,8.113,8.113,0,0,0-.731,3.54,7.068,7.068,0,0,0,.357,2.34,5.078,5.078,0,0,0,1.105,1.82,7.533,7.533,0,0,0,1.9,1.43,17.421,17.421,0,0,0,2.754,1.17c0.725,0.25,1.411.47,2.057,0.65s1.218,0.36,1.717.54a3.833,3.833,0,0,1,1.173.63,1.1,1.1,0,0,1,.425.87,0.872,0.872,0,0,1-.425.76,2.782,2.782,0,0,1-1.513.29,9.553,9.553,0,0,1-2.8-.41,17.358,17.358,0,0,1-2.465-.91,20.427,20.427,0,0,1-2.482-1.33l-2.856,5.81a17.018,17.018,0,0,0,2.363,1.16,24.378,24.378,0,0,0,2.652.88,22.3,22.3,0,0,0,2.771.58,18.247,18.247,0,0,0,2.72.21,14.366,14.366,0,0,0,3.315-.39,9.1,9.1,0,0,0,2.958-1.28,6.606,6.606,0,0,0,2.108-2.36,7.654,7.654,0,0,0,.8-3.66,7.36,7.36,0,0,0-.51-2.89,5.541,5.541,0,0,0-1.462-2.02,9.282,9.282,0,0,0-2.295-1.45,26.232,26.232,0,0,0-3.009-1.12c-0.7-.22-1.332-0.42-1.887-0.58a9.871,9.871,0,0,1-1.411-.49,2.968,2.968,0,0,1-.884-0.56,1.044,1.044,0,0,1-.306-0.78,0.952,0.952,0,0,1,.527-0.92,3.111,3.111,0,0,1,1.411-.27,7.372,7.372,0,0,1,2.227.36,18.1,18.1,0,0,1,2.057.76,18.677,18.677,0,0,1,2.108,1.09Zm20.977,0c-0.544-.27-1.156-0.56-1.836-0.86a22.09,22.09,0,0,0-2.193-.85,20.778,20.778,0,0,0-2.431-.65,12.977,12.977,0,0,0-2.584-.25,10.986,10.986,0,0,0-3.417.52,8.879,8.879,0,0,0-2.873,1.55,7.254,7.254,0,0,0-1.989,2.55,8.127,8.127,0,0,0-.731,3.54,7.068,7.068,0,0,0,.357,2.34,5.078,5.078,0,0,0,1.105,1.82,7.533,7.533,0,0,0,1.9,1.43,17.5,17.5,0,0,0,2.754,1.17c0.725,0.25,1.411.47,2.057,0.65s1.218,0.36,1.717.54a3.821,3.821,0,0,1,1.173.63,1.1,1.1,0,0,1,.425.87,0.872,0.872,0,0,1-.425.76,2.78,2.78,0,0,1-1.513.29,9.553,9.553,0,0,1-2.8-.41,17.358,17.358,0,0,1-2.465-.91,20.427,20.427,0,0,1-2.482-1.33l-2.856,5.81a17.018,17.018,0,0,0,2.363,1.16,24.378,24.378,0,0,0,2.652.88,22.3,22.3,0,0,0,2.771.58,18.247,18.247,0,0,0,2.72.21,14.359,14.359,0,0,0,3.315-.39,9.1,9.1,0,0,0,2.958-1.28,6.6,6.6,0,0,0,2.108-2.36,7.642,7.642,0,0,0,.8-3.66,7.36,7.36,0,0,0-.51-2.89,5.53,5.53,0,0,0-1.462-2.02,9.282,9.282,0,0,0-2.295-1.45,26.232,26.232,0,0,0-3.009-1.12c-0.7-.22-1.332-0.42-1.887-0.58a9.871,9.871,0,0,1-1.411-.49,2.968,2.968,0,0,1-.884-0.56,1.044,1.044,0,0,1-.306-0.78,0.952,0.952,0,0,1,.527-0.92,3.111,3.111,0,0,1,1.411-.27,7.367,7.367,0,0,1,2.227.36,18.1,18.1,0,0,1,2.057.76,18.677,18.677,0,0,1,2.108,1.09Zm18.428,20.91a11.725,11.725,0,0,0,3.672-2.7,12.554,12.554,0,0,0,2.4-3.87,12.382,12.382,0,0,0,.867-4.58,12.94,12.94,0,0,0-.816-4.52,12.524,12.524,0,0,0-2.329-3.94,11.55,11.55,0,0,0-3.638-2.79,10.492,10.492,0,0,0-4.709-1.06,10.8,10.8,0,0,0-4.675,1.01,11.967,11.967,0,0,0-3.689,2.68,12.251,12.251,0,0,0-2.431,3.9,12.433,12.433,0,0,0-.867,4.59,12.771,12.771,0,0,0,.833,4.55,12.6,12.6,0,0,0,2.346,3.93,11.768,11.768,0,0,0,3.638,2.77,10.48,10.48,0,0,0,4.709,1.05A10.772,10.772,0,0,0,611.026,2469.34Zm-9.2-13.54a6.59,6.59,0,0,1,.884-2.04,4.551,4.551,0,0,1,1.5-1.45,4.121,4.121,0,0,1,2.159-.54,4.238,4.238,0,0,1,2.142.52,4.558,4.558,0,0,1,1.513,1.4,6.483,6.483,0,0,1,.9,2,9.1,9.1,0,0,1,.306,2.37,9.637,9.637,0,0,1-.289,2.34,6.9,6.9,0,0,1-.867,2.06,4.578,4.578,0,0,1-1.5,1.46,4.039,4.039,0,0,1-2.176.56,4.147,4.147,0,0,1-2.142-.54,4.814,4.814,0,0,1-1.53-1.43,6.166,6.166,0,0,1-.9-2.02,9.592,9.592,0,0,1-.289-2.37A9.31,9.31,0,0,1,601.829,2455.8Zm35.206,14.36h5.27v-24.14h-6.63v12.27l-9.69-12.27h-5.168v24.14h6.63v-11.87Zm26.894-21.73c-0.544-.27-1.156-0.56-1.836-0.86a22.09,22.09,0,0,0-2.193-.85,20.778,20.778,0,0,0-2.431-.65,12.969,12.969,0,0,0-2.584-.25,10.986,10.986,0,0,0-3.417.52,8.89,8.89,0,0,0-2.873,1.55,7.277,7.277,0,0,0-1.989,2.55,8.127,8.127,0,0,0-.731,3.54,7.068,7.068,0,0,0,.357,2.34,5.092,5.092,0,0,0,1.105,1.82,7.569,7.569,0,0,0,1.9,1.43,17.5,17.5,0,0,0,2.754,1.17c0.726,0.25,1.411.47,2.057,0.65s1.219,0.36,1.717.54a3.809,3.809,0,0,1,1.173.63,1.1,1.1,0,0,1,.425.87,0.87,0.87,0,0,1-.425.76,2.778,2.778,0,0,1-1.513.29,9.553,9.553,0,0,1-2.8-.41,17.4,17.4,0,0,1-2.465-.91,20.576,20.576,0,0,1-2.482-1.33l-2.856,5.81a17.073,17.073,0,0,0,2.363,1.16,24.378,24.378,0,0,0,2.652.88,22.34,22.34,0,0,0,2.771.58,18.257,18.257,0,0,0,2.72.21,14.353,14.353,0,0,0,3.315-.39,9.081,9.081,0,0,0,2.958-1.28,6.587,6.587,0,0,0,2.108-2.36,7.642,7.642,0,0,0,.8-3.66,7.36,7.36,0,0,0-.51-2.89,5.53,5.53,0,0,0-1.462-2.02,9.245,9.245,0,0,0-2.295-1.45,26.093,26.093,0,0,0-3.009-1.12c-0.7-.22-1.331-0.42-1.887-0.58a9.959,9.959,0,0,1-1.411-.49,2.982,2.982,0,0,1-.884-0.56,1.044,1.044,0,0,1-.306-0.78,0.954,0.954,0,0,1,.527-0.92,3.117,3.117,0,0,1,1.411-.27,7.362,7.362,0,0,1,2.227.36,18.032,18.032,0,0,1,2.057.76,18.592,18.592,0,0,1,2.108,1.09Zm17.782,15.95v-3.81h8.772v-5.37h-8.772v-3.4h10.268v-5.78h-16.9v24.14h17.2v-5.78H681.711Zm29.885,5.78h5.27v-24.14h-6.63v12.27l-9.69-12.27h-5.168v24.14h6.63v-11.87Zm26.894-21.73c-0.544-.27-1.156-0.56-1.836-0.86a22.09,22.09,0,0,0-2.193-.85,20.831,20.831,0,0,0-2.431-.65,12.977,12.977,0,0,0-2.584-.25,10.976,10.976,0,0,0-3.417.52,8.869,8.869,0,0,0-2.873,1.55,7.254,7.254,0,0,0-1.989,2.55,8.113,8.113,0,0,0-.731,3.54,7.068,7.068,0,0,0,.357,2.34,5.078,5.078,0,0,0,1.105,1.82,7.533,7.533,0,0,0,1.9,1.43,17.421,17.421,0,0,0,2.754,1.17c0.725,0.25,1.411.47,2.057,0.65s1.218,0.36,1.717.54a3.833,3.833,0,0,1,1.173.63,1.1,1.1,0,0,1,.425.87,0.872,0.872,0,0,1-.425.76,2.782,2.782,0,0,1-1.513.29,9.553,9.553,0,0,1-2.805-.41,17.358,17.358,0,0,1-2.465-.91,20.427,20.427,0,0,1-2.482-1.33l-2.856,5.81a17.018,17.018,0,0,0,2.363,1.16,24.378,24.378,0,0,0,2.652.88,22.3,22.3,0,0,0,2.771.58,18.247,18.247,0,0,0,2.72.21,14.366,14.366,0,0,0,3.315-.39,9.1,9.1,0,0,0,2.958-1.28,6.606,6.606,0,0,0,2.108-2.36,7.654,7.654,0,0,0,.8-3.66,7.36,7.36,0,0,0-.51-2.89,5.541,5.541,0,0,0-1.462-2.02,9.282,9.282,0,0,0-2.295-1.45,26.232,26.232,0,0,0-3.009-1.12c-0.7-.22-1.332-0.42-1.887-0.58a9.871,9.871,0,0,1-1.411-.49,2.968,2.968,0,0,1-.884-0.56,1.044,1.044,0,0,1-.306-0.78,0.952,0.952,0,0,1,.527-0.92,3.111,3.111,0,0,1,1.411-.27,7.372,7.372,0,0,1,2.227.36,18.1,18.1,0,0,1,2.057.76,18.677,18.677,0,0,1,2.108,1.09Zm10.132,15.95v-3.81h8.772v-5.37h-8.772v-3.4H758.89v-5.78h-16.9v24.14h17.2v-5.78H748.622Zm38.555,5.78v-24.14h-7.208l-5.236,11.36-5.2-11.36h-7.242v24.14h6.63v-12.72l4.046,8.95H776.5l4.046-8.95v12.72h6.63Zm23.477-10.25a6.388,6.388,0,0,0-3.281-2.13,5.432,5.432,0,0,0,2.6-2.32,6.592,6.592,0,0,0,.867-3.25,6.716,6.716,0,0,0-.391-2.26,6.332,6.332,0,0,0-1.105-1.97,5.794,5.794,0,0,0-1.734-1.42,4.794,4.794,0,0,0-2.278-.54H791.325v24.14h11.866a15.055,15.055,0,0,0,3.349-.36,8.6,8.6,0,0,0,2.771-1.1,5.272,5.272,0,0,0,2.55-4.73A6.33,6.33,0,0,0,810.654,2459.91Zm-6.086,4.16a1.972,1.972,0,0,1-1.377.51h-5.236v-4.04h5.474a1.513,1.513,0,0,1,1.224.59,2.3,2.3,0,0,1,.476,1.48A1.863,1.863,0,0,1,804.568,2464.07Zm-1.887-12.41a1.653,1.653,0,0,1,1.122.43,1.8,1.8,0,0,1,.476,1.41,1.69,1.69,0,0,1-.561,1.5,2.181,2.181,0,0,1-1.241.37h-4.522v-3.71h4.726Zm29.648,18.5v-5.78H821.381v-18.36h-6.63v24.14h17.578Zm9.044-5.78v-3.81h8.772v-5.37h-8.772v-3.4h10.268v-5.78h-16.9v24.14h17.2v-5.78H841.373Zm12.035,10.98a13.768,13.768,0,0,0,2.21-.2,7.579,7.579,0,0,0,2.176-.72,4.764,4.764,0,0,0,1.649-1.39,3.7,3.7,0,0,0,.663-2.28v-6.87H854.87v5.58a1.393,1.393,0,0,1-.221.73,1.6,1.6,0,0,1-.425.41,1.365,1.365,0,0,1-.476.19,3.125,3.125,0,0,1-.34.03v4.52ZM313.6,2504.85a13.423,13.423,0,0,0,2.363,4.02,11.732,11.732,0,0,0,3.621,2.84,10.107,10.107,0,0,0,4.624,1.07,12.508,12.508,0,0,0,5.746-1.47,9.729,9.729,0,0,0,2.363-1.76,7.013,7.013,0,0,0,1.547-2.38l-5.406-3.23a4.241,4.241,0,0,1-1.751,2.29,3.868,3.868,0,0,1-1.173.51,4.993,4.993,0,0,1-1.19.15,4,4,0,0,1-2.057-.52,4.869,4.869,0,0,1-1.53-1.41,6.5,6.5,0,0,1-.952-2.04,8.936,8.936,0,0,1-.323-2.42,9.655,9.655,0,0,1,.272-2.26,6.312,6.312,0,0,1,.867-2.04,4.79,4.79,0,0,1,1.5-1.46,4.036,4.036,0,0,1,2.159-.56,5.828,5.828,0,0,1,1.19.13,4.077,4.077,0,0,1,2.3,1.4,4.431,4.431,0,0,1,.8,1.46l5.066-3.6a9.014,9.014,0,0,0-3.57-3.83,10.81,10.81,0,0,0-5.644-1.44,11.092,11.092,0,0,0-4.913,1.05,11.742,11.742,0,0,0-3.672,2.75,11.9,11.9,0,0,0-2.3,3.85,12.557,12.557,0,0,0-.782,4.35A12.711,12.711,0,0,0,313.6,2504.85Zm27.064,7.72,1.428-4.72h6.426l1.462,4.72h7l-8.976-24.14h-5.372l-9.01,24.14h7.038Zm6.8-9.14h-4.386l2.244-8.1Zm17.952,9.14v-7.41H367.9l4.59,7.41h7.48l-5.44-8.87a7.96,7.96,0,0,0,2.55-2.98,8.572,8.572,0,0,0,.918-3.92,8.1,8.1,0,0,0-.612-3.05,8.945,8.945,0,0,0-1.683-2.68,8.571,8.571,0,0,0-2.567-1.91,7.438,7.438,0,0,0-3.264-.73H358.784v24.14h6.63Zm0-18.36h4.012a1.7,1.7,0,0,1,1.224.67,2.726,2.726,0,0,1,.612,1.92,3.038,3.038,0,0,1-.527,1.9,1.477,1.477,0,0,1-1.139.68h-4.182v-5.17Zm20.807-5.78,8.976,24.14h5.508l8.874-24.14h-6.97l-4.658,15.81-4.726-15.81h-7Zm39.168,23.33a11.6,11.6,0,0,0,3.672-2.71,12.554,12.554,0,0,0,2.4-3.87,12.343,12.343,0,0,0,.867-4.58,12.981,12.981,0,0,0-.816-4.52,12.5,12.5,0,0,0-2.329-3.94,11.538,11.538,0,0,0-3.638-2.79,10.483,10.483,0,0,0-4.709-1.05,10.794,10.794,0,0,0-4.675,1,11.847,11.847,0,0,0-3.689,2.69,12.2,12.2,0,0,0-2.431,3.89,12.433,12.433,0,0,0-.867,4.59,12.793,12.793,0,0,0,.833,4.55,12.483,12.483,0,0,0,2.346,3.93,11.628,11.628,0,0,0,3.638,2.77,10.358,10.358,0,0,0,4.709,1.06A10.772,10.772,0,0,0,425.389,2511.76Zm-9.2-13.55a6.614,6.614,0,0,1,.884-2.04,4.768,4.768,0,0,1,1.5-1.45,4.59,4.59,0,0,1,4.3-.01,4.528,4.528,0,0,1,1.513,1.39,6.517,6.517,0,0,1,.9,2.01,9.027,9.027,0,0,1,.306,2.36,9.588,9.588,0,0,1-.289,2.34,6.787,6.787,0,0,1-.867,2.06,4.568,4.568,0,0,1-1.5,1.46,4.037,4.037,0,0,1-2.176.56,4.147,4.147,0,0,1-2.142-.54,4.814,4.814,0,0,1-1.53-1.43,6.186,6.186,0,0,1-.9-2.02,9.57,9.57,0,0,1-.289-2.36A9.39,9.39,0,0,1,416.192,2498.21Zm27.54,8.19a4,4,0,0,1-1.309-1.32,6.275,6.275,0,0,1-.748-1.94,10.874,10.874,0,0,1-.238-2.3v-12.41h-6.63v12.41a16.745,16.745,0,0,0,.612,4.58,10.464,10.464,0,0,0,1.938,3.79,9.622,9.622,0,0,0,3.383,2.6,11.618,11.618,0,0,0,4.947.97,11.844,11.844,0,0,0,4.845-.92,9.425,9.425,0,0,0,3.417-2.52,10.207,10.207,0,0,0,2.006-3.79,16.6,16.6,0,0,0,.646-4.71v-12.41h-6.63v12.41a10.614,10.614,0,0,1-.238,2.28,6.084,6.084,0,0,1-.748,1.92,4.008,4.008,0,0,1-1.326,1.34A4.106,4.106,0,0,1,443.732,2506.4Zm34.119-15.55c-0.544-.28-1.156-0.56-1.836-0.87a22.09,22.09,0,0,0-2.193-.85,20.831,20.831,0,0,0-2.431-.65,12.977,12.977,0,0,0-2.584-.25,10.7,10.7,0,0,0-3.417.53,8.847,8.847,0,0,0-2.873,1.54,7.254,7.254,0,0,0-1.989,2.55,8.113,8.113,0,0,0-.731,3.54,7.068,7.068,0,0,0,.357,2.34,5.078,5.078,0,0,0,1.105,1.82,7.306,7.306,0,0,0,1.9,1.43,17.421,17.421,0,0,0,2.754,1.17c0.725,0.25,1.411.47,2.057,0.65s1.218,0.36,1.717.54a4.316,4.316,0,0,1,1.173.63,1.1,1.1,0,0,1,.425.87,0.9,0.9,0,0,1-.425.77,2.9,2.9,0,0,1-1.513.28,9.886,9.886,0,0,1-2.805-.4,18.639,18.639,0,0,1-2.465-.92,20.427,20.427,0,0,1-2.482-1.33l-2.856,5.82a16.992,16.992,0,0,0,2.363,1.15,24.4,24.4,0,0,0,2.652.89,22.262,22.262,0,0,0,2.771.57,18.247,18.247,0,0,0,2.72.21,14.366,14.366,0,0,0,3.315-.39,8.891,8.891,0,0,0,2.958-1.28,6.523,6.523,0,0,0,2.108-2.36,7.626,7.626,0,0,0,.8-3.66,7.36,7.36,0,0,0-.51-2.89,5.626,5.626,0,0,0-1.462-2.02,9.261,9.261,0,0,0-2.3-1.44,24.449,24.449,0,0,0-3.009-1.13q-1.055-.33-1.887-0.57a11.168,11.168,0,0,1-1.411-.5,2.782,2.782,0,0,1-.884-0.56,1.044,1.044,0,0,1-.306-0.78,0.952,0.952,0,0,1,.527-0.92,3.111,3.111,0,0,1,1.411-.27,7.372,7.372,0,0,1,2.227.36,20.245,20.245,0,0,1,2.057.76,18.677,18.677,0,0,1,2.108,1.09Zm28.967-2.42H486.282v5.78h6.97v18.36h6.63v-18.36h6.936v-5.78Zm9.044,24.14v-7.41h2.482l4.59,7.41h7.48l-5.44-8.87a7.96,7.96,0,0,0,2.55-2.98,8.572,8.572,0,0,0,.918-3.92,8.1,8.1,0,0,0-.612-3.05,8.945,8.945,0,0,0-1.683-2.68,8.571,8.571,0,0,0-2.567-1.91,7.438,7.438,0,0,0-3.264-.73H509.232v24.14h6.63Zm0-18.36h4.012a1.7,1.7,0,0,1,1.224.67,2.726,2.726,0,0,1,.612,1.92,3.038,3.038,0,0,1-.527,1.9,1.477,1.477,0,0,1-1.139.68h-4.182v-5.17Zm21.386,18.36,1.428-4.72H545.1l1.462,4.72h7l-8.976-24.14H539.22l-9.01,24.14h7.038Zm6.8-9.14h-4.386l2.244-8.1Zm27.539,9.14h5.27v-24.14h-6.63v12.28l-9.69-12.28h-5.168v24.14H562v-11.86Zm26.894-21.72c-0.544-.28-1.156-0.56-1.836-0.87a22.09,22.09,0,0,0-2.193-.85,20.778,20.778,0,0,0-2.431-.65,12.969,12.969,0,0,0-2.584-.25,10.7,10.7,0,0,0-3.417.53,8.867,8.867,0,0,0-2.873,1.54,7.277,7.277,0,0,0-1.989,2.55,8.127,8.127,0,0,0-.731,3.54,7.068,7.068,0,0,0,.357,2.34,5.092,5.092,0,0,0,1.105,1.82,7.34,7.34,0,0,0,1.9,1.43,17.5,17.5,0,0,0,2.754,1.17c0.726,0.25,1.411.47,2.057,0.65s1.219,0.36,1.717.54a4.286,4.286,0,0,1,1.173.63,1.1,1.1,0,0,1,.425.87,0.9,0.9,0,0,1-.425.77,2.892,2.892,0,0,1-1.513.28,9.886,9.886,0,0,1-2.8-.4,18.692,18.692,0,0,1-2.465-.92,20.576,20.576,0,0,1-2.482-1.33l-2.856,5.82a17.047,17.047,0,0,0,2.363,1.15,24.4,24.4,0,0,0,2.652.89,22.3,22.3,0,0,0,2.771.57,18.257,18.257,0,0,0,2.72.21,14.353,14.353,0,0,0,3.315-.39,8.873,8.873,0,0,0,2.958-1.28,6.5,6.5,0,0,0,2.108-2.36,7.615,7.615,0,0,0,.8-3.66,7.36,7.36,0,0,0-.51-2.89,5.614,5.614,0,0,0-1.462-2.02,9.224,9.224,0,0,0-2.295-1.44,24.327,24.327,0,0,0-3.009-1.13q-1.053-.33-1.887-0.57a11.283,11.283,0,0,1-1.411-.5,2.794,2.794,0,0,1-.884-0.56,1.044,1.044,0,0,1-.306-0.78,0.954,0.954,0,0,1,.527-0.92,3.117,3.117,0,0,1,1.411-.27,7.362,7.362,0,0,1,2.227.36,20.156,20.156,0,0,1,2.057.76,18.592,18.592,0,0,1,2.108,1.09Zm10.132,21.72v-8.97h8.092v-5.38h-8.092v-4.01h9.928v-5.78H601.983v24.14h6.63Zm26.928-.81a11.6,11.6,0,0,0,3.672-2.71,12.554,12.554,0,0,0,2.4-3.87,12.343,12.343,0,0,0,.867-4.58,12.981,12.981,0,0,0-.816-4.52,12.524,12.524,0,0,0-2.329-3.94,11.55,11.55,0,0,0-3.638-2.79,10.486,10.486,0,0,0-4.709-1.05,10.791,10.791,0,0,0-4.675,1,11.835,11.835,0,0,0-3.689,2.69,12.2,12.2,0,0,0-2.431,3.89,12.433,12.433,0,0,0-.867,4.59,12.771,12.771,0,0,0,.833,4.55,12.483,12.483,0,0,0,2.346,3.93,11.617,11.617,0,0,0,3.638,2.77,10.355,10.355,0,0,0,4.709,1.06A10.772,10.772,0,0,0,635.541,2511.76Zm-9.2-13.55a6.59,6.59,0,0,1,.884-2.04,4.758,4.758,0,0,1,1.5-1.45,4.59,4.59,0,0,1,4.3-.01,4.528,4.528,0,0,1,1.513,1.39,6.541,6.541,0,0,1,.9,2.01,9.027,9.027,0,0,1,.306,2.36,9.637,9.637,0,0,1-.289,2.34,6.787,6.787,0,0,1-.867,2.06,4.578,4.578,0,0,1-1.5,1.46,4.039,4.039,0,0,1-2.176.56,4.147,4.147,0,0,1-2.142-.54,4.814,4.814,0,0,1-1.53-1.43,6.166,6.166,0,0,1-.9-2.02,9.57,9.57,0,0,1-.289-2.36A9.39,9.39,0,0,1,626.344,2498.21Zm25.619,14.36v-7.41h2.482l4.59,7.41h7.48l-5.44-8.87a7.96,7.96,0,0,0,2.55-2.98,8.572,8.572,0,0,0,.918-3.92,8.1,8.1,0,0,0-.612-3.05,8.945,8.945,0,0,0-1.683-2.68,8.571,8.571,0,0,0-2.567-1.91,7.438,7.438,0,0,0-3.264-.73H645.333v24.14h6.63Zm0-18.36h4.012a1.7,1.7,0,0,1,1.224.67,2.726,2.726,0,0,1,.612,1.92,3.038,3.038,0,0,1-.527,1.9,1.477,1.477,0,0,1-1.139.68h-4.182v-5.17Zm41.581,18.36v-24.14h-7.208l-5.236,11.36-5.2-11.36h-7.242v24.14h6.63v-12.71l4.046,8.94h3.536l4.046-8.94v12.71h6.63Zm10.778-5.78v-3.81h8.772v-5.37h-8.772v-3.4H714.59v-5.78h-16.9v24.14h17.2v-5.78H704.322Zm20.3,5.78v-7.41H727.1l4.59,7.41h7.48l-5.44-8.87a7.96,7.96,0,0,0,2.55-2.98,8.572,8.572,0,0,0,.918-3.92,8.1,8.1,0,0,0-.612-3.05,8.945,8.945,0,0,0-1.683-2.68,8.571,8.571,0,0,0-2.567-1.91,7.438,7.438,0,0,0-3.264-.73H717.99v24.14h6.63Zm0-18.36h4.012a1.7,1.7,0,0,1,1.224.67,2.726,2.726,0,0,1,.612,1.92,3.038,3.038,0,0,1-.527,1.9,1.477,1.477,0,0,1-1.139.68H724.62v-5.17Zm-394.328,60.78h5.27v-24.14h-6.63v12.27l-9.69-12.27h-5.168v24.14h6.63v-11.87Zm24.343-.82a11.725,11.725,0,0,0,3.672-2.7,12.72,12.72,0,0,0,2.4-3.88,12.33,12.33,0,0,0,.867-4.57,12.94,12.94,0,0,0-.816-4.52,12.552,12.552,0,0,0-2.329-3.95,11.827,11.827,0,0,0-3.638-2.79,10.48,10.48,0,0,0-4.709-1.05,10.794,10.794,0,0,0-4.675,1,12.02,12.02,0,0,0-3.689,2.69,12.222,12.222,0,0,0-2.431,3.89,12.511,12.511,0,0,0-.867,4.59,12.847,12.847,0,0,0,.833,4.56,12.586,12.586,0,0,0,2.346,3.92,11.821,11.821,0,0,0,3.638,2.78,10.486,10.486,0,0,0,4.709,1.05A10.772,10.772,0,0,0,354.635,2554.17Zm-9.2-13.55a6.638,6.638,0,0,1,.884-2.04,4.64,4.64,0,0,1,1.5-1.44,4.037,4.037,0,0,1,2.159-.55,4.242,4.242,0,0,1,2.142.53,4.519,4.519,0,0,1,1.513,1.39,6.517,6.517,0,0,1,.9,2.01,9.082,9.082,0,0,1,.306,2.36,9.609,9.609,0,0,1-.289,2.35,6.784,6.784,0,0,1-.867,2.05,4.6,4.6,0,0,1-1.5,1.47,4.127,4.127,0,0,1-2.176.56,4.057,4.057,0,0,1-2.142-.55,4.783,4.783,0,0,1-1.53-1.42,6.24,6.24,0,0,1-.9-2.03A9.658,9.658,0,0,1,345.438,2540.62Zm27.54,8.19a3.908,3.908,0,0,1-1.309-1.32,6.179,6.179,0,0,1-.748-1.94,10.848,10.848,0,0,1-.238-2.29v-12.41h-6.63v12.41a16.672,16.672,0,0,0,.612,4.57,10.464,10.464,0,0,0,1.938,3.79,9.507,9.507,0,0,0,3.383,2.6,11.47,11.47,0,0,0,4.947.97,11.844,11.844,0,0,0,4.845-.92,9.517,9.517,0,0,0,3.417-2.51,10.251,10.251,0,0,0,2.006-3.8,16.58,16.58,0,0,0,.646-4.7v-12.41h-6.63v12.41a10.588,10.588,0,0,1-.238,2.27,6.084,6.084,0,0,1-.748,1.92,4.039,4.039,0,0,1-1.326,1.35A4.07,4.07,0,0,1,372.978,2548.81Zm34.119-15.55q-0.816-.405-1.836-0.87c-0.68-.3-1.411-0.59-2.193-0.85a20.813,20.813,0,0,0-2.431-.64,12.978,12.978,0,0,0-2.584-.26,10.98,10.98,0,0,0-3.417.53,8.869,8.869,0,0,0-2.873,1.55,7.254,7.254,0,0,0-1.989,2.55,8.067,8.067,0,0,0-.731,3.53,7.087,7.087,0,0,0,.357,2.35,5.165,5.165,0,0,0,1.105,1.82,7.283,7.283,0,0,0,1.9,1.42,17.39,17.39,0,0,0,2.754,1.18c0.725,0.25,1.411.46,2.057,0.64s1.218,0.37,1.717.55a3.833,3.833,0,0,1,1.173.63,1.071,1.071,0,0,1,.425.86,0.888,0.888,0,0,1-.425.77,2.879,2.879,0,0,1-1.513.29,9.9,9.9,0,0,1-2.805-.41,17.332,17.332,0,0,1-2.465-.92,20.363,20.363,0,0,1-2.482-1.32l-2.856,5.81a17.018,17.018,0,0,0,2.363,1.16,24.672,24.672,0,0,0,5.423,1.46,19.643,19.643,0,0,0,2.72.2,14.366,14.366,0,0,0,3.315-.39,8.874,8.874,0,0,0,2.958-1.27,6.555,6.555,0,0,0,2.108-2.37,7.585,7.585,0,0,0,.8-3.65,7.292,7.292,0,0,0-.51-2.89,5.578,5.578,0,0,0-1.462-2.03,9.562,9.562,0,0,0-2.295-1.44,24.485,24.485,0,0,0-3.009-1.12c-0.7-.23-1.332-0.42-1.887-0.58a11.287,11.287,0,0,1-1.411-.49,2.968,2.968,0,0,1-.884-0.56,1.083,1.083,0,0,1-.306-0.79,0.937,0.937,0,0,1,.527-0.91,2.975,2.975,0,0,1,1.411-.28,7.372,7.372,0,0,1,2.227.36,18.053,18.053,0,0,1,2.057.77,18.6,18.6,0,0,1,2.108,1.08Zm28.968-2.41H415.529v5.78h6.97v18.36h6.63v-18.36h6.936v-5.78Zm9.043,24.14v-7.42h2.482l4.59,7.42h7.48l-5.44-8.88a8.006,8.006,0,0,0,2.55-2.97,8.613,8.613,0,0,0,.918-3.93,8.048,8.048,0,0,0-.612-3.04,8.871,8.871,0,0,0-1.683-2.69,8.366,8.366,0,0,0-2.567-1.9,7.3,7.3,0,0,0-3.264-.73H438.478v24.14h6.63Zm0-18.36h4.012a1.718,1.718,0,0,1,1.224.66,2.726,2.726,0,0,1,.612,1.92,3.012,3.012,0,0,1-.527,1.9,1.449,1.449,0,0,1-1.139.68h-4.182v-5.16Zm21.386,18.36,1.428-4.73h6.426l1.462,4.73h7l-8.976-24.14h-5.372l-9.01,24.14h7.038Zm6.8-9.15h-4.386l2.244-8.09Zm27.54,9.15h5.27v-24.14h-6.63v12.27l-9.69-12.27h-5.168v24.14h6.63v-11.87Zm26.894-21.73q-0.816-.405-1.836-0.87c-0.68-.3-1.411-0.59-2.193-0.85a20.813,20.813,0,0,0-2.431-.64,12.978,12.978,0,0,0-2.584-.26,10.98,10.98,0,0,0-3.417.53,8.869,8.869,0,0,0-2.873,1.55,7.254,7.254,0,0,0-1.989,2.55,8.067,8.067,0,0,0-.731,3.53,7.087,7.087,0,0,0,.357,2.35,5.165,5.165,0,0,0,1.105,1.82,7.283,7.283,0,0,0,1.9,1.42,17.39,17.39,0,0,0,2.754,1.18c0.725,0.25,1.411.46,2.057,0.64s1.218,0.37,1.717.55a3.833,3.833,0,0,1,1.173.63,1.071,1.071,0,0,1,.425.86,0.888,0.888,0,0,1-.425.77,2.879,2.879,0,0,1-1.513.29,9.9,9.9,0,0,1-2.8-.41,17.332,17.332,0,0,1-2.465-.92,20.363,20.363,0,0,1-2.482-1.32l-2.856,5.81a17.018,17.018,0,0,0,2.363,1.16,24.672,24.672,0,0,0,5.423,1.46,19.643,19.643,0,0,0,2.72.2,14.366,14.366,0,0,0,3.315-.39,8.874,8.874,0,0,0,2.958-1.27,6.555,6.555,0,0,0,2.108-2.37,7.585,7.585,0,0,0,.8-3.65,7.292,7.292,0,0,0-.51-2.89,5.578,5.578,0,0,0-1.462-2.03,9.562,9.562,0,0,0-2.295-1.44,24.485,24.485,0,0,0-3.009-1.12c-0.7-.23-1.332-0.42-1.887-0.58a11.287,11.287,0,0,1-1.411-.49,2.968,2.968,0,0,1-.884-0.56,1.083,1.083,0,0,1-.306-0.79,0.937,0.937,0,0,1,.527-0.91,2.975,2.975,0,0,1,1.411-.28,7.372,7.372,0,0,1,2.227.36,18.053,18.053,0,0,1,2.057.77,18.6,18.6,0,0,1,2.108,1.08Zm10.131,21.73v-8.98h8.092v-5.37h-8.092v-4.01h9.928v-5.78H531.229v24.14h6.63Zm26.928-.82a11.725,11.725,0,0,0,3.672-2.7,12.72,12.72,0,0,0,2.4-3.88,12.33,12.33,0,0,0,.867-4.57,12.94,12.94,0,0,0-.816-4.52,12.552,12.552,0,0,0-2.329-3.95,11.827,11.827,0,0,0-3.638-2.79,10.48,10.48,0,0,0-4.709-1.05,10.794,10.794,0,0,0-4.675,1,12.02,12.02,0,0,0-3.689,2.69,12.222,12.222,0,0,0-2.431,3.89,12.511,12.511,0,0,0-.867,4.59,12.847,12.847,0,0,0,.833,4.56,12.586,12.586,0,0,0,2.346,3.92,11.821,11.821,0,0,0,3.638,2.78,10.486,10.486,0,0,0,4.709,1.05A10.772,10.772,0,0,0,564.787,2554.17Zm-9.2-13.55a6.638,6.638,0,0,1,.884-2.04,4.64,4.64,0,0,1,1.5-1.44,4.037,4.037,0,0,1,2.159-.55,4.242,4.242,0,0,1,2.142.53,4.519,4.519,0,0,1,1.513,1.39,6.517,6.517,0,0,1,.9,2.01,9.082,9.082,0,0,1,.306,2.36,9.609,9.609,0,0,1-.289,2.35,6.784,6.784,0,0,1-.867,2.05,4.6,4.6,0,0,1-1.5,1.47,4.127,4.127,0,0,1-2.176.56,4.057,4.057,0,0,1-2.142-.55,4.783,4.783,0,0,1-1.53-1.42,6.24,6.24,0,0,1-.9-2.03A9.658,9.658,0,0,1,555.59,2540.62Zm25.619,14.37v-7.42h2.482l4.59,7.42h7.48l-5.44-8.88a8.006,8.006,0,0,0,2.55-2.97,8.613,8.613,0,0,0,.918-3.93,8.048,8.048,0,0,0-.612-3.04,8.871,8.871,0,0,0-1.683-2.69,8.378,8.378,0,0,0-2.567-1.9,7.3,7.3,0,0,0-3.264-.73H574.579v24.14h6.63Zm0-18.36h4.012a1.718,1.718,0,0,1,1.224.66,2.726,2.726,0,0,1,.612,1.92,3.019,3.019,0,0,1-.527,1.9,1.45,1.45,0,0,1-1.139.68h-4.182v-5.16Zm41.582,18.36v-24.14h-7.208l-5.236,11.35-5.2-11.35H597.9v24.14h6.63v-12.72l4.046,8.94h3.536l4.046-8.94v12.72h6.63Zm10.777-5.78v-3.81h8.772v-5.37h-8.772v-3.4h10.268v-5.78h-16.9v24.14h17.2v-5.78H633.568ZM528.967,2630a5.028,5.028,0,0,1-3.588-1.51l-21.223-21.79H286.379A10.381,10.381,0,0,1,276,2596.35v-185A10.374,10.374,0,0,1,286.379,2401H886.621A10.374,10.374,0,0,1,897,2411.35v136.68a5,5,0,0,1-10,0V2411.35c0-.2-10.168-0.36-10.375-0.36H286.379a0.367,0.367,0,0,0-.375.36v185a0.367,0.367,0,0,0,.375.36h219.89a4.99,4.99,0,0,1,3.586,1.51l14.437,14.82,0.318-11.48a4.994,4.994,0,0,1,5-4.85H844.236a5,5,0,1,1,0,9.99H534.475l-0.509,18.44A5,5,0,0,1,528.967,2630ZM892,2596.75a4.993,4.993,0,0,1-5-4.99v-26.84a5,5,0,0,1,10,0v26.84A4.994,4.994,0,0,1,892,2596.75Z" transform="translate(-276 -2401)"/>
</svg>
