<svg xmlns="http://www.w3.org/2000/svg" width="377.09" height="381.16" viewBox="0 0 377.09 381.16"><title>construire</title><path d="M122.87,317.94h0c.48,0,1,0,1.48-.08C123.85,317.9,123.35,317.94,122.87,317.94Z" fill="#fc4c02"/><path d="M239,179a31.79,31.79,0,0,0-32-31.49c-18,0-31.62,13.9-31.57,32.11A31.81,31.81,0,0,0,207,211.13C224.39,211.23,239.21,196.37,239,179ZM207.3,200.56c-11.49.15-21.22-9.56-21.24-21.22A21.05,21.05,0,0,1,207,158,21.56,21.56,0,0,1,228.5,179C228.59,190.38,218.71,200.41,207.3,200.56Z" fill="#fc4c02"/><path d="M78.3,314.58l-16-3.94c1.9-1.75,2.82-2.7,3.83-3.51,34.05-27.41,65.93-57.19,96.34-88.56,1.62-1.67,3.65-3.16,4.66-5.15.73-1.44.1-3.57.08-5.39-1.71.05-3.68-.4-5.07.29-1.71.85-3,2.61-4.36,4.05a993.87,993.87,0,0,1-93.55,86.4c-1.19,1-2.47,1.81-4.34,3.16-.54-3.85-.93-6.77-1.37-9.68-.4-2.66-1.89-4.8-4.6-3.7-1.33.54-2.41,3.24-2.48,5-.23,5.95.22,11.92,0,17.88-.1,3.36,1.4,4.91,4.37,5.6C64,318.93,72,321,80.17,322.54c1.5.29,3.39-1.44,5.1-2.24-1-1.58-1.85-3.41-3.19-4.67C81.24,314.84,79.59,314.9,78.3,314.58Z" fill="#fc4c02"/><path d="M315,55.24a140.62,140.62,0,0,0-17.71,2.5c-1.42.3-2.37,2.86-3.53,4.38,1.86.87,3.65,2.16,5.6,2.47s3.8-.44,5.71-.72l.26,1.1c-.88.73-1.75,1.48-2.64,2.2A303.56,303.56,0,0,0,238,139.34c-.72,1.12-1.92,2.26-1.94,3.41,0,1.58.39,3.89,1.46,4.57s3.49.08,4.64-.82c1.49-1.17,2.3-3.21,3.39-4.88A298.31,298.31,0,0,1,306,74.28c1.17-1,2.51-1.72,4.29-2.92-.33,5.08-.86,9.21-.71,13.31,0,1.28,1.86,3.41,3,3.49s3.55-1.55,3.78-2.75c1.55-8.14,2.77-16.35,3.91-24.57C320.74,57.09,318.56,54.95,315,55.24Z" fill="#fc4c02"/><path d="M97,99.72c.37,1.23,3,2.94,3.93,2.6,1.38-.51,2.67-2.51,3.06-4.1s-.34-3.51-.61-5.47a5.93,5.93,0,0,1,1.68.35c1.55,1,3.09,2,4.58,3a416.43,416.43,0,0,1,53.83,46.08c2.73,2.76,6.76,4.4,10.45,5.94.84.35,3.35-1.66,4-3.07.34-.78-1.46-2.83-2.68-3.85-1.6-1.33-3.94-1.87-5.35-3.33A410.13,410.13,0,0,0,115,90.63c-1.08-.78-2-1.75-3.05-2.62,1.38-.51,2.41.08,3.2-.16,1.8-.54,4.39-1.06,5-2.37,1.19-2.51-.57-4.08-3.26-5-6.63-2.18-13.16-4.65-19.72-7-4.37-1.59-6.77.11-5.8,4.52C93,85.3,94.84,92.56,97,99.72Z" fill="#fc4c02"/><path d="M277.17,281.19c-1.85,2.8-2.88,6.14-4.61,10.09-1.29-2.09-2.23-3.39-2.94-4.8-5.81-11.58-11.79-23.09-17.29-34.82-4.51-9.62-8.44-19.52-12.6-29.3-1.13-2.65-2.17-5.88-5.9-4.28s-2.24,4.68-1.08,7.29c6.37,14.44,12.66,28.92,19.27,43.25,3.8,8.24,8.14,16.23,12.78,25.42-4-1.34-6.86-2.79-9.85-3.13-1.63-.19-3.48,1.49-5.23,2.33.94,1.56,1.53,4,2.89,4.54,6.28,2.62,12.77,4.71,19.18,7,2.95,1.05,4.79,0,5.8-2.89,2.09-5.94,4.45-11.81,6.19-17.85.45-1.55-1-3.65-1.53-5.49C280.51,279.4,278.09,279.8,277.17,281.19Z" fill="#fc4c02"/><path d="M122.87,317.94c.07.49.1,1,.13,1.52,0-.52-.05-1-.13-1.52Z" fill="#fc4c02"/><path d="M142.86,339.12c4-7.28,7.6-14.76,10.95-22.34.52-1.17-1.13-3.3-1.78-5-1.74.85-4,1.28-5.09,2.66-1.52,2-2.13,4.69-3.12,7.08l-1.69-.36c0-2.45,0-4.9,0-7.35q-.37-23.47-.78-46.94c0-2.74-.78-5.57-4-4.83-1.41.32-3.1,3.36-3.11,5.17-.08,16,.2,32,.36,48,0,2.39,0,4.78,0,8-2.49-2.19-4-4.17-6-5.08a8.77,8.77,0,0,0-4.22-.22c-.5,0-1,.08-1.48.08.07.49.1,1,.13,1.52.07,1.57.07,3.19.84,4.23,4,5.3,8.42,10.23,12.59,15.38C138.67,341.85,141.25,342.07,142.86,339.12Z" fill="#fc4c02"/><path d="M20.63,317.1C9.09,316.87.21,325.36,0,336.82c-.2,11,8.21,20.13,18.89,20.42,12.05.32,21.08-7.9,21.35-19.45S32.09,317.33,20.63,317.1ZM20,348.69A11.75,11.75,0,0,1,8.33,337.37,12.18,12.18,0,0,1,20,325.43a11.73,11.73,0,0,1,11.72,11.76A11.43,11.43,0,0,1,20,348.69Z" fill="#fc4c02"/><path d="M71.71,74.16a16.56,16.56,0,0,0,16.42-16.6A16.2,16.2,0,0,0,71.67,41.14c-9.35,0-16.31,7-16.31,16.48A16.32,16.32,0,0,0,71.71,74.16Zm0-24.63a8,8,0,0,1,0,16.06,8.06,8.06,0,0,1-7.84-8A8.14,8.14,0,0,1,71.69,49.52Z" fill="#fc4c02"/><path d="M343.25,15.71a16.13,16.13,0,0,0-15.88,16.48,15.87,15.87,0,0,0,16.19,16,16.11,16.11,0,0,0,16-16.37A16.35,16.35,0,0,0,343.25,15.71Zm.12,23.94A7.57,7.57,0,0,1,335.85,32a7.85,7.85,0,0,1,7.6-7.69c3.86,0,7.69,3.86,7.69,7.76A8,8,0,0,1,343.38,39.65Z" fill="#fc4c02"/><path d="M141.89,355.47c-7.53.07-12.6,5.33-12.52,13a12.6,12.6,0,0,0,13,12.71,13.08,13.08,0,0,0,12.72-13.23C155,360.67,149.43,355.4,141.89,355.47Zm.38,18.89c-2.61,0-4.36-4.37-4.13-5.6a6.35,6.35,0,0,1,4.05-4.18c1.14-.24,4,2.23,4,3.51C146.23,369.77,144.87,374.36,142.26,374.36Z" fill="#fc4c02"/><path d="M260.6,238.44c.15,6.36,5.08,11,11.66,10.95s11.27-4.69,11.24-11.28a11.26,11.26,0,0,0-11.31-11.4A11.55,11.55,0,0,0,260.6,238.44Zm17.32-.41c-.72,2.4.14,5.15-5.87,6.53-5.71-1.38-5.23-4.24-5.63-6.59-.56-3.33,2.06-5.42,5.52-5.67S278.8,235.08,277.92,238Z" fill="#fc4c02"/><path d="M369.47,141.57c.49,1.32,2.85,2.63,4.36,2.64,1.06,0,2.15-2.18,3.27-3.44-2.08-7.06-3.68-13.51-5.91-19.74a39.92,39.92,0,0,0-5.7-10.4c-.87-1.15-3.64-.86-5.55-1.22-.08,1.91-.75,4-.13,5.68,1.69,4.46,4.23,8.61,5.87,13.09S367.86,137.23,369.47,141.57Z" fill="#fc4c02"/><path d="M58.73,266.93c-.6-2-.58-4.74-1.91-5.87-5.62-4.78-9-10.49-9.81-17.87-.18-1.57-1.72-3-2.36-4-4.95.29-5.37,2.89-5,5.73,1.16,9,5,16.6,12.55,21.78C53.72,267.73,56.52,266.9,58.73,266.93Z" fill="#fc4c02"/><path d="M245,347.21A35.65,35.65,0,0,1,223.48,349c-1.27-.29-3.06,1.71-4.6,2.65,1,1.5,1.63,3.87,3,4.33,3.08,1.07,6.48,1.22,11.12,2,4.17-1.1,9.52-2.21,14.6-4.06,1.35-.49,1.86-3.27,2.76-5C248.52,348.29,246.34,346.69,245,347.21Z" fill="#fc4c02"/><path d="M242.51,13.6c6.89.9,13.78,1.87,22.29,3,.83-.59,3.63-1.53,4.11-3.16C270,9.87,266.7,9.19,264,8.83c-6.72-.91-13.46-1.89-20.22-2.28-2-.11-5.36,1.25-5.82,2.67C237,12.23,239.8,13.24,242.51,13.6Z" fill="#fc4c02"/><path d="M354,272.23a6,6,0,0,0-4.33,2.15c-3,3.68-5.56,7.72-8.46,11.49-1.41,1.83-3.64,3.13-4.67,5.1-.73,1.4-.08,3.53-.05,5.33,1.79-.11,4.25.49,5.24-.45a148.26,148.26,0,0,0,12.13-13.11c1.5-1.82,2.08-4.41,3.27-7.08C356,274.34,355.08,272.32,354,272.23Z" fill="#fc4c02"/><path d="M301.65,320c-4.08,3.78-7.7,8.06-11.9,11.69-2.17,1.87-4.74,3.55-2.55,6.2.94,1.14,5.06,1.34,6.31.28,5.11-4.32,9.71-9.25,14.39-14.06.74-.76.93-2.05,1.37-3.1l1.33-1.6c-1.35-.59-2.76-1.77-4-1.63A9.16,9.16,0,0,0,301.65,320Z" fill="#fc4c02"/><path d="M36.51,203.83c.43-1.88,1.82-4.29,1.12-5.56-3-5.49-4.65-11-2.13-18.16-.93-.94-2.13-3.11-3.4-3.15a5.47,5.47,0,0,0-4.29,2.88c-2.58,7.91-1.07,15.44,3.69,22.14C32.34,203.18,34.79,203.24,36.51,203.83Z" fill="#fc4c02"/><path d="M171.7,12.83c6.58-1.52,13.1-3.38,19.51-5.54,1.21-.41,2.6-2.79,2.44-4.07S191.43,1,190.32,0c-7.43,2.08-14.15,3.79-20.7,6-1.07.36-2.2,3.11-1.85,4.34S170.56,13.1,171.7,12.83Z" fill="#fc4c02"/><path d="M178.64,342a136.81,136.81,0,0,0-17-4.91c-1.41-.31-3.71,1-4.73,2.32-.57.72.23,3.8,1.13,4.2,5.41,2.4,11,4.32,17.35,6.69,2-1.42,4.15-2.45,5.45-4.15C181.26,345.56,179.8,342.39,178.64,342Z" fill="#fc4c02"/><path d="M35.11,127.93c1.14.48,3.88-.13,4.27-1,2.71-6,5-12.2,7.62-18.85-1-1.2-1.77-3-2.93-3.32s-3.74.42-4.16,1.37C37.31,112,35,118,33,124.15,32.64,125.14,34,127.47,35.11,127.93Z" fill="#fc4c02"/><path d="M372.93,167.3c-1.18,1.28-3.11,2.43-3.38,3.88-.54,2.88-.16,5.93-.16,8.91h.13c0,2.81-.4,5.71.15,8.41.34,1.69,2.11,3.09,3.23,4.63,1.37-1.36,3.86-2.67,3.93-4.09a141,141,0,0,0-.5-18.32C376.22,169.48,374.11,168.43,372.93,167.3Z" fill="#fc4c02"/><path d="M188.16,91c.58,1,3.17,1.84,4.48,1.44A109.24,109.24,0,0,0,206.89,87a5.1,5.1,0,0,0,2.29-4.15c-.14-1.29-2-2.41-3.54-4-5.91,2.62-11.39,4.83-16.59,7.56C188.11,86.85,187.55,89.88,188.16,91Z" fill="#fc4c02"/><path d="M220.83,268.35c0,1.4,1.35,3,2.56,4,.91.75,2.5.67,5.18,1.27a96.51,96.51,0,0,0,10.88-5.37c1.06-.67.82-3.41,1.17-5.2-1.78-.27-3.66-1.05-5.31-.72a80.44,80.44,0,0,0-11.16,3.23C222.82,266.08,220.81,267.44,220.83,268.35Z" fill="#fc4c02"/><path d="M290.29,194.07c-1.23,2.42-1.48,5.33-2.15,8.05.65,2.74.92,5.45,2,7.78.51,1.1,2.93,2.32,3.88,1.95a5.5,5.5,0,0,0,2.89-3.85,70.79,70.79,0,0,0,.16-12.15c-.1-1.5-1.43-4.11-2.2-4.12C293.3,191.74,291,192.77,290.29,194.07Z" fill="#fc4c02"/><path d="M117.27,146.56c2.31-4.34,4.13-8.95,6.35-14-.78-1.2-1.42-3.29-2.48-3.53-1.4-.32-4,.34-4.57,1.39a81.06,81.06,0,0,0-5.65,13.14c-.37,1.11,1,3.48,2.22,4.2C114,148.31,116.77,147.52,117.27,146.56Z" fill="#fc4c02"/><path d="M370.09,224c-.94-.42-3.57.69-4,1.71a80.27,80.27,0,0,0-4.32,13.61c-.28,1.33,1.64,3.13,2.86,5.23,2-1.47,3.51-2,3.87-3a104.11,104.11,0,0,0,4.29-13.63C373.07,226.8,371.39,224.58,370.09,224Z" fill="#fc4c02"/><path d="M309.49,39.65c1.11.84,3.4.13,5.16.13-.06-1.82.6-4.25-.33-5.35A65.32,65.32,0,0,0,305,25.57c-1-.82-3.14-.84-4.52-.43-.93.27-1.45,1.94-2.14,3a14.27,14.27,0,0,0,1.69,2.83A101.36,101.36,0,0,0,309.49,39.65Z" fill="#fc4c02"/><path d="M350.49,83.65c1.11.84,3.4.13,5.16.13-.06-1.82.6-4.25-.33-5.35A65.32,65.32,0,0,0,346,69.57c-1-.82-3.14-.84-4.52-.43-.93.27-1.45,1.94-2.14,3a14.27,14.27,0,0,0,1.69,2.83A101.36,101.36,0,0,0,350.49,83.65Z" fill="#fc4c02"/><path d="M278.13,112.56c-.41.32-2,1-2.19,1.85a6.6,6.6,0,0,0,1,4.46,56.59,56.59,0,0,0,6.37,7.45c.92.92,2.62,1.79,3.75,1.57a4.63,4.63,0,0,0,2.9-2.84C290.95,121.41,282.91,112.38,278.13,112.56Z" fill="#fc4c02"/><path d="M105.56,174.41c-.31-1.48,0-3.21,0-4.8s-.37-3.06-.06-4.37c-.31,1.31.05,2.92.06,4.37S105.25,172.93,105.56,174.41Z" fill="#fc4c02"/><path d="M105.6,169.61c0,1.59-.35,3.32,0,4.8a4.38,4.38,0,0,0,.17.62c.57,1.57,2.22,2.74,3.39,4.09,1.31-1.38,3.48-2.62,3.74-4.17a32.65,32.65,0,0,0,0-10.38c-.22-1.43-2.34-2.55-3.59-3.82-1.22,1.3-2.88,2.41-3.55,3.95a3.29,3.29,0,0,0-.18.54C105.23,166.55,105.6,168.16,105.6,169.61Z" fill="#fc4c02"/><path d="M120.46,34.47a49.33,49.33,0,0,0,8.8-5.6,9.18,9.18,0,0,0,1.91-2.43c.1-3.86-2.59-5.57-5.47-4a49.12,49.12,0,0,0-9.15,6c-1.24,1.09-1.24,3.59-1.8,5.44C116.67,34.11,118.94,35.14,120.46,34.47Z" fill="#fc4c02"/><path d="M299.77,165.33c1.32-.12,2.48-2,4.09-3.39-2-4.62-3.54-8.83-5.77-12.61-.64-1.09-3.36-.95-5.12-1.37-.35,1.78-1.31,3.71-.92,5.31a41.69,41.69,0,0,0,3.66,9.64A5.21,5.21,0,0,0,299.77,165.33Z" fill="#fc4c02"/><path d="M193.57,265.57a44.16,44.16,0,0,0-9.57.16c-1.52.19-3.75,1.21-4.11,2.35s.71,3.58,1.88,4.34c1.83,1.19,4.27,1.46,6.67,2.19,2.51-.77,5.21-1.16,7.4-2.44,1.17-.68,2.24-3.15,1.87-4.35S195.09,265.71,193.57,265.57Z" fill="#fc4c02"/><path d="M237.2,90.81c3.33,1.39,7,2,11.34,3.21,1-.88,3-1.86,3.19-3.1a5,5,0,0,0-2.31-4.14,41,41,0,0,0-10.5-2.86c-1.26-.16-3.61,1.48-3.94,2.7S236,90.31,237.2,90.81Z" fill="#fc4c02"/><path d="M152.6,104.29a51.05,51.05,0,0,0,8.07-2.49c1.87-.68,3.67-1.55,5.51-2.33l-1.59-2.76c-1.31-1-3.14-3.1-3.83-2.78a54.88,54.88,0,0,0-9.87,6.13C150.55,100.33,152.27,104.35,152.6,104.29Z" fill="#fc4c02"/><path d="M124.74,216.89c2-2.72-3.48-11.35-7.93-11.34-.54.61-2.58,2.23-2.34,2.71a67.14,67.14,0,0,0,6.22,10C121,218.69,124,217.89,124.74,216.89Z" fill="#fc4c02"/><path d="M160.34,260.12c-1.71-2.55-3.75-4.87-6.54-8.24-2,2.5-4.2,4.86-4,5.1a33.78,33.78,0,0,0,6.89,6.14C157.12,263.4,160.45,260.28,160.34,260.12Z" fill="#fc4c02"/></svg>