<svg id="lecture" xmlns="http://www.w3.org/2000/svg" width="134" height="134" viewBox="0 0 134 134">
  <defs>
    <style>
      .cls-1, .cls-2 {
        fill: #fc4c02;
      }

      .cls-1 {
        fill-opacity: 0;
        stroke: #fc4c02;
        stroke-linejoin: round;
        stroke-width: 5px;
      }

      .cls-2 {
        fill-rule: evenodd;
      }
    </style>
  </defs>
  <circle class="cls-1" cx="67" cy="67" r="64.5"/>
  <path id="play" class="cls-2" d="M441.246,1046.5a2.222,2.222,0,0,1-2.234-2.21v-6.91a2.235,2.235,0,0,1,4.469,0v6.91A2.223,2.223,0,0,1,441.246,1046.5Zm0,37.49a2.229,2.229,0,0,1-1.117-.3,2.194,2.194,0,0,1-1.117-1.91v-28.83a2.235,2.235,0,0,1,4.469,0v25l42.807-24.46-46.159-26.36a2.2,2.2,0,0,1-.818-3.02,2.247,2.247,0,0,1,3.053-.81l49.51,28.28a2.193,2.193,0,0,1,1.118,1.91,2.221,2.221,0,0,1-1.118,1.92l-49.51,28.28A2.232,2.232,0,0,1,441.246,1083.99Z" transform="translate(-391.5 -985.5)"/>
</svg>
