<svg xmlns="http://www.w3.org/2000/svg" width="25" height="22" viewBox="0 0 25 22"><title>linkedin-ico</title><path d="M4.54,22H0V5.49H4.54Z" fill="#1d3f51"/><path d="M3.88,3.75a2.16,2.16,0,0,1-1.58.63A2.26,2.26,0,0,1,.68,3.74,2.14,2.14,0,0,1,0,2.16,2.08,2.08,0,0,1,.67.63,2.24,2.24,0,0,1,2.26,0,2.26,2.26,0,0,1,3.88.65,2.08,2.08,0,0,1,4.54,2.2,2.08,2.08,0,0,1,3.88,3.75Z" fill="#1d3f51"/><path d="M25,22H20.47V15.39a15.38,15.38,0,0,0-.33-4A2.77,2.77,0,0,0,19,9.83a3.77,3.77,0,0,0-2-.52,4.3,4.3,0,0,0-2.69.87,4.46,4.46,0,0,0-1.56,2.39A15.87,15.87,0,0,0,12.49,16v6H8V5.49H12.5v2.2a14.32,14.32,0,0,1,3.17-1.8,7.27,7.27,0,0,1,2.58-.47,7,7,0,0,1,4.88,1.76A5.48,5.48,0,0,1,25,11.61Z" fill="#1d3f51"/></svg>