<svg id="Logo_Goood_blanc_copie" data-name="Logo Goood blanc copie" xmlns="http://www.w3.org/2000/svg" width="123" height="50" viewBox="0 0 123 50">
  <defs>
    <style>
      .cls-1 {
        fill: #fff;
        fill-rule: evenodd;
      }
    </style>
  </defs>
  <path id="GOOOD" class="cls-1" d="M156.537,35c5.335,0,8.46,3.5,8.46,8.138V66.985c0,4.617-3.125,8.114-8.46,8.114h-7.61V35h7.61Zm-3.406,36.141h3.406A3.907,3.907,0,0,0,160.775,67V43.132a3.92,3.92,0,0,0-4.238-4.174h-3.406V71.139Zm-41.9-26.249V57.077a7.957,7.957,0,0,1-15.912,0V44.891a7.957,7.957,0,0,1,15.912,0m-11.284,0V57.109a3.33,3.33,0,1,0,6.656,0V44.891a3.33,3.33,0,1,0-6.656,0m-15.284,0V57.077a7.575,7.575,0,0,1-7.955,7.836,7.575,7.575,0,0,1-7.956-7.836V44.891a7.957,7.957,0,0,1,15.911,0m-11.284,0V57.109a3.33,3.33,0,1,0,6.656,0V44.891a3.33,3.33,0,1,0-6.656,0m64.714,0V57.077a7.956,7.956,0,0,1-15.911,0V44.891a7.957,7.957,0,0,1,15.911,0m-11.284,0V57.109a3.33,3.33,0,1,0,6.656,0V44.891a3.33,3.33,0,1,0-6.656,0M53.3,57.417H49.318V53.111h8.593V67.732a7.574,7.574,0,0,1-7.955,7.836A7.575,7.575,0,0,1,42,67.732V43.3a7.6,7.6,0,0,1,7.956-7.8,7.6,7.6,0,0,1,7.955,7.8V45.29H53.283V43.3a3.33,3.33,0,1,0-6.656,0V67.763a3.33,3.33,0,1,0,6.656,0Z" transform="translate(-42 -35)"/>
  <path id="_" data-name="!" class="cls-1" d="M72.5,79.1a2.372,2.372,0,0,1-.888-0.172c-0.853-.344-1.768-0.795-2.652-1.23-0.47-.231-0.928-0.456-1.348-0.65a2.225,2.225,0,0,1-1.1-3A2.345,2.345,0,0,1,69.6,72.981c0.452,0.209.945,0.452,1.452,0.7,0.809,0.4,1.644.808,2.337,1.088a2.23,2.23,0,0,1,1.251,2.943A2.319,2.319,0,0,1,72.5,79.1ZM103.088,85a90.2,90.2,0,0,1-23.369-3.042,2.243,2.243,0,0,1-1.594-2.781,2.327,2.327,0,0,1,2.862-1.549,86.579,86.579,0,0,0,22.1,2.87,78.6,78.6,0,0,0,33.658-7.456,2.345,2.345,0,0,1,3.093,1.048,2.223,2.223,0,0,1-1.078,3.007A83.293,83.293,0,0,1,103.088,85Z" transform="translate(-42 -35)"/>
</svg>
