<svg id="logo-gooog-couleur" xmlns="http://www.w3.org/2000/svg" width="123" height="50" viewBox="0 0 123 50">
  <defs>
    <style>
      .cls-1 {
        fill: #fff;
      }

      .cls-1, .cls-2 {
        fill-rule: evenodd;
      }

      .cls-2 {
        fill: #fc4c02;
      }
    </style>
  </defs>
  <path id="GOOOD" class="cls-1" d="M147.538,3669c5.335,0,8.459,3.5,8.459,8.14v23.84c0,4.62-3.124,8.12-8.459,8.12h-7.61V3669h7.61Zm-3.407,36.14h3.407a3.906,3.906,0,0,0,4.238-4.14v-23.87a3.921,3.921,0,0,0-4.238-4.17h-3.407v32.18Zm-41.9-26.25v12.19a7.957,7.957,0,0,1-15.911,0v-12.19a7.957,7.957,0,0,1,15.911,0m-11.284,0v12.22a3.33,3.33,0,1,0,6.656,0v-12.22a3.33,3.33,0,1,0-6.656,0m-15.284,0v12.19a7.569,7.569,0,0,1-7.955,7.83,7.569,7.569,0,0,1-7.956-7.83v-12.19a7.6,7.6,0,0,1,7.956-7.8,7.6,7.6,0,0,1,7.955,7.8m-11.284,0v12.22a3.33,3.33,0,1,0,6.657,0v-12.22a3.33,3.33,0,1,0-6.657,0m64.715,0v12.19a7.957,7.957,0,0,1-15.912,0v-12.19a7.958,7.958,0,0,1,15.912,0m-11.284,0v12.22a3.33,3.33,0,1,0,6.656,0v-12.22a3.33,3.33,0,1,0-6.656,0M44.3,3691.42H40.318v-4.31h8.593v14.62a7.576,7.576,0,0,1-7.955,7.84A7.577,7.577,0,0,1,33,3701.73V3677.3a7.6,7.6,0,0,1,7.956-7.8,7.6,7.6,0,0,1,7.955,7.8v1.99H44.284v-1.99a3.33,3.33,0,1,0-6.657,0v24.46a3.33,3.33,0,1,0,6.657,0Z" transform="translate(-33 -3669)"/>
  <path id="_" data-name="!" class="cls-2" d="M63.5,3713.1a2.31,2.31,0,0,1-.888-0.17c-0.853-.35-1.768-0.8-2.652-1.23-0.47-.23-0.928-0.46-1.349-0.65a2.225,2.225,0,0,1-1.1-3,2.352,2.352,0,0,1,3.087-1.07c0.453,0.21.946,0.45,1.452,0.7,0.809,0.4,1.645.81,2.337,1.09a2.227,2.227,0,0,1,1.251,2.94A2.315,2.315,0,0,1,63.5,3713.1Zm30.584,5.9a90.283,90.283,0,0,1-23.369-3.04,2.244,2.244,0,0,1-1.594-2.78,2.324,2.324,0,0,1,2.862-1.55,86.75,86.75,0,0,0,22.1,2.87,78.555,78.555,0,0,0,33.658-7.46,2.348,2.348,0,0,1,3.094,1.05,2.231,2.231,0,0,1-1.079,3.01A83.363,83.363,0,0,1,94.088,3719Z" transform="translate(-33 -3669)"/>
</svg>
