<?xml version="1.0" encoding="utf-8"?>
<!-- Generator: Adobe Illustrator 20.1.0, SVG Export Plug-In . SVG Version: 6.00 Build 0)  -->
<svg version="1.1" id="Logo_Goood_blanc_copie_2" xmlns="http://www.w3.org/2000/svg" xmlns:xlink="http://www.w3.org/1999/xlink"
	 x="0px" y="0px" viewBox="0 0 125.7 53.3" style="enable-background:new 0 0 125.7 53.3;" xml:space="preserve">
<style type="text/css">
	.st0{fill:#FFFFFF;}
</style>
<g id="GOOOD_1_">
	
		<image style="overflow:visible;opacity:0.75;" width="136" height="53" xlink:href="FF34CFE65388C1A3.png"  transform="matrix(1 0 0 1 -6 -5)">
	</image>
	<g>
		<path class="st0" d="M114.5,0c5.3,0,8.5,3.5,8.5,8.1V32c0,4.6-3.1,8.1-8.5,8.1h-7.6V0H114.5z M111.1,36.1h3.4
			c2.1,0.2,4-1.4,4.2-3.6c0-0.2,0-0.4,0-0.6V8.1c0.1-2.2-1.5-4-3.6-4.2c-0.2,0-0.4,0-0.6,0h-3.4L111.1,36.1L111.1,36.1z M69.2,9.9
			v12.2c-0.1,4.4-3.7,7.9-8.1,7.8c-4.3-0.1-7.8-3.5-7.8-7.8V9.9C53.4,5.5,57,2,61.4,2.1C65.7,2.1,69.2,5.6,69.2,9.9 M57.9,9.9v12.2
			c-0.1,1.8,1.4,3.4,3.2,3.4c1.8,0.1,3.4-1.4,3.4-3.2c0-0.1,0-0.2,0-0.2V9.9c0.1-1.8-1.4-3.4-3.2-3.4c-1.8-0.1-3.4,1.4-3.4,3.2
			C57.9,9.7,57.9,9.8,57.9,9.9 M42.7,9.9v12.2c0.1,4.2-3.1,7.7-7.3,7.8c-0.2,0-0.4,0-0.7,0c-4.2,0.2-7.7-3-8-7.2c0-0.2,0-0.4,0-0.7
			V9.9c0.1-4.4,3.7-7.9,8.1-7.8C39.1,2.2,42.6,5.6,42.7,9.9 M31.4,9.9v12.2c-0.1,1.8,1.4,3.4,3.2,3.4c1.8,0.1,3.4-1.4,3.4-3.2
			c0-0.1,0-0.2,0-0.2V9.9c0.1-1.8-1.4-3.4-3.2-3.4c-1.8-0.1-3.4,1.4-3.4,3.2C31.4,9.7,31.4,9.8,31.4,9.9 M96.1,9.9v12.2
			c0,4.4-3.7,7.9-8,7.9c-4.3,0-7.8-3.5-7.9-7.9V9.9c0.1-4.4,3.7-7.9,8.1-7.8C92.6,2.2,96,5.6,96.1,9.9 M84.8,9.9v12.2
			c-0.1,1.8,1.4,3.4,3.2,3.4c1.8,0.1,3.4-1.4,3.4-3.2c0-0.1,0-0.2,0-0.2V9.9c0.1-1.8-1.4-3.4-3.2-3.4c-1.8-0.1-3.4,1.4-3.4,3.2
			C84.8,9.7,84.8,9.8,84.8,9.9 M11.3,22.4h-4v-4.3h8.6v14.6c0.2,4.2-3.1,7.7-7.3,7.8c-0.2,0-0.4,0-0.7,0c-4.2,0.2-7.7-3-8-7.2
			c0-0.2,0-0.4,0-0.7V8.3c-0.1-4.2,3.2-7.7,7.4-7.8c0.2,0,0.4,0,0.6,0c4.2-0.2,7.8,3,7.9,7.2c0,0.2,0,0.4,0,0.6v2h-4.6v-2
			c0.1-1.8-1.4-3.4-3.2-3.4C6.2,4.8,4.7,6.2,4.6,8.1c0,0.1,0,0.2,0,0.2v24.5c-0.1,1.8,1.4,3.4,3.2,3.4c1.8,0.1,3.4-1.4,3.4-3.2
			c0-0.1,0-0.2,0-0.2L11.3,22.4z"/>
	</g>
</g>
<g id="__1_">
	
		<image style="overflow:visible;opacity:0.75;" width="87" height="26" xlink:href="FF34CFE65388C1A1.png"  transform="matrix(1 0 0 1 19 32)">
	</image>
	<g>
		<path class="st0" d="M30.5,44.1c-0.3,0-0.6-0.1-0.9-0.2c-0.9-0.3-1.8-0.8-2.7-1.2c-0.5-0.2-0.9-0.5-1.3-0.7
			c-1.1-0.5-1.6-1.8-1.1-2.9c0,0,0,0,0-0.1c0.6-1.1,1.9-1.6,3.1-1.1c0.5,0.2,0.9,0.5,1.5,0.7c0.8,0.4,1.6,0.8,2.3,1.1
			c1.1,0.4,1.7,1.7,1.3,2.9c0,0,0,0,0,0.1C32.3,43.6,31.4,44.1,30.5,44.1z M61.1,50c-7.9,0-15.7-1-23.4-3c-1.2-0.3-1.9-1.5-1.6-2.7
			c0,0,0,0,0,0c0.4-1.2,1.6-1.9,2.9-1.5c7.2,1.9,14.6,2.9,22.1,2.9c11.6,0,23.1-2.5,33.7-7.5c1.1-0.5,2.5-0.1,3.1,1
			c0.5,1.1,0.1,2.4-1,3c0,0,0,0-0.1,0C85.6,47.3,73.4,50,61.1,50z"/>
	</g>
</g>
</svg>
