<svg xmlns="http://www.w3.org/2000/svg" width="32.06" height="28.063" viewBox="0 0 32.06 28.063">
  <path style="fill: #fff; fill-rule: evenodd;" id="menu-ico.svg" d="M1326.72,61.535h-4.32a2.207,2.207,0,1,1,0-4.415h4.32A2.207,2.207,0,1,1,1326.72,61.535Zm0-23.648H1299.1a2.207,2.207,0,1,1,0-4.414h27.62A2.207,2.207,0,1,1,1326.72,37.887Zm0,11.824H1299.1a2.208,2.208,0,1,1,0-4.415h27.62A2.208,2.208,0,1,1,1326.72,49.712Zm-11.39,11.824H1299.1a2.207,2.207,0,1,1,0-4.415h16.23A2.207,2.207,0,1,1,1315.33,61.535Z" transform="translate(-1296.88 -33.469)"/>
</svg>
