<?xml version="1.0" encoding="utf-8"?>
<!-- Generator: Adobe Illustrator 18.1.1, SVG Export Plug-In . SVG Version: 6.00 Build 0)  -->
<svg version="1.1" id="Calque_1" xmlns="http://www.w3.org/2000/svg" xmlns:xlink="http://www.w3.org/1999/xlink" x="0px" y="0px"
	 viewBox="0 0 600 600" enable-background="new 0 0 600 600" xml:space="preserve">
<line fill="none" stroke="#F05A24" stroke-width="33.3346" stroke-linecap="round" stroke-miterlimit="10" x1="229.3" y1="326" x2="116.2" y2="552.5"/>
<path fill="none" stroke="#F05A24" stroke-width="33.3346" stroke-linecap="round" stroke-miterlimit="10" d="M412.2,224l-51.5,28.3
	"/>
<path fill="none" stroke="#F05A24" stroke-width="34.1306" stroke-linecap="round" stroke-miterlimit="10" d="M172.4,589"/>
<path fill="none" stroke="#F05A24" stroke-width="34.7385" stroke-linecap="round" stroke-miterlimit="10" d="M321.6,270.7"/>
<path fill="none" stroke="#F05A24" stroke-width="34.7385" stroke-linecap="round" stroke-miterlimit="10" d="M305.3,279.4
	L103.1,387.1c-12.2,7.3-27.7,4.1-34.4-7.1l-20.6-34.3c-6.7-11.2-2.3-26.4,9.9-33.7L495.2,43.2c12.2-7.3,27.7-4.1,34.4,7.1l32.9,63.6
	c6.7,11.2,2.3,26.4-9.9,33.7l-85.7,45.7"/>
<path fill="none" stroke="#F05A24" stroke-width="40.4777" stroke-linecap="round" stroke-miterlimit="10" d="M33.1,363.4l14.3,23.8
	"/>
<path fill="none" stroke="#F05A24" stroke-width="35.7156" stroke-linecap="round" stroke-miterlimit="10" d="M461,86.3l42.1,70.6"
	/>
<line fill="none" stroke="#F05A24" stroke-width="33.3346" stroke-linecap="round" stroke-miterlimit="10" x1="306.2" y1="278.5" x2="440.9" y2="552.5"/>
</svg>
