<svg xmlns="http://www.w3.org/2000/svg" width="31" height="39" viewBox="0 0 31 39"><title>youtube-ico</title><path d="M26.22,28.53h-2V27.28a1,1,0,0,1,1-1h.13a1,1,0,0,1,1,1Zm-7.66-2.67a.89.89,0,0,0-.94.81v6a1,1,0,0,0,1.88,0v-6a.89.89,0,0,0-.94-.81ZM31,22.48V34a5.06,5.06,0,0,1-5.07,5H5.07A5.06,5.06,0,0,1,0,34V22.48a5.06,5.06,0,0,1,5.07-5H25.93a5.06,5.06,0,0,1,5.07,5ZM6.46,35.23V23.12H9V21.32H2.16v1.77H4.31V35.23Zm7.75-10.31H12.06v6.47a12.33,12.33,0,0,1,0,1.57c-.18.5-1,1-1.27.06a13.82,13.82,0,0,1,0-1.58V24.92H8.63v6.41c0,1,0,1.72,0,2.05.05.59,0,1.27.55,1.66,1,.73,2.83-.11,3.29-1.16v1.34h1.73V24.92Zm6.9,7.41V26.94c0-2-1.47-3.28-3.46-1.62v-4H15.51V35.14l1.77,0,.16-.86c2.26,2.18,3.69.69,3.68-1.92Zm6.75-.72H26.24c0,.07,0,.14,0,.23v.95a.9.9,0,0,1-.88.92H25a.9.9,0,0,1-.88-.92V30.31h3.7V28.85a24.56,24.56,0,0,0-.11-2.74c-.27-1.93-2.85-2.24-4.16-1.25a2.54,2.54,0,0,0-.9,1.28,7.48,7.48,0,0,0-.27,2.28v3.21c0,5.34,6.18,4.58,5.45,0ZM19.56,14.19a1.53,1.53,0,0,0,.52.68,1.44,1.44,0,0,0,.88.26,1.32,1.32,0,0,0,.83-.27,2.06,2.06,0,0,0,.6-.81l0,.89h2.4V4.22H22.87v8.34a.79.79,0,1,1-1.58,0s0,0,0,0V4.22h-2v7.23c0,.92,0,1.53,0,1.84a3.26,3.26,0,0,0,.21.89ZM12.28,8.13a9.4,9.4,0,0,1,.24-2.41,2.69,2.69,0,0,1,.88-1.39A2.47,2.47,0,0,1,15,3.81a2.86,2.86,0,0,1,1.43.34,2.4,2.4,0,0,1,.92.88,3.58,3.58,0,0,1,.45,1.11A9.42,9.42,0,0,1,18,7.89V10.6a15.45,15.45,0,0,1-.11,2.19,3.54,3.54,0,0,1-.47,1.3,2.26,2.26,0,0,1-.92.89,2.8,2.8,0,0,1-1.3.29A3.43,3.43,0,0,1,13.75,15a1.91,1.91,0,0,1-.89-.74,3.42,3.42,0,0,1-.45-1.2A12.06,12.06,0,0,1,12.28,11V8.13Zm1.88,4.26a1,1,0,0,0,1,1.1,1,1,0,0,0,1-1.1V6.69a1,1,0,0,0-1-1.1,1,1,0,0,0-1,1.1v5.7ZM7.52,15.27H9.78V7.05l2.68-7H10L8.56,5.24,7.12,0H4.66L7.51,7.06Z" fill="#1d3f51"/></svg>