<svg xmlns="http://www.w3.org/2000/svg" width="461.12" height="374.63" viewBox="0 0 461.12 374.63"><title>comprendre</title><path d="M448.31,267.8a21.8,21.8,0,0,1-3.58-1.76c-2.81-1.62-2.82-3.54-.33-5.42a31.26,31.26,0,0,1,4.31-2.5c5.79-3,8.54-7.79,7.84-14.31a57,57,0,0,0-1.77-9.78c-3.24-11.14-7.83-14.19-19.33-13.41-2.33.16-4.69,0-7.4,0a16.12,16.12,0,0,1,.75-3.06,23.82,23.82,0,0,1,2-2.87c7.21-9.3,7.16-12.91-.37-21.82-1.29-1.52-2.66-3-4.08-4.4-8.54-8.51-15.61-8.83-25.1-1.56-2.21,1.69-5.08,2.51-7.65,3.72-.63-2.73-1.84-5.46-1.81-8.18.16-13.26-7.9-21.51-21.18-21.42-6,0-10.23,2.72-12.48,8.2-1.32,3.21-1.7,6.87-3.33,9.88-1.09,2-3.62,3.25-5.5,4.83-1.6-1.91-3.56-3.62-4.71-5.76-1.71-3.2.9-4.15,3.28-5.32,10.19-5,13.31-13.14,9.18-23.49-.31-.77-.7-1.52-.94-2.31-1-3.36.34-4.4,3.53-3.52,1.28.36,2.52.84,3.77,1.29,9.1,3.23,15,1,19.5-7.54a60.71,60.71,0,0,0,3.73-8.69c2.24-6.54.87-10.27-4.78-14.15-1.67-1.15-3.25-2.44-5.67-4.27,3.61-1.11,6.3-1.55,8.6-2.74,2.57-1.32,5.55-2.82,7-5.1,7.11-10.81.66-26.52-11.7-29.42a15.8,15.8,0,0,1-3.41-1.75c.67-1.22,1-2.86,2.06-3.61,9.41-6.9,10.82-15,2.17-26.85-5.22-7.17-9.89-8.28-18.22-5.14-1.65.62-3.61.41-5.43.58.1-1.89-.18-3.91.37-5.66,2.64-8.38,1.4-13.1-5.57-18.34a32.61,32.61,0,0,0-7.81-4.34c-8.17-3.13-13.27-.62-16.4,7.58-.41,1.08-1.49,1.91-2.26,2.85-.68-1-1.87-1.85-2-2.87C322.56,5.19,316.17.23,304,0c-10.26-.17-14.62.65-13.16,13.27.17,1.5-.92,4.4-1.69,4.49a10.76,10.76,0,0,1-5.81-1.43c-1.23-.63-2-2.19-3-3.32-5.8-6.57-14-7-22.43-1.31-6.94,4.72-7.61,9.14-3.43,17.86.88,1.83.08,4.46.05,6.73-1.87-.28-4-.06-5.56-.91-7.42-4.06-13.54-2.67-17.88,4.55-1.71,2.84-3,5.94-4.69,8.8-5.55,9.43-4.53,12.77,5.23,17.45a33.81,33.81,0,0,1,4.79,3.38l-.5,1.5a34.11,34.11,0,0,1-4.57.83c-13.7.66-17.93,4.94-16.15,18.31,1.72,12.83.62,15.82,16,15.51a3.63,3.63,0,0,1,2.87,1.78,3.8,3.8,0,0,1-1.12,3.2c-2.33,2.13-5.06,3.82-7.37,6-5.5,5.13-6.13,10-2.42,16.53.45.79.87,1.59,1.25,2.28-3.63,2.27-6.72,4.61-10.16,6.16a6.77,6.77,0,0,1-5.64-.47c-4.4-3-5.33-7.38-3.08-12.31a68.26,68.26,0,0,1,3.42-6.09c3.33-5.67,3.37-11.15-1.62-15.39a58.07,58.07,0,0,0-15.62-9.22c-7.35-3-14.05-.86-19.27,5.3-2,2.41-3.94,5-6.16,7.22-3.38,3.42-7.61,3-11.68,1.75-3.88-1.21-2.92-4.75-3-7.64-.07-3.66.06-7.33,0-11,0-4.5-2.35-7.14-6.73-7.93a30.12,30.12,0,0,0-6-.66c-16.19.37-31,1.59-32.51,23.56-.24,3.52-2.5,4.61-5.8,4.77-4.06.19-4.37-2.62-5.08-5.42-2.87-11.31-10.11-15.62-21-11.21-6,2.44-11.51,6.53-16.57,10.69-5.39,4.42-6.36,10.68-4.23,17.31.92,2.85,2.54,5.63,2.69,8.51a10.59,10.59,0,0,1-2.5,6.95c-1,1.1-3.92,1-5.78.62-2.88-.66-5.54-2.24-8.38-3.16-6.18-2-11.89-1.2-16.57,3.61A43.2,43.2,0,0,0,11.85,161c-1.7,6.63-.16,12.18,4.53,16.94,2.57,2.61,5.42,4.94,8,7.57,4.33,4.46,3.34,8-2.65,9.75a36.36,36.36,0,0,1-4.89.91c-8.55,1.24-14.1,5.89-15.48,14.53A88.56,88.56,0,0,0,0,227.55c.32,9.46,4,13.51,13.19,16.33,4.68,1.44,9.29,3.13,13.92,4.71l.54,2c-3.42,2.64-6.72,5.47-10.3,7.88-7.46,5-9.49,10.35-6.4,18.84a101,101,0,0,0,5.74,13.26c6,11.22,13.86,14.15,25.76,10,1.88-.66,3.71-1.85,5.62-2,2.76-.19,6.55-.61,8.08.9s.74,5.26.75,8c0,.92-.69,1.85-1.07,2.77-6,14.37-1.3,26.35,12.84,32.88,8.34,3.85,15.6,2.3,21.39-4.85,2.51-3.1,4.64-6.5,7-9.75,2.5-3.48,5.92-5.26,10-3.5,4.19,1.83,5.21,5.79,4.75,10.08-.3,2.81-1.1,5.58-1.16,8.38-.15,6.73,3.28,10.32,10,10.28s13.33-.21,20-.82c13.51-1.23,18.05-6.56,18.31-20.14,0-1.59,1.92-3.48,3.44-4.51.49-.34,2.81,1.37,3.81,2.56,1.49,1.76,2.48,3.93,3.81,5.84,3.92,5.65,9.73,7.76,15.76,5.39a92.2,92.2,0,0,0,20.94-11.23c7.83-5.78,9.18-14.28,5.47-23.33a45.9,45.9,0,0,1-2.66-7c-.61-2.68.4-4.39,3.52-3.06,2.29,1,4.51,2.13,6.74,3.24,9.87,4.89,18.43,3.05,25.28-5.41,2.2-2.72,4.46-5.39,6.66-8.11,4.44-5.47,7.71-11.29,4.9-19.39,4.78,1.61,8.67,3.09,12.66,4.22,3.77,1.07,3.44,3.81,2.41,6.25-.43,1-2.62,1.56-4.11,1.88-6.74,1.44-12.24,5.42-11.81,9.55a172.6,172.6,0,0,0,3.27,19.6c.93,4.22,4.08,7.37,8.35,7.56,5.18.23,10.4-.84,15.61-1.23a30.7,30.7,0,0,1,4.51.31c-.21,1.85,0,3.88-.74,5.49-.64,1.39-2.33,2.3-3.56,3.43-7,6.45-7,11.21,0,17.47,2.73,2.44,5.42,4.93,8,7.5,8.94,8.83,15.95,8.51,24-1,1-1.19,3.46-2.77,4.11-2.36,1.91,1.2,4,3.08,4.61,5.12s-.53,4.54-.54,6.84c0,2.76-.55,6.09.74,8.17,4.37,7,11.66,8.19,19.26,7.94,6.23-.2,10.75-3.15,13.24-8.94,1.05-2.44,1.45-5.41,3.12-7.27a14.11,14.11,0,0,1,7-3.7c.73-.18,2.84,2.48,3.24,4.1,4.15,16.68,8.71,14.24,21,9.6,11.69-4.42,14.83-10,13.82-22.21-.16-1.91,1.1-3.93,1.7-5.9,1.56,1.08,3.52,1.85,4.62,3.28,4.44,5.83,9.43,7.43,15.65,4.63,14.12-6.35,18.15-21.1,9.34-33.46-1.08-1.52-1.91-4.32-1.21-5.68s3.52-2.13,5.36-2c12.59.61,16.93-2.18,19.76-14.52C463.51,277,458.77,271.48,448.31,267.8ZM232.54,123.4c2.64-2,5.37-4,7.88-6.12,2.8-2.42,6.41-4.37,4.53-9.37-3.44-9.12-6.52-12.28-12.51-12.23-2.19,0-6,.27-6.31-.62a32.62,32.62,0,0,1-1.79-10.65c0-.87,2.27-2.23,3.7-2.61,2.05-.55,4.29-.39,6.45-.58,6.41-.54,9.33-2.69,10.72-7.86a12.78,12.78,0,0,0-5.43-13.92c-1.8-1.15-3.81-2-6.22-3.2,2-3.9,3.67-7.84,6-11.36.61-.94,3.73-1.43,4.71-.74,6.69,4.73,11.15,4.73,16.58-.37s6.2-10.83,2.56-18.19c-1.1-2.22-3.06-4.38.5-6.15,3.12-1.55,6.4-3.85,9.28.15,3.83,5.31,8.35,8.84,15.4,8.3,7.47-.56,11.22-4.06,11.6-11.56.1-2,0-3.95,0-5.78,9-2.28,12.23-.32,14,8.14,1.31,6.15,4.45,8.88,10.62,9.23,7,.4,10-1.43,11.74-8,1-3.74,2.73-4,5.77-2.51,6.66,3.16,7.68,5.18,5.48,11.92-1.81,5.56-1.06,10.53,3.3,14.65,4.1,3.86,8.93,3.68,13.46,1.37s7.33-1.5,9.85,2.78c3.46,5.88,3.34,7-1.24,11.52-2.32,2.29-4.8,4.85-6,7.79-2.52,6.35,1.67,12.65,9,14.49,7.48,1.89,8.09,2.62,8.53,10.24.21,3.56-.92,6.09-4.81,6.91a34.33,34.33,0,0,0-6.62,2.15c-7.42,3.27-8.9,9.91-3.62,16.12a9.87,9.87,0,0,0,3.35,2.93c5.68,2.31,4.87,5.86,2.63,10.28-3.28,6.5-4.07,7-11.11,4.54-4.36-1.52-8.71-2.41-13,.17-5.83,3.52-7,8.89-3.68,17.13,2.3,5.8,1.51,8.44-3.19,11.47-2.39,1.54-4.31,1.44-6-1-1.33-1.91-2.62-3.86-4-5.7-4.21-5.4-9.65-7.18-15.39-5.12s-8.79,7.09-8.59,13.77c0,1.32.17,2.63.29,4.36-2.71,0-4.84,0-7,0-8.11-.06-8.18-.07-8.28-8-.08-5.79-4.92-6.47-8.66-8.23-4-1.88-7.06.1-9.66,3-1.81,2-3.52,5.89-5.27,5.89-3,0-6.09-2.22-9-3.82-3.78-2.11-4.78-5.1-2.78-9.25a17,17,0,0,0,1.93-7.63c-.26-7.08-7.06-11.21-13.73-7.8-10.2,5.21-8.72,3.87-16.64-5.41C230.18,126.81,230.42,125,232.54,123.4Zm97,41.67-.42,1.77-7.35,3.09-1.91-1.26,2.67-7.55Zm-49.44,64.55-1.31.62-13.53-.82c.54-5.85,1-11.44,1.57-17,1-10-5.13-15-14.31-17.22-3.66-.89-7.58-.76-11.39-1-2.66-.16-6.17.22-6.17-3.31,0-2.58,1.71-5.36,3.25-7.67.79-1.19,2.82-1.62,4.36-2.23,7.17-2.84,13.58-6.19,11-16,21.49,9.82,21.49,9.82,32.23-1.71-.18,6.11,0,11.84,5.79,14,4.7,1.75,9.8,2.45,14.3,3.52L308,195.12l-1,1c-4.93-3.94-9.69-9.63-16.44-6.82-4.4,1.83-8.4,5.24-11.84,8.69C268.33,208.39,268.07,219.11,280.12,229.62Zm-31.49-72.69-4.85-9.88,8.17-3.41ZM248.51,259c-3.82-2.79-7.85-5.32-11.28-8.5-.93-.86-.71-4.08.16-5.51,1.21-2,3.37-4.41,5.4-4.69,3.28-.45,6.79.68,10.43,1.17Zm8.92-46.17c-.65,4.44-1.38,8.87-1.83,13.33-.47,4.73-3.48,5.82-7.35,5.09-5-.95-10.57-2.39-14.07,1.9a58.6,58.6,0,0,0-8.67,15.91c-.67,1.73,1.43,5.37,3.26,7.06,4.39,4,9.49,7.31,14.1,11.14,6.33,5.25,6.48,7.16,1.49,13.55-2.25,2.89-4.65,5.66-7,8.49-4.23,5.16-6.89,5.75-13,2.95a84.44,84.44,0,0,0-9.55-4.21c-8.51-2.68-16,3.34-15.08,12.26.38,3.54,1.94,7,3.26,10.38,2.33,5.95,1.78,9.89-3.49,13.56a79.61,79.61,0,0,1-15.26,8.27c-1.73.71-5-.7-6.73-2.12s-2.67-4.14-4-6.25c-4-6.37-9.07-7.84-15.79-4.65-9.07,4.3-9.61,4.8-8.35,14.87.63,5-1.61,7.7-5.73,8.27-7.65,1.07-15.42,1.3-22.88,1.86,0-6.08.6-11.25-.15-16.21a15,15,0,0,0-11.76-12.87c-6.88-1.66-13.34-.23-18.06,5.57-2.83,3.48-5.18,7.35-8,10.87-3.28,4.14-6.24,4.59-10.92,2.06-8.93-4.82-11.08-10.86-7.08-20.24,2.25-5.28,4.27-10.59,2-16.35-3.05-7.67-11.29-11.23-19.9-8.65-3.5,1-6.94,2.29-10.37,3.54-3.9,1.42-7.26.2-9.1-3.08a105,105,0,0,1-7.62-16.68c-.51-1.45,1.49-4.34,3-5.84,3.43-3.31,8-5.65,10.86-9.32,5.57-7,3.71-14.19-4.34-18A67.27,67.27,0,0,0,16.64,235c-5-1.24-7.42-4.16-7.3-9.18A67,67,0,0,1,10,215.42c1.4-7.69,2.39-8.41,10.22-9.9a37.61,37.61,0,0,0,7.2-1.95c9.29-3.8,12.26-14.43,6-22.25-2.89-3.61-6.53-6.63-9.89-9.85-2.7-2.59-3.6-5.53-2.11-9a58.16,58.16,0,0,1,3.31-7.23c5.8-9.65,7.57-10.2,18-5.82C48.91,152,54.92,153,60.45,148c5.77-5.23,7.5-11.57,5-19-.1-.32-.27-.61-.36-.93-1.06-4-4.52-8-1.4-12.27A26.1,26.1,0,0,1,80.2,105.32c1.53-.29,3.71,1.41,5.16,2.68.85.74.88,2.43,1.24,3.71,2.51,8.91,6,11.7,14.34,11.39,9.25-.35,13.14-3.67,14.95-12.82.32-1.63.57-3.28.84-4.91.84-4.94,3.55-8.35,8.54-9.2,4.4-.75,8.91-.88,13.37-1.27,2.54-.22,3.62.9,3.51,3.5-.15,3.49-.18,7-.06,10.49.22,6.65,3.44,10.8,9.81,12.9,9,3,17.32.63,23.33-6.56a14.8,14.8,0,0,0,1.27-1.54c6.27-10,12.63-8.43,22.62-1.14,2.38,1.74,2.62,3.83.91,6.47a38.2,38.2,0,0,0-4.19,8.46c-3.2,9.46,1.58,20.49,10.88,23.9,3.06,1.12,7.11.45,10.46-.38,2.61-.65,4.84-2.81,7.26-4.28,3.6-2.2,6.65-1.62,9,1.9a25,25,0,0,1,1.52,2.58c3,5.87,6.06,11.76,9.41,18.26-3,1.37-5.83,2.62-8.62,3.94-5.6,2.65-9.55,6.79-10.58,13-1.74,10.46,4,17,14.62,17.36a68.26,68.26,0,0,1,12.33,1.31C256,205.91,258,208.63,257.43,212.85ZM448.13,296c-1.37,1.46-4.82,1.58-7.21,1.34-9.23-.91-15.55,3-16.18,12-.27,3.83,1.82,8.33,4,11.72,4.16,6.33,1.22,16.46-6.21,18.09-1.31.29-3.61-1.67-4.71-3.15-4.43-5.95-8.85-7.35-15.57-4.47-5.63,2.42-8.06,6.46-7.58,12.63.93,11.9-1.16,14.62-13.57,17-.69-1.87-1.48-3.81-2.11-5.79-1.7-5.32-4-10-10.52-10.4-8.17-.56-14.61,2.6-17.55,8.79a54,54,0,0,0-2.4,6c-1.33,4-4.11,5.3-8.12,4.87-7.09-.77-7.6-1.33-6.84-8.35,1-8.92-1.64-14.44-8.52-18-7-3.63-11.66-2.68-16.7,3.43s-5.39,6.15-11.07.55c-2.83-2.79-5.74-5.5-9.19-8.8,2.25-2.12,4.36-3.79,6.07-5.78,6.48-7.52,3.59-20.13-5.26-22-3-.65-6.59.17-9.7,1.05-10.21,2.89-11.25,2.39-13.23-8.06-.37-2-1.12-4.33-.37-5.85s3.06-2.72,4.87-3c7-1.24,10.58-4.89,11.12-12,.13-1.66-.05-3.36.24-5,.83-4.73-1.61-7.15-5.69-8.56-4.55-1.58-9.1-3.16-13.64-4.78-3-1.08-4.19-3-2.93-6.2,1.41-3.55,2.17-7.51,4.24-10.59,1.26-1.88,4.36-3,6.83-3.45s4.92.43,7.41.59c3.88.25,7.39-.62,9.42-4.29a11.48,11.48,0,0,0-.25-11.88,16.45,16.45,0,0,0-1.47-2c-6.76-8.48-6.67-10.38.93-18.29,6-6.23,6.07-6.24,12.82-.75,4.81,3.91,8.9,4.22,13.12,1,6.67-5.1,8-8.21,4.66-14.23-2.34-4.28-.8-6.7,2.78-8.35,4.34-2,8.91-3.5,13.93-5.43.39,1.85.74,3.4,1,5,1.31,7,6.75,12.38,13.27,13s12.73-3.36,15.3-10.35c.86-2.33,1.42-4.78,2.14-7.16,1-3.22,2.25-5.93,6.46-5.45,4.84.55,9.61,4,9.83,7.68.19,3.15-.07,6.33,0,9.49.24,10.2,10.11,16,19.12,11.09a56.91,56.91,0,0,0,7.63-5.6c3.12-2.45,6.05-2.4,8.92.36,1,.93,1.92,1.85,2.85,2.8,6.41,6.57,6.32,6.51,1.24,14.07a24.75,24.75,0,0,0-3.22,7.22c-1.57,5.75,1.63,10.87,7.52,11.83a38.41,38.41,0,0,0,10.43.29c4.88-.56,7.64,1.26,8.77,5.92.43,1.77,1,3.51,1.42,5.29,1.06,4.41.12,7.81-4.56,9.63a17.86,17.86,0,0,0-5,3.22,12.16,12.16,0,0,0,1,19.33,36.81,36.81,0,0,0,5.69,3.09C451.94,280.11,454.25,289.48,448.13,296Z" fill="#fc4c02"/><path d="M133.27,168.58a48.33,48.33,0,0,0-48.35,48.75c.1,27.15,21.79,48.41,49.29,48.3,26.15-.11,47.54-21.9,47.59-48.49A48.34,48.34,0,0,0,133.27,168.58Zm-.37,11.22L95.73,210.37C95.67,196.1,113.81,177.25,132.89,179.8ZM98.08,232.26c-2.79-4.27-3.7-8,0-11.6,5.33-5.22,10.57-10.53,16.13-15.49q13.55-12.09,27.53-23.7c1.3-1.08,3.64-.92,5.51-1.33l1.19,2.2C130.79,198,118.83,219.22,98.08,232.26Zm4.37,8.3q-.51-.68-1-1.4c22.82-13.22,35.05-36.53,54.87-53.42l8,7.37c-7,7.7-13.8,14.93-20.28,22.44Q133.27,228,123,240.92c-3.26,4.09-4.63,8.64-.87,13.27A36.38,36.38,0,0,1,104.43,243Q103.41,241.83,102.45,240.56Zm43,12.64c5.72-12.52,17-19.24,24.93-29.3C172,235.38,156.18,252.16,145.5,253.2ZM169.38,209A152.65,152.65,0,0,1,157,226.69c-4.59,5.65-10.22,10.47-14.64,16.24-2.53,3.3-3.53,7.77-5.93,13.38l-13.79-2c3-1,4.89-2.62,5.52-6.31.46-2.7,2.76-5.27,4.71-7.49,11.26-12.88,22.66-25.63,34-38.41a16.13,16.13,0,0,1,2.66-1.5C169.56,204,170.51,207.1,169.38,209Z" fill="#fc4c02"/><path d="M359.64,243.59a24.05,24.05,0,1,0,24,24.05A23.87,23.87,0,0,0,359.64,243.59Zm.1,40.45c-8.68.09-16.25-7.4-16.36-16.18a16.34,16.34,0,0,1,15.9-16.5A16.57,16.57,0,0,1,376,267.65C376,276.23,368.34,283.95,359.74,284Z" fill="#fc4c02"/><path d="M304.24,117.86a27.48,27.48,0,0,0,27.93-27.71,27.8,27.8,0,1,0-55.6-.25A27.49,27.49,0,0,0,304.24,117.86Zm.45-48.57c11.71.18,20.51,9.31,20.44,21.21A20.73,20.73,0,0,1,304,111.13c-11.55-.14-20.49-9.45-20.44-21.28A20.53,20.53,0,0,1,304.69,69.29Z" fill="#fc4c02"/><path d="M358.37,260c-4.16,0-6.51,2.89-6.38,7.74.12,4.59,2.4,7.07,6.52,7.08s6.24-2.39,6.16-7.21C364.57,262.11,362.8,260,358.37,260Z" fill="#fc4c02"/><path d="M304.15,104.21a14.06,14.06,0,1,0-14-13.91A14,14,0,0,0,304.15,104.21Zm.05-21.46a7.89,7.89,0,0,1,7.59,7.1,7.43,7.43,0,0,1-14.87.33A8,8,0,0,1,304.2,82.76Z" fill="#fc4c02"/></svg>