<svg xmlns="http://www.w3.org/2000/svg" width="450.03" height="317.53" viewBox="0 0 450.03 317.53"><title>dialogue</title><path d="M448.27,92.21c-1.19-13.22-3.71-26.32-5.46-39.5-2.22-16.78-8.55-31-25.1-38a149.55,149.55,0,0,0-26-8.34c-17.5-3.85-35.4-2.93-53.2-3.27C312.06,2.56,285.62,1.29,259.18.2c-26.74-1.1-52.73,2.27-77.84,12-16.69,6.44-26.57,18.42-29.94,35.73C150.14,54.36,149.92,61,149.18,68l-13.76.73c-28.58,1.49-57.19,2.59-85.74,4.58C28.69,74.79,13,84.84,7.33,106a190.09,190.09,0,0,0-6.09,38.24c-1.5,26.74-2.45,53.57,2.07,80.2,3.68,21.68,14,33.09,33.54,35.08,22.17,2.26,44.43,3.82,66.68,5.08,25.26,1.43,50.56,2.27,75.84,3.18,4.14.15,4.72,1.57,4.48,5.48-.8,12.94-1.16,25.9-1.3,38.87,0,1.85,1.76,4.87,3.29,5.3a7.55,7.55,0,0,0,6.33-2c5.35-5.92,10.19-12.3,15.28-18.46,4.34-5.26,8.57-10.63,13.19-15.64s10.59-8.55,17.88-8.83c6.15-.23,12.29-.57,18.44-.78,18.63-.64,29.12-7.8,34.72-24.52a106.55,106.55,0,0,0,4.08-18.44c1.14-7.83,1.62-15.75,2.43-24,4.53,0,8.67.1,12.81,0,15.53-.43,28.11,5,37.71,17.6a245.77,245.77,0,0,0,17.8,20.22c2.88,3,6.28,7.05,11.1,5s4.84-7.27,5.2-11.63c.67-8,.73-16,1.21-23.92.14-2.3-.35-5,3.57-5.34,7.57-.72,15.12-1.81,22.62-3.05,19.73-3.26,31.88-14.51,35.9-34.34C451.32,143.69,450.57,117.94,448.27,92.21ZM287.56,200.87c-.89,11.43-2.12,22.84-3.24,34.25a22.13,22.13,0,0,1-.81,3.39c-4.52,17.2-11.27,22.44-29,22.78-6.32.12-12.66.4-18.95,1A33.12,33.12,0,0,0,214.17,273c-5.89,6.32-11.2,13.18-16.76,19.82-1.25,1.49-2.43,3-3.64,4.55l-1.51-.33q.5-8.29,1-16.57c.33-5.31.76-10.61,1-15.93.17-4.2-1.75-6.32-6.25-6.51-28.94-1.21-57.89-2.31-86.81-4-20.93-1.2-41.82-3-62.7-4.89C25.29,248,17.76,242,15.2,228.95A219.8,219.8,0,0,1,11,191.89c-.44-19,0-38,1.08-56.93.52-9,2.82-18.05,5.39-26.77,4.53-15.39,16-22.94,31.42-24.35,15.73-1.45,31.54-2.12,47.32-2.91,17.46-.87,34.94-2.26,52.39-2q44.9.59,89.77,3.11c10.17.56,20.43,3,30.21,6,12.17,3.71,18.34,13.08,19.79,25.65C291.76,142.74,289.83,171.81,287.56,200.87ZM439,142.94a168.61,168.61,0,0,1-5.1,30.36c-2.47,10-9.68,16.41-19.72,18.49a299.73,299.73,0,0,1-29.9,4.38c-6.37.66-9.52,2.9-10,9.32-.49,7.14-.68,14.3-1,21.45-.09,1.92-.26,3.83-.39,5.74L371,234c-1.16-1.73-2.19-3.56-3.49-5.17-4-4.92-8.22-9.64-12.09-14.65-10.83-14-25.47-19.73-42.72-19.9-4.45,0-8.9,0-14,0,.41-9.31,1.12-17.9,1.09-26.49-.07-17.3,0-34.64-1-51.9-1.28-23-13.1-36.69-36.15-40.44-19.32-3.14-38.95-4.56-58.49-6.05-13.27-1-26.62-.93-39.94-1.13-3.36-.05-4.36-1.46-4.29-4.53.48-22.75,9-36.25,28.9-43.35,27.33-9.72,55.25-10.62,83.71-9.18,23.59,1.19,47.22,1.47,70.84,2,20.12.45,40.26.22,59.77,6.55,15.82,5.13,27,14.22,29,31.82.54,4.79,1.07,9.6,2,14.32A311.66,311.66,0,0,1,439,142.94Z" fill="#fc4c02"/><path d="M40.78,210.33H260.49v-6.82H40.78Z" fill="#fc4c02"/><path d="M43.68,168.33H260.5v-6.83H43.68Z" fill="#fc4c02"/><path d="M260.5,119.59H44.68v6.83H260.5Z" fill="#fc4c02"/><path d="M196.68,53.41H412.5V46.59H196.68Z" fill="#fc4c02"/><path d="M310.68,95.41H412.5V88.59H310.68Z" fill="#fc4c02"/><path d="M318.56,137.4h93.82v-6.79H318.56Z" fill="#fc4c02"/></svg>