<svg xmlns="http://www.w3.org/2000/svg" width="415.94" height="344.72" viewBox="0 0 415.94 344.72"><title>envol</title><path d="M389.39,299a4.17,4.17,0,0,0,2.06-3.36,4.68,4.68,0,0,0-2.61-3.06c-1.28-.55-2.95-.23-4.44-.22-38.15.25-76.33-.22-114.46,1-37.92,1.18-75.83,3.53-113.68,6.31-29.9,2.2-59.72,5.42-89.75,4.67-10.43-.26-20.84-1.11-31.44-1.7V289.26a21.87,21.87,0,0,1,3.27-.15,281.17,281.17,0,0,0,61.81-.06,297.1,297.1,0,0,0,106.8-32.2c29.15-15.09,54-35.83,77.82-58.1,35-32.75,60.66-70.66,66.33-119.62,1-8.92,1.44-17.91,2-26.88.19-3.17-1.2-5.64-4.74-5.83S343,48,342.9,51.48c-.06,1.66-.32,3.32-.37,5-.94,28.17-6.82,55.06-20.64,79.9-12.72,22.86-30.31,41.66-49.37,59.24-24,22.12-49.47,42-79.15,56.14A287.8,287.8,0,0,1,82.92,279.9c-15.87.78-31.84-.42-48.31-.72,0-3.33,0-5.29,0-7.25,0-50.17.2-100.33,0-150.5-.08-22-.83-44-1.42-65.94-.23-8.48-.76-17-1.42-25.43a5.53,5.53,0,0,0-2.56-3.63,3.6,3.6,0,0,0-3.47.88,8.93,8.93,0,0,0-.87,4.7c.63,19,1.79,37.94,1.94,56.92.36,45,.26,90,.32,135,0,26.17.07,52.33-.05,78.5,0,4.24,1.29,6.61,5.75,7,9.29.73,18.55,2,27.84,2.36,42.74,1.47,85.08-4.41,127.6-7.19,29.23-1.91,58.5-3.69,87.78-4.33,35.82-.79,71.66-.32,107.49-.43A15.89,15.89,0,0,0,389.39,299Z" fill="#fc4c02"/><path d="M413,295c-6.9-5.21-14.07-10.07-21.13-15.07-2.2-1.55-4.69-2.69-6.46.2s.13,4.79,2.65,6.41c5.15,3.32,10.15,6.87,15.72,10.66-7,4-13.18,7.48-19.34,11.06-2.42,1.41-4.79,3.36-2.87,6.36s4.51,1.38,7,.1c7.65-4,15.32-7.91,23.14-11.51C416.72,300.92,417.45,298.37,413,295Z" fill="#fc4c02"/><path d="M35.83,26.05c1,1.5,3.7,3,5.25,2.72,2.87-.57,2.9-3.25,1.53-5.56-4.14-7-8.16-14-12.64-20.76-2.3-3.46-5.3-3.15-7.48.34-3.16,5.06-6.36,10.13-9,15.45-.8,1.59-.67,4.94.43,5.93,2.31,2.07,4.52.4,6-2.06,2.08-3.54,4.22-7,7.11-11.84C30.32,16.36,32.79,21.39,35.83,26.05Z" fill="#fc4c02"/><path d="M27.44,330.45c-1.09,1-2.45,1.94-3.16,3.2-.49.87-.09,2.25-.09,3.4h0c0,1.15-.37,2.48.08,3.41a27.81,27.81,0,0,0,3.09,4.26c1.09-1.37,2.76-2.6,3.14-4.15a15.21,15.21,0,0,0,0-6.84C30.15,332.47,28.48,331.53,27.44,330.45Z" fill="#fc4c02"/><path d="M102.7,335.73a1.45,1.45,0,0,0-.15-.53c-.89-1.66-2.07-3.17-3.13-4.74a28.78,28.78,0,0,0-3.19,4.68c-.48,1.1-.06,2.59-.1,3.91-.08,2.55-.14,5.53,3.2,5.56s3.4-2.9,3.27-5.49c0-.49,0-1,0-1.48S102.77,336.31,102.7,335.73Z" fill="#fc4c02"/><path d="M174.61,337.94c0-.82.29-1.8-.06-2.44-1-1.76-2.19-3.37-3.31-5-1,1.6-2.49,3.08-3,4.83a10.75,10.75,0,0,0,0,5.85c.44,1.39,2.1,2.39,3.22,3.56a17.3,17.3,0,0,0,3-3.36c.47-.91.09-2.26.09-3.41Z" fill="#fc4c02"/><path d="M243.38,330.78c-4.27,0-3.21,4-3.19,6.82s-1.13,6.84,3.19,6.8c1.48,0,2.92-3.9,4.93-6.81C246.3,334.68,244.84,330.78,243.38,330.78Z" fill="#fc4c02"/><path d="M319.71,335.53a1.93,1.93,0,0,0-.18-.65,36.63,36.63,0,0,0-2.94-4.4c-1.15,1.48-2.78,2.81-3.32,4.48a10.72,10.72,0,0,0,0,5.85c.4,1.45,1.89,2.61,2.89,3.9a30.87,30.87,0,0,0,3.36-4,1.53,1.53,0,0,0,.2-.62,21.6,21.6,0,0,0-.12-2.29C319.6,337.07,319.78,336.24,319.71,335.53Z" fill="#fc4c02"/><path d="M391.65,335.19a1.67,1.67,0,0,0-.11-.31,36.63,36.63,0,0,0-2.94-4.4c-1.15,1.48-2.78,2.81-3.32,4.48a10.72,10.72,0,0,0,0,5.85c.4,1.45,1.89,2.61,2.89,3.9a30.87,30.87,0,0,0,3.36-4,1.29,1.29,0,0,0,.13-.29,10.32,10.32,0,0,0-.05-2.62A11.61,11.61,0,0,0,391.65,335.19Z" fill="#fc4c02"/><path d="M11,44.6a4,4,0,0,0,2.52-3c0-1.05-1.33-2.53-2.44-3.08s-2.61-.11-3.94-.11v-.08c-1,0-2.18-.34-3,.07A32.31,32.31,0,0,0,0,41.53c1.34,1.09,2.55,2.77,4.07,3.14A16.13,16.13,0,0,0,11,44.6Z" fill="#fc4c02"/><path d="M3.54,91.5c-1.37.41-2.37,2.07-3.54,3.17a25.31,25.31,0,0,0,3.71,3.06,1.44,1.44,0,0,0,.3.13,11.14,11.14,0,0,0,2.65,0,10.81,10.81,0,0,0,2.65.05,1.41,1.41,0,0,0,.3-.13,31.2,31.2,0,0,0,4.08-3.24c-1.4-1-2.67-2.57-4.24-3A11.05,11.05,0,0,0,3.54,91.5Z" fill="#fc4c02"/><path d="M2.52,150.59c1.06.54,2.6.12,3.93.12v0c1.5,0,3.15.39,4.45-.12,1.14-.45,2.56-1.88,2.6-2.93s-1.36-3-2.33-3.1a35.05,35.05,0,0,0-8.95,0,3.52,3.52,0,0,0-2.06,2.81A4.79,4.79,0,0,0,2.52,150.59Z" fill="#fc4c02"/><path d="M2.93,196.55a4.7,4.7,0,0,0-2.72,3.27c-.13.83,1.48,2.33,2.63,2.83s2.62.11,3.95.11v.06c.83,0,1.86.31,2.46-.06a49.58,49.58,0,0,0,4.45-3.37c-1.44-1-2.75-2.52-4.34-2.9A13.38,13.38,0,0,0,2.93,196.55Z" fill="#fc4c02"/><path d="M2.89,249.55a4.68,4.68,0,0,0-2.67,3.3c-.12.83,1.51,2.3,2.66,2.8s2.62.11,4,.11v.05c.83,0,1.86.31,2.46-.06a48.83,48.83,0,0,0,4.4-3.41c-1.45-1-2.78-2.48-4.37-2.87A13.39,13.39,0,0,0,2.89,249.55Z" fill="#fc4c02"/><path d="M11.22,302.58c-1-.55-2.6-.12-3.93-.12v0c-1.5,0-3.14-.38-4.45.12C1.7,303,.26,304.34.2,305.38s1.28,3,2.2,3.16a35.1,35.1,0,0,0,8.95,0,3.54,3.54,0,0,0,2.17-2.76A4.81,4.81,0,0,0,11.22,302.58Z" fill="#fc4c02"/></svg>