<svg xmlns="http://www.w3.org/2000/svg" width="606.58" height="298.69" viewBox="0 0 606.58 298.69"><title>equipe</title><path d="M349.62,267.3c4.16-.18,5.47-2.15,4.14-6.22-1-3-2.08-6-3.18-8.91-10-26.76-19.81-53.56-30-80.24-1.86-4.88-5.42-9.11-7.36-14-5.11-12.8-9.86-25.76-14.48-38.75-.64-1.8.32-4.15.5-6.25.25-2.85,1.41-6,.53-8.48C297,96.73,291,94.3,283.46,97.63s-15.06,4-22.62.33c-3.34-1.6-6.88-3.95-9.93-.31-3.54,4.22-7.6,8.42-6.09,15a15.27,15.27,0,0,1-.12,7.47c-7.25,24.33-19.53,46.66-28,70.52-8.19,23-17.32,45.68-26,68.52-2.53,6.67-1.64,7.93,5.32,8.17,2.83.1,5.69-.07,8.48.27,4.42.54,6.45-1.4,8-5.5,7.81-21.2,16-42.27,23.85-63.46,1.4-3.79,3.08-4.53,7-3.59,18.52,4.46,37.2,5.29,55.75.29,4.16-1.12,5.77-.51,7.23,3.59,6.94,19.57,14.23,39,21.36,58.53,4.3,11.76,1.66,10,14.51,9.88C344.64,267.32,347.13,267.41,349.62,267.3ZM301.37,147.74c1.16,3.11,2.2,6.28,3.58,9.29,1.82,4,.67,5.92-4.41,6.18l-16.22-42.39,6.16-2.24C294.2,128.54,297.78,138.14,301.37,147.74Zm-7.28,19.53c-15.41,5.82-29.92,5.1-45.2.49,3.26-8.19,6.32-15.84,9.35-23.52,2.5-6.33,4.75-12.77,7.55-19a6.44,6.44,0,0,1,4.68-3.1c2.31-.12,6.23.45,6.8,1.83C283.1,138.08,288.4,152.38,294.09,167.27Zm-34.47-61.71c8.66,3.15,17.31,3.18,25.68-.79,4.27-2,6.49-.82,7.75,3.34-10.12,8.13-29.21,8.9-40.52,1.74C254.05,103.9,254.46,103.68,259.62,105.56Zm-21.25,52.8c4.46-11.45,8.87-22.92,12.88-34.53,1.59-4.61,3.57-5.58,8-2.34l-17,42.73C237.7,164,236.88,162.18,238.37,158.37Zm-16.56,57c-5,13.34-10.13,26.67-14.91,40.1-1.48,4.17-3.57,5.67-8.52,3.67l26.89-70.09,5.74,2.6C227.87,199.73,224.77,207.53,221.81,215.38Zm61.48-24.59c-16.37,1.3-32.52-.22-48.12-5.8-8.72-3.12-8.78-3.27-4.35-11.1.8-1.42,1.7-2.79,2.81-4.59a81.12,81.12,0,0,0,41.9,9.36,65.17,65.17,0,0,0,27.17-7.28c8.44-4.23,9-3.8,11.89,5.26.9,2.85,0,4.19-2.4,5.53A71.11,71.11,0,0,1,283.29,190.79Zm50.93,63Q323.73,225,313.17,196.27c-.57-1.54-1.12-3.09-1.86-5.11l6.58-3.55,27.55,71.6C336.88,261,336.83,260.93,334.22,253.78Z" fill="#fc4c02"/><path d="M147.05,202.16q-1-72.68-2-145.36c-.16-11.49-.34-23-.43-34.47,0-3.39-.52-6.45-4.4-7.37s-6.26,1.12-7.81,4.54c-1,2.27-2.23,4.47-3.46,6.64-16,28.42-32.58,56.53-47.88,85.32C51,168.05,27.54,227.75.9,286c-2.28,5-.15,8.45,5.6,8.91,18.41,1.48,36.84,2.64,53.77,3.83,4.84-.26,8.16-.52,11.48-.61q34.68-.9,69.36-1.7c4.74-.1,7.4-2.38,7.38-7.32,0-6.32-.34-12.64-.43-19Q147.52,236.13,147.05,202.16ZM132.61,288.9c-24.79.61-49.59,1.92-74.38,1.9-15.94,0-31.87-1.89-47.81-3a6.51,6.51,0,0,1-1.68-.78C47.2,199.14,84.32,110.69,136.93,29.73l.71,14.77c-1.63.24-2.86.15-3.78.64a17,17,0,0,0-3,2.58c1,.9,2,2.61,2.89,2.57,3.64-.15,4.15,2,4.15,4.72,0,3.46,0,6.92,0,9.24l-7,4.32,6.89,4.71V84.53l-6.89,4.18L138,93.16v12.38l-7.09,4.22,7.44,4.53v12.24l-7.44,4.15,7.73,4.56v12.34c-3,1.53-7.34,2.7-7.38,4-.15,5.15,5.07,1.49,7.57,3.82v12.83c-2.11,2.47-7.83-1.66-7.55,3.76.07,1.35,4.8,2.46,8,4v13.86c-2,.09-3.82-.14-5.46.35-1.14.34-2,1.68-2.94,2.58,1,.89,1.83,2.26,3,2.55,1.68.44,3.56.11,5.77.11V210.8a27.46,27.46,0,0,0-5.71.38c-1.15.31-2,1.63-3,2.5.95.91,1.77,2.33,2.88,2.63,1.7.45,3.61.12,5.9.12v15.66c-1.93,0-3.93-.31-5.77.11-1.13.26-2,1.63-3,2.5,1,.91,1.78,2.35,2.89,2.61,1.86.44,3.9.12,6.34.12v14.65c-2.31,0-4.35-.31-6.23.11-1.13.25-2,1.64-3,2.51,1,.91,1.8,2.38,2.89,2.6,2,.42,4.24.12,6.77.12v15.32c-2,.11-4-.11-5.81.42-1.42.42-2.58,1.76-3.85,2.69,1.34.86,2.58,2.11,4,2.49,1.69.43,3.58.1,5.08.1.49.73.8,1,.83,1.27C141.76,288.86,141.76,288.68,132.61,288.9Z" fill="#fc4c02"/><path d="M606.54,287.14c-1-12.92-1.6-25.89-3.06-38.76-4.11-36.23-24.23-60.67-56.84-75.47-29.79-13.52-60.26-12.69-90.41-2.09-28,9.85-45.83,31.15-58.26,57.24-9.19,19.27-12.36,39.48-8.14,60.69.85,4.29,2.66,5.84,7,5.78q29.46-.46,58.93-.53c23.81-.08,47.63,0,71.44,0v-.46c24.32,0,48.63-.08,73,.07C604.84,293.61,606.92,291.91,606.54,287.14Zm-7.54-9.9c-.25,2.62,0,5.28,0,8.5-5.46.28-10.71.75-15.95.77-59.8.22-119.6.29-179.4.7-5.31,0-7.69-1.41-7.74-6.58,0-2.8,0-5.61,0-8.39,2.48-2.4,8.53,1.76,8.4-4.09,0-1.54-4.68-3-7.2-4.47l-1.65.86,3.44-19.11c2.65.65,4.55,1.49,6.42,1.45,1.48,0,2.94-1.14,4.4-1.77-.83-1.38-1.37-3.17-2.57-4-1.38-1-3.35-1.22-5.95-2.07l7.61-16h10.11L415,215.68l-1.71,0,10.6-14c4-.17,5.53,6.44,9,2.48,1.12-1.29-.92-5.3-1.81-9.45l11.89-9.23,9.1,4.35.45-9.7L468,174.48c.7,1.43.93,2.46,1.57,3.09a42.43,42.43,0,0,0,3.86,3.1c.77-1.4,1.54-2.81,2.32-4.21s1.25-3.39,2.18-3.58c5-1,10.11-1.57,13.94-2.1l5.78,6.74,4.07-5.81-.75-1.54c5.38.5,10.78.9,16.13,1.63.72.1,1.82,2,1.68,2.83-.36,2.32-1.57,4.85,1.66,5.79,3.54,1,4-1.94,4.7-4.33a26.79,26.79,0,0,1,1.24-2.64l16.32,5.73c-.25,4.1-1.6,9.13-.41,9.83,5.27,3.09,5-4.12,9-5.83l15.37,10.4c-1.81,2-3.31,3.16-4.12,4.7-.65,1.24-.45,2.92-.63,4.4,1.65.07,3.56.69,4.9.08,1.72-.79,3-2.57,5.05-4.51l12.51,14.94c-2.41,1.53-4.49,2.38-5.86,3.89-1.07,1.18-1.24,3.17-1.81,4.8,1.6.24,3.32,1,4.78.61,1.86-.45,3.51-1.77,6.31-3.3l6.5,18c-2.22,4.17-9.92,1.44-7.89,7.79.41,1.29,5.36,1.12,9.33,1.82.6,4.65,1.49,10.3,1.84,16,0,.67-2.8,1.9-4.43,2.21-2.23.42-5.05-.35-5.09,3.18s2.62,3.54,5,3.24C597.69,270.79,599.43,272.68,599,277.24Z" fill="#fc4c02"/><path d="M272.52,89.49a22.86,22.86,0,0,0,23.07-23.13,22.49,22.49,0,0,0-22.74-22.8c-13.15-.1-22.92,9.71-22.91,23C250,79.48,259.76,89.44,272.52,89.49Zm.31-38.81a15.73,15.73,0,0,1,15.3,15.77,15.52,15.52,0,1,1-31-.3C257.21,57.8,264.55,50.59,272.83,50.68Z" fill="#fc4c02"/><path d="M280.6,6.5c-.22-4.36-3.19-6.53-8.27-6.5-5.36,0-8,2-8.13,6.56q-.28,13.65,0,27.32c.09,4.37,3,6.38,8.17,6.78,4.48.35,7.68-.83,7.88-5.84s0-9.94,0-14.9h.36C280.65,15.45,280.83,11,280.6,6.5Zm-8.77,24.92V8.27l1.25,0C274.86,15.95,273.49,23.68,271.83,31.42Z" fill="#fc4c02"/><path d="M351.26,275.2c-.69-1.24-3.36-1.37-5.12-2-.45,1.64-1.7,3.6-1.21,4.88,2,5.25,4.49,10.33,6.94,15.4a14.77,14.77,0,0,0,2.38,2.92c3.64-1,5.63-2.49,4.15-5.89C356.15,285.34,354,280.11,351.26,275.2Z" fill="#fc4c02"/><path d="M199.37,272.25c-1.28-.26-3.8.39-4.09,1.23-2.08,6.11-3.74,12.36-5.75,19.35.92.84,1.88,2.41,3.05,2.6s3.68-.59,4-1.47c2-6.14,3.66-12.39,5.11-18.67C201.85,274.43,200.34,272.45,199.37,272.25Z" fill="#fc4c02"/><path d="M222.69,258.18c-6.49-1-4,4.26-4.56,7,0,1.66.11,3,0,4.3-.34,3.55,1.72,4.37,4.59,3.92,4.86-.75,2.73-4.72,2.63-7.14C225.22,263.49,227.92,259,222.69,258.18Z" fill="#fc4c02"/><path d="M250.43,262.64c.64-2.38.06-4.6-3.37-4.6-6.39,0-2.93,4.91-3.92,7.18,0,1.73.1,3.06,0,4.37-.29,3.17,1.47,4.51,4.17,3.77C253.72,271.59,249.45,266.25,250.43,262.64Z" fill="#fc4c02"/><path d="M299.42,262.65c.62-2.32.19-4.62-3.32-4.61-6.32,0-3.07,4.85-4,7.18,0,1.73.1,3.06,0,4.37-.28,3.18,1.53,4.51,4.19,3.77C302.71,271.58,298.46,266.25,299.42,262.65Z" fill="#fc4c02"/><path d="M324.52,265.62c0-1-.07-2,0-3,.26-2.94-.48-4.71-4-4.64s-3.48,2.21-3.42,4.66c.06,2.64-.35,5.36.19,7.89a4.55,4.55,0,0,0,3.5,2.67c1.24,0,3-1.46,3.55-2.72s.14-3.24.14-4.89Z" fill="#fc4c02"/><path d="M274.38,261.22a5.25,5.25,0,0,0-3.23-2.93c-.79-.16-2.47,1.54-2.88,2.71a8.68,8.68,0,0,0-.06,4.88c.72,2.64-2.65,7.53,3.25,7.45,5.5-.08,1.93-4.82,3-6.8C274.51,264.46,274.94,262.65,274.38,261.22Z" fill="#fc4c02"/><path d="M110.5,215.17q0-6,0-12c0-8,0-16,0-24s0-16-.16-24c0-2-1.88-4-2.88-6.05-1.62,1.4-3.91,2.48-4.76,4.25q-23.28,48.3-46.23,96.76c-2.55,5.37-1.3,7.26,4.75,7.27,14.32,0,28.65-.13,43,.09,4.79.08,6.44-1.59,6.38-6.38C110.44,239.16,110.48,227.17,110.5,215.17Zm-7.76,34.56H65l36.76-77.5,1,.3Z" fill="#fc4c02"/><path d="M501.84,198.61c-31.81-1.9-60.65,24.28-60.77,55.17,0,6.18.4,6.65,6.45,6.66q25.49,0,51,0c8.66,0,17.33,0,26,0s17.33,0,26,.12c4.88.06,6.34-1.72,6.3-6.45C556.56,225,532.33,200.43,501.84,198.61Zm-53.25,54.19c1.29-15.28,7.86-27.45,19.88-36.31,16.74-12.34,35-14,53.56-4.64,16.3,8.24,25.16,22,27.38,40.95Z" fill="#fc4c02"/><path d="M498.84,264.9c-4.94.05-7.95,3.16-7.88,8.14s3.28,7.95,8.2,7.84a8,8,0,0,0-.32-16Z" fill="#fc4c02"/></svg>