<svg xmlns="http://www.w3.org/2000/svg" width="36.969" height="29.03" viewBox="0 0 36.969 29.03">
  <defs>
    <style>
      .cls-1 {
        fill: #fff;
        fill-rule: evenodd;
      }
    </style>
  </defs>
  <path id="fleche-gauche-ico" class="cls-1" d="M94,3554.69a1.3,1.3,0,0,0-1.3-1.3H61.287l11.189-11.16a1.318,1.318,0,0,0,.381-0.93,1.272,1.272,0,0,0-.381-0.91,1.3,1.3,0,0,0-1.844,0l-13.238,13.2a1.3,1.3,0,0,0,0,1.84l13.238,13.21a1.3,1.3,0,1,0,1.843-1.84l-10.837-10.81H92.7A1.3,1.3,0,0,0,94,3554.69Z" transform="translate(-57.031 -3540)"/>
</svg>
