<svg xmlns="http://www.w3.org/2000/svg" width="451.98" height="554.52" viewBox="0 0 451.98 554.52">
  <title>gear</title>
  <line id="gearLine" x1="280.54" y1="151.51" x2="265.43" y2="169.47" fill="none" stroke="#fc4c02" stroke-linecap="round" stroke-linejoin="round" stroke-width="12"/>
  <path id="gearPath" d="M155.15,6l.2,165.91a172.89,172.89,0,0,0-26.17,15.46L87.36,166.43a12.42,12.42,0,0,0-14.26,1.81,225.87,225.87,0,0,0-31,38A12.32,12.32,0,0,0,43,220.73l29.33,35.2a170.84,170.84,0,0,0-9.86,28.16L16.4,295.14a12.43,12.43,0,0,0-9.53,10.68A221.84,221.84,0,0,0,8,354.39,12.3,12.3,0,0,0,18,365l45.42,7.9a174.17,174.17,0,0,0,10,27.82L45.19,438.42a12.35,12.35,0,0,0-.33,14.51c9,13.06,32.26,37.56,32.57,37.84a12.43,12.43,0,0,0,14,.27l39.25-22.6c3.86,2.63,7.83,5.35,11.86,7.67,4.85,2.78,9.86,4.8,14.83,7.08l2.57,46.49a12.3,12.3,0,0,0,8.89,11.23,222.35,222.35,0,0,0,48.1,7.59,12.45,12.45,0,0,0,12.2-8l15.83-43.57a176.19,176.19,0,0,0,29.71-5.4l32,34.29a12.4,12.4,0,0,0,14.55,2.63,222.33,222.33,0,0,0,41.63-25A12.37,12.37,0,0,0,367,489.24l-15.65-42.91a171.24,171.24,0,0,0,19.06-23.15l46.91,5.23a12.46,12.46,0,0,0,12.79-6.84,218.64,218.64,0,0,0,15.54-45.64A12.3,12.3,0,0,0,440,362.61l-39.75-23a172.07,172.07,0,0,0-.53-29.62l39.86-26.15a12.39,12.39,0,0,0,5.08-13.34,223.18,223.18,0,0,0-17.12-45.57,12.34,12.34,0,0,0-13.05-6.49l-45.46,8.11a171.54,171.54,0,0,0-19.84-22.76L363.28,159a12.31,12.31,0,0,0-4.73-13.62c-5.66-4-11.27-7.94-17.49-11.51a223.17,223.17,0,0,0-24.62-12.09,12.45,12.45,0,0,0-14.56,3.29l-5.32,6.33" fill="none" stroke="#fc4c02" stroke-linecap="round" stroke-linejoin="round" stroke-width="12"/>
</svg>
