<svg xmlns="http://www.w3.org/2000/svg" width="33" height="28.71" viewBox="0 0 33 28.71"><title>google-plus-ico</title><path d="M17.9,0h-8S1.7.2,1.7,7.08s7.12,6.08,7.12,6.08V14.9c0,.7,1,.47,1.07,1.89-.48,0-9.9-.25-9.9,6S8.3,28.7,8.3,28.7s9.6.44,9.6-7.3c0-4.63-5.47-6.13-5.47-8S16.55,11,16.55,6.6c0-2.63-.24-4.22-2.32-5.16C14.22.79,17.9,1.22,17.9,0ZM15.31,21.93c.16,2.42-2.4,4.56-5.72,4.78s-6.15-1.55-6.31-4S5.68,18.19,9,18,15.15,19.52,15.31,21.93ZM10.42,11.51c-2,.54-4.19-1.27-4.95-4s.24-5.43,2.22-6,4.19,1.27,4.95,4S12.4,11,10.42,11.51Zm17-5.92V0H25.75V5.58h-5.6V7.23h5.6v5.58H27.4V7.23H33V5.58Z" fill="#1d3f51"/></svg>