<?xml version="1.0" encoding="utf-8"?>
<!-- Generator: Adobe Illustrator 20.1.0, SVG Export Plug-In . SVG Version: 6.00 Build 0)  -->
<svg version="1.1" id="Logo_Goood_blanc_copie_2" xmlns="http://www.w3.org/2000/svg" xmlns:xlink="http://www.w3.org/1999/xlink"
	 x="0px" y="0px" viewBox="0 0 147 71" style="enable-background:new 0 0 147 71;" xml:space="preserve">
<style type="text/css">
	.st0{fill:#FFFFFF;}
</style>
<g id="GOOOD_1_">
	
		<image style="overflow:visible;opacity:0.75;enable-background:new    ;" width="136" height="53" xlink:href="/images/FF34CFE65388C1A0.png"  transform="matrix(1 0 0 1 4 2)">
	</image>
	<g>
		<path class="st0" d="M124.5,7c5.3,0,8.5,3.5,8.5,8.1V39c0,4.6-3.1,8.1-8.5,8.1h-7.6V7H124.5z M121.1,43.1h3.4
			c2.1,0.2,4-1.4,4.2-3.6c0-0.2,0-0.4,0-0.6V15.1c0.1-2.2-1.5-4-3.6-4.2c-0.2,0-0.4,0-0.6,0h-3.4V43.1L121.1,43.1z M79.2,16.9v12.2
			c-0.1,4.4-3.7,7.9-8.1,7.8c-4.3-0.1-7.8-3.5-7.8-7.8V16.9c0.1-4.4,3.7-7.9,8.1-7.8C75.7,9.1,79.2,12.6,79.2,16.9 M67.9,16.9v12.2
			c-0.1,1.8,1.4,3.4,3.2,3.4c1.8,0.1,3.4-1.4,3.4-3.2c0-0.1,0-0.2,0-0.2V16.9c0.1-1.8-1.4-3.4-3.2-3.4c-1.8-0.1-3.4,1.4-3.4,3.2
			C67.9,16.7,67.9,16.8,67.9,16.9 M52.7,16.9v12.2c0.1,4.2-3.1,7.7-7.3,7.8c-0.2,0-0.4,0-0.7,0c-4.2,0.2-7.7-3-8-7.2
			c0-0.2,0-0.4,0-0.7V16.9c0.1-4.4,3.7-7.9,8.1-7.8C49.1,9.2,52.6,12.6,52.7,16.9 M41.4,16.9v12.2c-0.1,1.8,1.4,3.4,3.2,3.4
			c1.8,0.1,3.4-1.4,3.4-3.2c0-0.1,0-0.2,0-0.2V16.9c0.1-1.8-1.4-3.4-3.2-3.4c-1.8-0.1-3.4,1.4-3.4,3.2
			C41.4,16.7,41.4,16.8,41.4,16.9 M106.1,16.9v12.2c0,4.4-3.7,7.9-8,7.9s-7.8-3.5-7.9-7.9V16.9c0.1-4.4,3.7-7.9,8.1-7.8
			C102.6,9.2,106,12.6,106.1,16.9 M94.8,16.9v12.2c-0.1,1.8,1.4,3.4,3.2,3.4c1.8,0.1,3.4-1.4,3.4-3.2c0-0.1,0-0.2,0-0.2V16.9
			c0.1-1.8-1.4-3.4-3.2-3.4c-1.8-0.1-3.4,1.4-3.4,3.2C94.8,16.7,94.8,16.8,94.8,16.9 M21.3,29.4h-4v-4.3h8.6v14.6
			c0.2,4.2-3.1,7.7-7.3,7.8c-0.2,0-0.4,0-0.7,0c-4.2,0.2-7.7-3-8-7.2c0-0.2,0-0.4,0-0.7V15.3c-0.1-4.2,3.2-7.7,7.4-7.8
			c0.2,0,0.4,0,0.6,0c4.2-0.2,7.8,3,7.9,7.2c0,0.2,0,0.4,0,0.6v2h-4.6v-2c0.1-1.8-1.4-3.4-3.2-3.4c-1.8-0.1-3.4,1.4-3.4,3.2
			c0,0.1,0,0.2,0,0.2v24.5c-0.1,1.8,1.4,3.4,3.2,3.4c1.8,0.1,3.4-1.4,3.4-3.2c0-0.1,0-0.2,0-0.2L21.3,29.4z"/>
	</g>
</g>
<g id="__1_">
	
		<image style="overflow:visible;opacity:0.75;enable-background:new    ;" width="87" height="26" xlink:href="/images/FF34CFE65388C1A7.png"  transform="matrix(1 0 0 1 29 39)">
	</image>
	<g>
		<path class="st0" d="M40.5,51.1c-0.3,0-0.6-0.1-0.9-0.2c-0.9-0.3-1.8-0.8-2.7-1.2c-0.5-0.2-0.9-0.5-1.3-0.7
			c-1.1-0.5-1.6-1.8-1.1-2.9c0,0,0,0,0-0.1c0.6-1.1,1.9-1.6,3.1-1.1c0.5,0.2,0.9,0.5,1.5,0.7c0.8,0.4,1.6,0.8,2.3,1.1
			c1.1,0.4,1.7,1.7,1.3,2.9c0,0,0,0,0,0.1C42.3,50.6,41.4,51.1,40.5,51.1z M71.1,57c-7.9,0-15.7-1-23.4-3c-1.2-0.3-1.9-1.5-1.6-2.7
			l0,0c0.4-1.2,1.6-1.9,2.9-1.5c7.2,1.9,14.6,2.9,22.1,2.9c11.6,0,23.1-2.5,33.7-7.5c1.1-0.5,2.5-0.1,3.1,1c0.5,1.1,0.1,2.4-1,3
			c0,0,0,0-0.1,0C95.6,54.3,83.4,57,71.1,57z"/>
	</g>
</g>
</svg>
