<svg xmlns="http://www.w3.org/2000/svg" width="416.16" height="68.93" viewBox="0 0 416.16 68.93">
  <title>sourire-dots</title>
  <path d="M35,35.7a13.38,13.38,0,0,1-5-1c-4.81-1.94-10-4.48-15-6.93-2.65-1.3-5.24-2.57-7.61-3.66a12.52,12.52,0,0,1-6.2-16.9,13.24,13.24,0,0,1,17.41-6C21.23,2.41,24,3.77,26.87,5.18c4.56,2.24,9.27,4.55,13.18,6.13a12.56,12.56,0,0,1,7.06,16.58A13.09,13.09,0,0,1,35,35.7Z" fill="#fc4c02"/>
  <path d="M207.55,68.93c-45,0-91.82-6.09-131.82-17.14a12.63,12.63,0,0,1-9-15.67A13.13,13.13,0,0,1,82.89,27.4c37.19,10.27,82.63,16.17,124.66,16.17a443.86,443.86,0,0,0,189.86-42,13.24,13.24,0,0,1,17.45,5.9,12.52,12.52,0,0,1-6.08,16.93A470.38,470.38,0,0,1,207.55,68.93Z" fill="#fc4c02"/>
  <path class="demarche-circle active" d="M82.7,34a6.65,6.65,0,1,1-6.47,6.92A6.7,6.7,0,0,1,82.7,34Z" fill="#fff" fill-rule="evenodd"/>
  <path class="demarche-circle" d="M162.36,48.46a6.65,6.65,0,1,1-6.47,6.92A6.7,6.7,0,0,1,162.36,48.46Z" fill="#fff" fill-rule="evenodd"/>
  <path class="demarche-circle" d="M242,49.52a6.65,6.65,0,1,1-6.47,6.92A6.7,6.7,0,0,1,242,49.52Z" fill="#fff" fill-rule="evenodd"/>
  <path class="demarche-circle" d="M321.67,36.57a6.65,6.65,0,1,1-6.47,6.92A6.7,6.7,0,0,1,321.67,36.57Z" fill="#fff" fill-rule="evenodd"/>
  <path class="demarche-circle" d="M401.33,7.41a6.65,6.65,0,1,1-6.47,6.92A6.7,6.7,0,0,1,401.33,7.41Z" fill="#fff" fill-rule="evenodd"/>
</svg>
