<?xml version="1.0" encoding="UTF-8" standalone="no"?>
<svg width="75px" height="13px" viewBox="0 0 75 13" version="1.1" xmlns="http://www.w3.org/2000/svg" xmlns:xlink="http://www.w3.org/1999/xlink">
    <!-- Generator: Sketch 39 (31667) - http://www.bohemiancoding.com/sketch -->
    <title>_</title>
    <desc>Created with Sketch.</desc>
    <defs></defs>
    <g id="Page-1" stroke="none" stroke-width="1" fill="none" fill-rule="evenodd">
        <g id="logo-gooog-couleur" fill="#FC4C02">
            <path d="M6.5,7.1 C6.19569181,7.10237872 5.89391253,7.04460566 5.612,6.93 C4.759,6.58 3.844,6.13 2.96,5.7 C2.49,5.47 2.032,5.24 1.611,5.05 C1.06079125,4.80537379 0.633222086,4.34819222 0.425932856,3.78285795 C0.218643626,3.21752369 0.249335632,2.59231302 0.511,2.05 C1.08395428,0.920218397 2.4487557,0.447157974 3.598,0.98 C4.051,1.19 4.544,1.43 5.05,1.68 C5.859,2.08 6.695,2.49 7.387,2.77 C7.94850362,2.98681693 8.39833129,3.42168969 8.63400215,3.97554449 C8.86967302,4.52939929 8.87111515,5.15506467 8.638,5.71 C8.2677603,6.5594764 7.42663237,7.10632758 6.5,7.1 L6.5,7.1 Z M37.084,13 C29.1949702,13.0120248 21.3383909,11.989987 13.715,9.96 C13.1316835,9.80798005 12.6340576,9.42766788 12.3342155,8.90473114 C12.0343733,8.38179439 11.9575318,7.76021229 12.121,7.18 C12.493554,5.97002347 13.7660608,5.2808601 14.983,5.63 C22.1956362,7.5328504 29.6235795,8.49747471 37.083,8.5 C48.7163112,8.53625006 60.2124552,5.98823074 70.741,1.04 C71.8866794,0.497394077 73.2562115,0.962167396 73.835,2.09 C74.0994929,2.63097979 74.1340672,3.25590547 73.9308656,3.82276063 C73.7276641,4.3896158 73.303945,4.85025627 72.756,5.1 C61.5970103,10.3381345 49.4151972,13.0362483 37.088,13 L37.084,13 Z" id="_"></path>
        </g>
    </g>
</svg>