<svg xmlns="http://www.w3.org/2000/svg" width="32" height="27" viewBox="0 0 32 27"><title>twitter-ico</title><path d="M32,3.2a12.73,12.73,0,0,1-3.77,1.07A6.79,6.79,0,0,0,31.12.5a12.85,12.85,0,0,1-4.17,1.65A6.45,6.45,0,0,0,22.16,0a6.7,6.7,0,0,0-6.57,6.82,7,7,0,0,0,.17,1.55A18.42,18.42,0,0,1,2.23,1.25a7,7,0,0,0-.89,3.43,6.88,6.88,0,0,0,2.92,5.67,6.33,6.33,0,0,1-3-.85v.09a6.76,6.76,0,0,0,5.27,6.69,6.34,6.34,0,0,1-3,.12,6.61,6.61,0,0,0,6.13,4.73A12.84,12.84,0,0,1,0,23.94,18.1,18.1,0,0,0,10.06,27C22.14,27,28.74,16.61,28.74,7.61c0-.29,0-.59,0-.88A13.64,13.64,0,0,0,32,3.2Z" fill="#1d3f51"/></svg>